NotoSansGeorgian-CondensedLight.ufo
<glyph name="acutecomb" format="2">
  <unicode hex="0301"/>
  <anchor x="-19" y="527" name="_top"/>
  <anchor x="-19" y="763" name="top"/>
  <outline>
    <contour>
      <point x="71" y="763" type="line"/>
      <point x="41" y="763" type="line"/>
      <point x="7" y="711"/>
      <point x="-25" y="671"/>
      <point x="-70" y="618" type="curve"/>
      <point x="-70" y="606" type="line"/>
      <point x="-56" y="606" type="line"/>
      <point x="-17" y="643"/>
      <point x="38" y="707"/>
      <point x="71" y="756" type="curve"/>
    </contour>
  </outline>
</glyph>
<glyph name="circumflexcomb" format="2">
  <unicode hex="0302"/>
  <anchor x="0" y="527" name="_top"/>
  <anchor x="0" y="763" name="top"/>
  <outline>
    <contour>
      <point x="15" y="763" type="curve"/>
      <point x="-15" y="763" type="line"/>
      <point x="-39" y="719"/>
      <point x="-83" y="644"/>
      <point x="-104" y="613" type="curve"/>
      <point x="-104" y="606" type="line"/>
      <point x="-88" y="606" type="line"/>
      <point x="-61" y="639"/>
      <point x="-25" y="696"/>
      <point x="0" y="733" type="curve"/>
      <point x="27" y="693"/>
      <point x="61" y="640"/>
      <point x="89" y="606" type="curve"/>
      <point x="104" y="606" type="line"/>
      <point x="104" y="613" type="line"/>
      <point x="92" y="632"/>
      <point x="41" y="716"/>
    </contour>
  </outline>
</glyph>
<glyph name="macroncomb" format="2">
  <unicode hex="0304"/>
  <anchor x="0" y="527" name="_top"/>
  <anchor x="0" y="651" name="top"/>
  <outline>
    <contour>
      <point x="101" y="651" type="line"/>
      <point x="-101" y="651" type="line"/>
      <point x="-101" y="627" type="line"/>
      <point x="101" y="627" type="line"/>
    </contour>
  </outline>
</glyph>
<glyph name="dieresiscomb" format="2">
  <unicode hex="0308"/>
  <anchor x="1" y="527" name="_top"/>
  <anchor x="1" y="676" name="top"/>
  <outline>
    <contour>
      <point x="-95" y="643" type="curve" smooth="yes"/>
      <point x="-95" y="626"/>
      <point x="-86" y="611"/>
      <point x="-70" y="611" type="curve" smooth="yes"/>
      <point x="-56" y="611"/>
      <point x="-46" y="624"/>
      <point x="-46" y="643" type="curve" smooth="yes"/>
      <point x="-46" y="662"/>
      <point x="-56" y="676"/>
      <point x="-70" y="676" type="curve" smooth="yes"/>
      <point x="-86" y="676"/>
      <point x="-95" y="660"/>
    </contour>
    <contour>
      <point x="46" y="644" type="curve" smooth="yes"/>
      <point x="46" y="626"/>
      <point x="56" y="611"/>
      <point x="71" y="611" type="curve" smooth="yes"/>
      <point x="86" y="611"/>
      <point x="96" y="625"/>
      <point x="96" y="644" type="curve" smooth="yes"/>
      <point x="96" y="663"/>
      <point x="85" y="676"/>
      <point x="71" y="676" type="curve" smooth="yes"/>
      <point x="56" y="676"/>
      <point x="46" y="661"/>
    </contour>
  </outline>
</glyph>
<glyph name="An-oldgeorgian" format="2">
  <advance width="412"/>
  <unicode hex="10A0"/>
  <note>
uni10A0
</note>
  <outline>
    <contour>
      <point x="269" y="-10" type="curve" smooth="yes"/>
      <point x="307" y="-10"/>
      <point x="345" y="1"/>
      <point x="370" y="16" type="curve"/>
      <point x="370" y="43" type="line"/>
      <point x="350" y="31"/>
      <point x="314" y="15"/>
      <point x="269" y="15" type="curve" smooth="yes"/>
      <point x="151" y="15"/>
      <point x="81" y="134"/>
      <point x="81" y="347" type="curve" smooth="yes"/>
      <point x="81" y="543"/>
      <point x="163" y="689"/>
      <point x="311" y="689" type="curve" smooth="yes"/>
      <point x="370" y="689" type="line"/>
      <point x="370" y="714" type="line"/>
      <point x="94" y="714" type="line"/>
      <point x="94" y="690" type="line"/>
      <point x="221" y="690" type="line"/>
      <point x="221" y="688" type="line"/>
      <point x="115" y="647"/>
      <point x="54" y="523"/>
      <point x="54" y="347" type="curve" smooth="yes"/>
      <point x="54" y="126"/>
      <point x="130" y="-10"/>
    </contour>
  </outline>
</glyph>
<glyph name="Ban-oldgeorgian" format="2">
  <advance width="502"/>
  <unicode hex="10A1"/>
  <note>
uni10A1
</note>
  <outline>
    <contour>
      <point x="332" y="0" type="line"/>
      <point x="492" y="0" type="line"/>
      <point x="492" y="25" type="line"/>
      <point x="358" y="25" type="line"/>
      <point x="358" y="714" type="line"/>
      <point x="332" y="714" type="line"/>
      <point x="332" y="484" type="line" smooth="yes"/>
      <point x="332" y="300"/>
      <point x="274" y="243"/>
      <point x="196" y="243" type="curve" smooth="yes"/>
      <point x="113" y="243"/>
      <point x="76" y="327"/>
      <point x="76" y="450" type="curve" smooth="yes"/>
      <point x="76" y="566"/>
      <point x="97" y="644"/>
      <point x="129" y="714" type="curve"/>
      <point x="100" y="714" type="line"/>
      <point x="66" y="635"/>
      <point x="49" y="560"/>
      <point x="49" y="450" type="curve" smooth="yes"/>
      <point x="49" y="304"/>
      <point x="102" y="218"/>
      <point x="196" y="218" type="curve" smooth="yes"/>
      <point x="261" y="218"/>
      <point x="310" y="255"/>
      <point x="332" y="333" type="curve"/>
      <point x="334" y="333" type="line"/>
      <point x="333" y="311"/>
      <point x="332" y="263"/>
      <point x="332" y="218" type="curve" smooth="yes"/>
    </contour>
  </outline>
</glyph>
<glyph name="Gan-oldgeorgian" format="2">
  <advance width="504"/>
  <unicode hex="10A2"/>
  <note>
uni10A2
</note>
  <outline>
    <contour>
      <point x="334" y="0" type="line"/>
      <point x="494" y="0" type="line"/>
      <point x="494" y="25" type="line"/>
      <point x="360" y="25" type="line"/>
      <point x="360" y="714" type="line"/>
      <point x="68" y="714" type="line"/>
      <point x="68" y="407" type="line"/>
      <point x="94" y="407" type="line"/>
      <point x="94" y="689" type="line"/>
      <point x="334" y="689" type="line"/>
    </contour>
  </outline>
</glyph>
<glyph name="Don-oldgeorgian" format="2">
  <advance width="517"/>
  <unicode hex="10A3"/>
  <note>
uni10A3
</note>
  <outline>
    <contour>
      <point x="257" y="-10" type="curve" smooth="yes"/>
      <point x="391" y="-10"/>
      <point x="463" y="106"/>
      <point x="463" y="283" type="curve" smooth="yes"/>
      <point x="463" y="455"/>
      <point x="386" y="568"/>
      <point x="272" y="573" type="curve"/>
      <point x="272" y="689" type="line"/>
      <point x="434" y="689" type="line"/>
      <point x="434" y="714" type="line"/>
      <point x="83" y="714" type="line"/>
      <point x="83" y="689" type="line"/>
      <point x="246" y="689" type="line"/>
      <point x="246" y="573" type="line"/>
      <point x="135" y="568"/>
      <point x="54" y="455"/>
      <point x="54" y="282" type="curve" smooth="yes"/>
      <point x="54" y="106"/>
      <point x="122" y="-10"/>
    </contour>
    <contour>
      <point x="257" y="15" type="curve" smooth="yes"/>
      <point x="145" y="15"/>
      <point x="81" y="110"/>
      <point x="81" y="282" type="curve" smooth="yes"/>
      <point x="81" y="449"/>
      <point x="157" y="550"/>
      <point x="260" y="550" type="curve" smooth="yes"/>
      <point x="364" y="550"/>
      <point x="436" y="449"/>
      <point x="436" y="283" type="curve" smooth="yes"/>
      <point x="436" y="111"/>
      <point x="369" y="15"/>
    </contour>
  </outline>
</glyph>
<glyph name="En-oldgeorgian" format="2">
  <advance width="438"/>
  <unicode hex="10A4"/>
  <note>
uni10A4
</note>
  <outline>
    <contour>
      <point x="334" y="0" type="line"/>
      <point x="360" y="0" type="line"/>
      <point x="360" y="714" type="line"/>
      <point x="68" y="714" type="line"/>
      <point x="68" y="407" type="line"/>
      <point x="94" y="407" type="line"/>
      <point x="94" y="689" type="line"/>
      <point x="334" y="689" type="line"/>
    </contour>
  </outline>
</glyph>
<glyph name="Vin-oldgeorgian" format="2">
  <advance width="554"/>
  <unicode hex="10A5"/>
  <note>
uni10A5
</note>
  <outline>
    <contour>
      <point x="334" y="0" type="line"/>
      <point x="360" y="0" type="line"/>
      <point x="360" y="368" type="line"/>
      <point x="494" y="368" type="line"/>
      <point x="494" y="214" type="line"/>
      <point x="520" y="214" type="line"/>
      <point x="520" y="393" type="line"/>
      <point x="360" y="393" type="line"/>
      <point x="360" y="714" type="line"/>
      <point x="68" y="714" type="line"/>
      <point x="68" y="407" type="line"/>
      <point x="94" y="407" type="line"/>
      <point x="94" y="689" type="line"/>
      <point x="334" y="689" type="line"/>
    </contour>
  </outline>
</glyph>
<glyph name="Zen-oldgeorgian" format="2">
  <advance width="546"/>
  <unicode hex="10A6"/>
  <note>
uni10A6
</note>
  <outline>
    <contour>
      <point x="328" y="-10" type="curve" smooth="yes"/>
      <point x="449" y="-10"/>
      <point x="497" y="99"/>
      <point x="497" y="263" type="curve" smooth="yes"/>
      <point x="497" y="424"/>
      <point x="442" y="535"/>
      <point x="334" y="535" type="curve" smooth="yes"/>
      <point x="264" y="535"/>
      <point x="216" y="485"/>
      <point x="190" y="408" type="curve"/>
      <point x="187" y="408" type="line"/>
      <point x="189" y="441"/>
      <point x="190" y="481"/>
      <point x="190" y="518" type="curve" smooth="yes"/>
      <point x="190" y="714" type="line"/>
      <point x="10" y="714" type="line"/>
      <point x="10" y="689" type="line"/>
      <point x="164" y="689" type="line"/>
      <point x="164" y="247" type="line" smooth="yes"/>
      <point x="164" y="95"/>
      <point x="214" y="-10"/>
    </contour>
    <contour>
      <point x="328" y="15" type="curve" smooth="yes"/>
      <point x="234" y="15"/>
      <point x="190" y="105"/>
      <point x="190" y="259" type="curve" smooth="yes"/>
      <point x="190" y="401"/>
      <point x="241" y="510"/>
      <point x="334" y="510" type="curve" smooth="yes"/>
      <point x="415" y="510"/>
      <point x="470" y="424"/>
      <point x="470" y="263" type="curve" smooth="yes"/>
      <point x="470" y="103"/>
      <point x="423" y="15"/>
    </contour>
  </outline>
</glyph>
<glyph name="Tan-oldgeorgian" format="2">
  <advance width="598"/>
  <unicode hex="10A7"/>
  <note>
uni10A7
</note>
  <outline>
    <contour>
      <point x="404" y="393" type="line"/>
      <point x="404" y="714" type="line"/>
      <point x="303" y="714" type="line" smooth="yes"/>
      <point x="151" y="714"/>
      <point x="54" y="596"/>
      <point x="54" y="352" type="curve" smooth="yes"/>
      <point x="54" y="124"/>
      <point x="151" y="0"/>
      <point x="303" y="0" type="curve" smooth="yes"/>
      <point x="404" y="0" type="line"/>
      <point x="404" y="368" type="line"/>
      <point x="538" y="368" type="line"/>
      <point x="538" y="214" type="line"/>
      <point x="564" y="214" type="line"/>
      <point x="564" y="393" type="line"/>
    </contour>
    <contour>
      <point x="378" y="25" type="line"/>
      <point x="303" y="25" type="line" smooth="yes"/>
      <point x="159" y="25"/>
      <point x="81" y="148"/>
      <point x="81" y="352" type="curve" smooth="yes"/>
      <point x="81" y="573"/>
      <point x="159" y="689"/>
      <point x="303" y="689" type="curve" smooth="yes"/>
      <point x="378" y="689" type="line"/>
    </contour>
  </outline>
</glyph>
<glyph name="In-oldgeorgian" format="2">
  <advance width="314"/>
  <unicode hex="10A8"/>
  <note>
uni10A8
</note>
  <outline>
    <contour>
      <point x="210" y="0" type="line"/>
      <point x="236" y="0" type="line"/>
      <point x="236" y="714" type="line"/>
      <point x="10" y="714" type="line"/>
      <point x="10" y="689" type="line"/>
      <point x="210" y="689" type="line"/>
    </contour>
  </outline>
</glyph>
<glyph name="Kan-oldgeorgian" format="2">
  <advance width="479"/>
  <unicode hex="10A9"/>
  <note>
uni10A9
</note>
  <outline>
    <contour>
      <point x="382" y="0" type="line"/>
      <point x="408" y="0" type="line"/>
      <point x="408" y="355" type="line" smooth="yes"/>
      <point x="408" y="509"/>
      <point x="356" y="615"/>
      <point x="244" y="615" type="curve" smooth="yes"/>
      <point x="185" y="615"/>
      <point x="126" y="575"/>
      <point x="99" y="490" type="curve"/>
      <point x="96" y="490" type="line"/>
      <point x="97" y="514"/>
      <point x="98" y="549"/>
      <point x="98" y="595" type="curve" smooth="yes"/>
      <point x="98" y="714" type="line"/>
      <point x="72" y="714" type="line"/>
      <point x="72" y="362" type="line" smooth="yes"/>
      <point x="72" y="199"/>
      <point x="128" y="102"/>
      <point x="241" y="102" type="curve" smooth="yes"/>
      <point x="300" y="102"/>
      <point x="354" y="143"/>
      <point x="380" y="227" type="curve"/>
      <point x="384" y="227" type="line"/>
      <point x="383" y="189"/>
      <point x="382" y="152"/>
      <point x="382" y="109" type="curve" smooth="yes"/>
    </contour>
    <contour>
      <point x="241" y="127" type="curve" smooth="yes"/>
      <point x="148" y="127"/>
      <point x="98" y="205"/>
      <point x="98" y="363" type="curve" smooth="yes"/>
      <point x="98" y="492"/>
      <point x="156" y="590"/>
      <point x="244" y="590" type="curve" smooth="yes"/>
      <point x="331" y="590"/>
      <point x="382" y="503"/>
      <point x="382" y="355" type="curve" smooth="yes"/>
      <point x="382" y="216"/>
      <point x="317" y="127"/>
    </contour>
  </outline>
</glyph>
<glyph name="Las-oldgeorgian" format="2">
  <advance width="686"/>
  <unicode hex="10AA"/>
  <note>
uni10AA
</note>
  <outline>
    <contour>
      <point x="468" y="-10" type="curve" smooth="yes"/>
      <point x="589" y="-10"/>
      <point x="637" y="99"/>
      <point x="637" y="263" type="curve" smooth="yes"/>
      <point x="637" y="424"/>
      <point x="582" y="535"/>
      <point x="474" y="535" type="curve" smooth="yes"/>
      <point x="404" y="535"/>
      <point x="356" y="485"/>
      <point x="330" y="408" type="curve"/>
      <point x="327" y="408" type="line"/>
      <point x="329" y="441"/>
      <point x="330" y="481"/>
      <point x="330" y="518" type="curve" smooth="yes"/>
      <point x="330" y="714" type="line"/>
      <point x="68" y="714" type="line"/>
      <point x="68" y="407" type="line"/>
      <point x="94" y="407" type="line"/>
      <point x="94" y="689" type="line"/>
      <point x="304" y="689" type="line"/>
      <point x="304" y="247" type="line" smooth="yes"/>
      <point x="304" y="95"/>
      <point x="354" y="-10"/>
    </contour>
    <contour>
      <point x="468" y="15" type="curve" smooth="yes"/>
      <point x="374" y="15"/>
      <point x="330" y="105"/>
      <point x="330" y="259" type="curve" smooth="yes"/>
      <point x="330" y="401"/>
      <point x="381" y="510"/>
      <point x="474" y="510" type="curve" smooth="yes"/>
      <point x="555" y="510"/>
      <point x="610" y="424"/>
      <point x="610" y="263" type="curve" smooth="yes"/>
      <point x="610" y="103"/>
      <point x="563" y="15"/>
    </contour>
  </outline>
</glyph>
<glyph name="Man-oldgeorgian" format="2">
  <advance width="480"/>
  <unicode hex="10AB"/>
  <note>
uni10AB
</note>
  <outline>
    <contour>
      <point x="204" y="-10" type="curve" smooth="yes"/>
      <point x="308" y="-10"/>
      <point x="352" y="83"/>
      <point x="352" y="232" type="curve" smooth="yes"/>
      <point x="352" y="425" type="line"/>
      <point x="446" y="425" type="line"/>
      <point x="446" y="450" type="line"/>
      <point x="352" y="450" type="line"/>
      <point x="352" y="714" type="line"/>
      <point x="89" y="714" type="line"/>
      <point x="89" y="689" type="line"/>
      <point x="326" y="689" type="line"/>
      <point x="326" y="450" type="line"/>
      <point x="230" y="450" type="line" smooth="yes"/>
      <point x="116" y="450"/>
      <point x="54" y="384"/>
      <point x="54" y="225" type="curve" smooth="yes"/>
      <point x="54" y="83"/>
      <point x="102" y="-10"/>
    </contour>
    <contour>
      <point x="204" y="15" type="curve" smooth="yes"/>
      <point x="122" y="15"/>
      <point x="81" y="93"/>
      <point x="81" y="225" type="curve" smooth="yes"/>
      <point x="81" y="373"/>
      <point x="134" y="425"/>
      <point x="230" y="425" type="curve" smooth="yes"/>
      <point x="326" y="425" type="line"/>
      <point x="326" y="233" type="line" smooth="yes"/>
      <point x="326" y="93"/>
      <point x="288" y="15"/>
    </contour>
  </outline>
</glyph>
<glyph name="Nar-oldgeorgian" format="2">
  <advance width="459"/>
  <unicode hex="10AC"/>
  <note>
uni10AC
</note>
  <outline>
    <contour>
      <point x="71" y="0" type="line"/>
      <point x="97" y="0" type="line"/>
      <point x="97" y="224" type="line" smooth="yes"/>
      <point x="97" y="385"/>
      <point x="147" y="456"/>
      <point x="233" y="456" type="curve" smooth="yes"/>
      <point x="321" y="456"/>
      <point x="360" y="394"/>
      <point x="360" y="245" type="curve" smooth="yes"/>
      <point x="360" y="0" type="line"/>
      <point x="386" y="0" type="line"/>
      <point x="386" y="247" type="line" smooth="yes"/>
      <point x="386" y="426"/>
      <point x="326" y="481"/>
      <point x="235" y="481" type="curve" smooth="yes"/>
      <point x="157" y="481"/>
      <point x="118" y="431"/>
      <point x="97" y="367" type="curve"/>
      <point x="95" y="367" type="line"/>
      <point x="97" y="394"/>
      <point x="97" y="426"/>
      <point x="97" y="444" type="curve" smooth="yes"/>
      <point x="97" y="689" type="line"/>
      <point x="370" y="689" type="line"/>
      <point x="370" y="714" type="line"/>
      <point x="71" y="714" type="line"/>
    </contour>
  </outline>
</glyph>
<glyph name="On-oldgeorgian" format="2">
  <advance width="546"/>
  <unicode hex="10AD"/>
  <note>
uni10AD
</note>
  <outline>
    <contour>
      <point x="257" y="-10" type="curve" smooth="yes"/>
      <point x="305" y="-10"/>
      <point x="342" y="6"/>
      <point x="370" y="33" type="curve"/>
      <point x="393" y="7"/>
      <point x="419" y="-10"/>
      <point x="451" y="-10" type="curve" smooth="yes"/>
      <point x="509" y="-10"/>
      <point x="536" y="30"/>
      <point x="536" y="93" type="curve"/>
      <point x="509" y="93" type="line"/>
      <point x="509" y="43"/>
      <point x="491" y="12"/>
      <point x="451" y="12" type="curve" smooth="yes"/>
      <point x="427" y="12"/>
      <point x="405" y="26"/>
      <point x="385" y="49" type="curve"/>
      <point x="440" y="117"/>
      <point x="457" y="234"/>
      <point x="457" y="358" type="curve" smooth="yes"/>
      <point x="457" y="570"/>
      <point x="404" y="724"/>
      <point x="257" y="724" type="curve" smooth="yes"/>
      <point x="126" y="724"/>
      <point x="54" y="602"/>
      <point x="54" y="358" type="curve" smooth="yes"/>
      <point x="54" y="173"/>
      <point x="97" y="-10"/>
    </contour>
    <contour>
      <point x="257" y="15" type="curve" smooth="yes"/>
      <point x="143" y="15"/>
      <point x="80" y="141"/>
      <point x="80" y="358" type="curve" smooth="yes"/>
      <point x="80" y="574"/>
      <point x="137" y="699"/>
      <point x="257" y="699" type="curve" smooth="yes"/>
      <point x="374" y="699"/>
      <point x="431" y="577"/>
      <point x="431" y="358" type="curve" smooth="yes"/>
      <point x="431" y="135"/>
      <point x="374" y="15"/>
    </contour>
  </outline>
</glyph>
<glyph name="Par-oldgeorgian" format="2">
  <advance width="579"/>
  <unicode hex="10AE"/>
  <note>
uni10AE
</note>
  <outline>
    <contour>
      <point x="335" y="-10" type="curve" smooth="yes"/>
      <point x="430" y="-10"/>
      <point x="506" y="42"/>
      <point x="506" y="217" type="curve" smooth="yes"/>
      <point x="506" y="714" type="line"/>
      <point x="480" y="714" type="line"/>
      <point x="480" y="221" type="line" smooth="yes"/>
      <point x="480" y="63"/>
      <point x="420" y="15"/>
      <point x="335" y="15" type="curve" smooth="yes"/>
      <point x="244" y="15"/>
      <point x="190" y="71"/>
      <point x="190" y="221" type="curve" smooth="yes"/>
      <point x="190" y="714" type="line"/>
      <point x="10" y="714" type="line"/>
      <point x="10" y="689" type="line"/>
      <point x="164" y="689" type="line"/>
      <point x="164" y="217" type="line" smooth="yes"/>
      <point x="164" y="59"/>
      <point x="225" y="-10"/>
    </contour>
  </outline>
</glyph>
<glyph name="Zhar-oldgeorgian" format="2">
  <advance width="462"/>
  <unicode hex="10AF"/>
  <note>
uni10AF
</note>
  <outline>
    <contour>
      <point x="358" y="0" type="line"/>
      <point x="384" y="0" type="line"/>
      <point x="384" y="714" type="line"/>
      <point x="358" y="714" type="line"/>
      <point x="358" y="484" type="line" smooth="yes"/>
      <point x="358" y="300"/>
      <point x="300" y="243"/>
      <point x="222" y="243" type="curve" smooth="yes"/>
      <point x="139" y="243"/>
      <point x="102" y="327"/>
      <point x="102" y="450" type="curve" smooth="yes"/>
      <point x="102" y="546"/>
      <point x="121" y="616"/>
      <point x="186" y="685" type="curve"/>
      <point x="186" y="714" type="line"/>
      <point x="15" y="714" type="line"/>
      <point x="15" y="689" type="line"/>
      <point x="159" y="689" type="line"/>
      <point x="159" y="687" type="line"/>
      <point x="95" y="627"/>
      <point x="75" y="540"/>
      <point x="75" y="450" type="curve" smooth="yes"/>
      <point x="75" y="304"/>
      <point x="128" y="218"/>
      <point x="222" y="218" type="curve" smooth="yes"/>
      <point x="287" y="218"/>
      <point x="336" y="255"/>
      <point x="358" y="333" type="curve"/>
      <point x="360" y="333" type="line"/>
      <point x="359" y="311"/>
      <point x="358" y="263"/>
      <point x="358" y="218" type="curve" smooth="yes"/>
    </contour>
  </outline>
</glyph>
<glyph name="Rae-oldgeorgian" format="2">
  <advance width="604"/>
  <unicode hex="10B0"/>
  <note>
uni10B0
</note>
  <outline>
    <contour>
      <point x="198" y="-10" type="curve" smooth="yes"/>
      <point x="303" y="-10"/>
      <point x="342" y="86"/>
      <point x="342" y="220" type="curve" smooth="yes"/>
      <point x="342" y="333" type="line" smooth="yes"/>
      <point x="342" y="454"/>
      <point x="392" y="512"/>
      <point x="450" y="512" type="curve" smooth="yes"/>
      <point x="512" y="512"/>
      <point x="543" y="454"/>
      <point x="543" y="382" type="curve" smooth="yes"/>
      <point x="543" y="338"/>
      <point x="531" y="289"/>
      <point x="508" y="245" type="curve"/>
      <point x="531" y="236" type="line"/>
      <point x="555" y="281"/>
      <point x="570" y="333"/>
      <point x="570" y="381" type="curve" smooth="yes"/>
      <point x="570" y="465"/>
      <point x="530" y="537"/>
      <point x="450" y="537" type="curve" smooth="yes"/>
      <point x="407" y="537"/>
      <point x="363" y="507"/>
      <point x="342" y="442" type="curve"/>
      <point x="340" y="442" type="line"/>
      <point x="342" y="469"/>
      <point x="342" y="501"/>
      <point x="342" y="519" type="curve" smooth="yes"/>
      <point x="342" y="714" type="line"/>
      <point x="316" y="714" type="line"/>
      <point x="316" y="220" type="line" smooth="yes"/>
      <point x="316" y="88"/>
      <point x="277" y="15"/>
      <point x="197" y="15" type="curve" smooth="yes"/>
      <point x="121" y="15"/>
      <point x="76" y="87"/>
      <point x="76" y="208" type="curve" smooth="yes"/>
      <point x="76" y="270"/>
      <point x="91" y="325"/>
      <point x="113" y="361" type="curve"/>
      <point x="93" y="370" type="line"/>
      <point x="70" y="335"/>
      <point x="49" y="281"/>
      <point x="49" y="207" type="curve" smooth="yes"/>
      <point x="49" y="87"/>
      <point x="94" y="-10"/>
    </contour>
  </outline>
</glyph>
<glyph name="San-oldgeorgian" format="2">
  <advance width="408"/>
  <unicode hex="10B1"/>
  <note>
uni10B1
</note>
  <outline>
    <contour>
      <point x="210" y="-10" type="curve" smooth="yes"/>
      <point x="314" y="-10"/>
      <point x="359" y="87"/>
      <point x="359" y="207" type="curve" smooth="yes"/>
      <point x="359" y="281"/>
      <point x="338" y="335"/>
      <point x="315" y="370" type="curve"/>
      <point x="295" y="361" type="line"/>
      <point x="317" y="325"/>
      <point x="332" y="270"/>
      <point x="332" y="208" type="curve" smooth="yes"/>
      <point x="332" y="87"/>
      <point x="287" y="15"/>
      <point x="211" y="15" type="curve" smooth="yes"/>
      <point x="131" y="15"/>
      <point x="92" y="88"/>
      <point x="92" y="220" type="curve" smooth="yes"/>
      <point x="92" y="714" type="line"/>
      <point x="66" y="714" type="line"/>
      <point x="66" y="220" type="line" smooth="yes"/>
      <point x="66" y="86"/>
      <point x="105" y="-10"/>
    </contour>
  </outline>
</glyph>
<glyph name="Tar-oldgeorgian" format="2">
  <advance width="409"/>
  <unicode hex="10B2"/>
  <note>
uni10B2
</note>
  <outline>
    <contour>
      <point x="71" y="0" type="line"/>
      <point x="344" y="0" type="line"/>
      <point x="344" y="25" type="line"/>
      <point x="97" y="25" type="line"/>
      <point x="97" y="306" type="line"/>
      <point x="165" y="306" type="line" smooth="yes"/>
      <point x="296" y="306"/>
      <point x="355" y="366"/>
      <point x="355" y="519" type="curve" smooth="yes"/>
      <point x="355" y="663"/>
      <point x="293" y="714"/>
      <point x="165" y="714" type="curve" smooth="yes"/>
      <point x="71" y="714" type="line"/>
    </contour>
    <contour>
      <point x="97" y="331" type="line"/>
      <point x="97" y="689" type="line"/>
      <point x="164" y="689" type="line" smooth="yes"/>
      <point x="275" y="689"/>
      <point x="328" y="645"/>
      <point x="328" y="520" type="curve" smooth="yes"/>
      <point x="328" y="385"/>
      <point x="278" y="331"/>
      <point x="171" y="331" type="curve" smooth="yes"/>
    </contour>
  </outline>
</glyph>
<glyph name="Un-oldgeorgian" format="2">
  <advance width="509"/>
  <unicode hex="10B3"/>
  <note>
uni10B3
</note>
  <outline>
    <contour>
      <point x="382" y="-138" type="curve" smooth="yes"/>
      <point x="449" y="-138"/>
      <point x="489" y="-103"/>
      <point x="489" y="-33" type="curve" smooth="yes"/>
      <point x="489" y="37"/>
      <point x="449" y="75"/>
      <point x="416" y="100" type="curve"/>
      <point x="447" y="168"/>
      <point x="457" y="261"/>
      <point x="457" y="358" type="curve" smooth="yes"/>
      <point x="457" y="570"/>
      <point x="404" y="724"/>
      <point x="257" y="724" type="curve" smooth="yes"/>
      <point x="126" y="724"/>
      <point x="54" y="602"/>
      <point x="54" y="358" type="curve" smooth="yes"/>
      <point x="54" y="173"/>
      <point x="97" y="-10"/>
      <point x="257" y="-10" type="curve" smooth="yes"/>
      <point x="327" y="-10"/>
      <point x="374" y="24"/>
      <point x="405" y="79" type="curve"/>
      <point x="436" y="54"/>
      <point x="463" y="25"/>
      <point x="463" y="-33" type="curve" smooth="yes"/>
      <point x="463" y="-84"/>
      <point x="436" y="-113"/>
      <point x="382" y="-113" type="curve" smooth="yes"/>
      <point x="373" y="-113"/>
      <point x="364" y="-112"/>
      <point x="357" y="-110" type="curve"/>
      <point x="357" y="-135" type="line"/>
      <point x="364" y="-137"/>
      <point x="375" y="-138"/>
    </contour>
    <contour>
      <point x="257" y="15" type="curve" smooth="yes"/>
      <point x="143" y="15"/>
      <point x="80" y="141"/>
      <point x="80" y="358" type="curve" smooth="yes"/>
      <point x="80" y="574"/>
      <point x="137" y="699"/>
      <point x="257" y="699" type="curve" smooth="yes"/>
      <point x="374" y="699"/>
      <point x="431" y="577"/>
      <point x="431" y="358" type="curve" smooth="yes"/>
      <point x="431" y="135"/>
      <point x="374" y="15"/>
    </contour>
  </outline>
</glyph>
<glyph name="Phar-oldgeorgian" format="2">
  <advance width="529"/>
  <unicode hex="10B4"/>
  <note>
uni10B4
</note>
  <outline>
    <contour>
      <point x="252" y="0" type="line"/>
      <point x="278" y="0" type="line"/>
      <point x="278" y="187" type="line"/>
      <point x="395" y="194"/>
      <point x="475" y="276"/>
      <point x="475" y="467" type="curve" smooth="yes"/>
      <point x="475" y="657"/>
      <point x="384" y="724"/>
      <point x="265" y="724" type="curve" smooth="yes"/>
      <point x="143" y="724"/>
      <point x="54" y="639"/>
      <point x="54" y="460" type="curve" smooth="yes"/>
      <point x="54" y="271"/>
      <point x="136" y="192"/>
      <point x="252" y="187" type="curve"/>
    </contour>
    <contour>
      <point x="252" y="212" type="line"/>
      <point x="149" y="218"/>
      <point x="81" y="285"/>
      <point x="81" y="460" type="curve" smooth="yes"/>
      <point x="81" y="628"/>
      <point x="156" y="693"/>
      <point x="252" y="699" type="curve"/>
    </contour>
    <contour>
      <point x="278" y="212" type="curve"/>
      <point x="278" y="699" type="line"/>
      <point x="374" y="693"/>
      <point x="448" y="635"/>
      <point x="448" y="467" type="curve" smooth="yes"/>
      <point x="448" y="289"/>
      <point x="381" y="219"/>
    </contour>
  </outline>
</glyph>
<glyph name="Khar-oldgeorgian" format="2">
  <advance width="424"/>
  <unicode hex="10B5"/>
  <note>
uni10B5
</note>
  <outline>
    <contour>
      <point x="194" y="0" type="line"/>
      <point x="220" y="0" type="line"/>
      <point x="220" y="425" type="line"/>
      <point x="370" y="425" type="line"/>
      <point x="370" y="450" type="line"/>
      <point x="220" y="450" type="line"/>
      <point x="220" y="714" type="line"/>
      <point x="194" y="714" type="line"/>
      <point x="194" y="450" type="line"/>
      <point x="44" y="450" type="line"/>
      <point x="44" y="425" type="line"/>
      <point x="194" y="425" type="line"/>
    </contour>
  </outline>
</glyph>
<glyph name="Ghan-oldgeorgian" format="2">
  <advance width="481"/>
  <unicode hex="10B6"/>
  <note>
uni10B6
</note>
  <outline>
    <contour>
      <point x="66" y="0" type="line"/>
      <point x="92" y="0" type="line"/>
      <point x="92" y="493" type="line" smooth="yes"/>
      <point x="92" y="651"/>
      <point x="152" y="699"/>
      <point x="237" y="699" type="curve" smooth="yes"/>
      <point x="328" y="699"/>
      <point x="382" y="643"/>
      <point x="382" y="493" type="curve" smooth="yes"/>
      <point x="382" y="0" type="line"/>
      <point x="408" y="0" type="line"/>
      <point x="408" y="497" type="line" smooth="yes"/>
      <point x="408" y="655"/>
      <point x="347" y="724"/>
      <point x="237" y="724" type="curve" smooth="yes"/>
      <point x="142" y="724"/>
      <point x="66" y="672"/>
      <point x="66" y="497" type="curve" smooth="yes"/>
    </contour>
  </outline>
</glyph>
<glyph name="Shin-oldgeorgian" format="2">
  <advance width="459"/>
  <unicode hex="10B8"/>
  <note>
uni10B8
</note>
  <outline>
    <contour>
      <point x="225" y="-10" type="curve" smooth="yes"/>
      <point x="336" y="-10"/>
      <point x="381" y="74"/>
      <point x="381" y="198" type="curve" smooth="yes"/>
      <point x="381" y="714" type="line"/>
      <point x="355" y="714" type="line"/>
      <point x="355" y="583" type="line" smooth="yes"/>
      <point x="355" y="422"/>
      <point x="305" y="351"/>
      <point x="219" y="351" type="curve" smooth="yes"/>
      <point x="131" y="351"/>
      <point x="92" y="413"/>
      <point x="92" y="542" type="curve" smooth="yes"/>
      <point x="92" y="714" type="line"/>
      <point x="66" y="714" type="line"/>
      <point x="66" y="535" type="line" smooth="yes"/>
      <point x="66" y="376"/>
      <point x="126" y="326"/>
      <point x="217" y="326" type="curve" smooth="yes"/>
      <point x="295" y="326"/>
      <point x="334" y="376"/>
      <point x="355" y="440" type="curve"/>
      <point x="357" y="440" type="line"/>
      <point x="355" y="413"/>
      <point x="355" y="371"/>
      <point x="355" y="333" type="curve" smooth="yes"/>
      <point x="355" y="198" type="line" smooth="yes"/>
      <point x="355" y="78"/>
      <point x="310" y="15"/>
      <point x="225" y="15" type="curve" smooth="yes"/>
      <point x="156" y="15"/>
      <point x="100" y="65"/>
      <point x="100" y="149" type="curve" smooth="yes"/>
      <point x="100" y="181"/>
      <point x="106" y="211"/>
      <point x="118" y="238" type="curve"/>
      <point x="96" y="246" type="line"/>
      <point x="82" y="219"/>
      <point x="73" y="185"/>
      <point x="73" y="146" type="curve" smooth="yes"/>
      <point x="73" y="49"/>
      <point x="139" y="-10"/>
    </contour>
  </outline>
</glyph>
<glyph name="Chin-oldgeorgian" format="2">
  <advance width="456"/>
  <unicode hex="10B9"/>
  <note>
uni10B9
</note>
  <outline>
    <contour>
      <point x="78" y="0" type="line"/>
      <point x="104" y="0" type="line"/>
      <point x="104" y="406" type="line"/>
      <point x="362" y="406" type="line"/>
      <point x="362" y="0" type="line"/>
      <point x="388" y="0" type="line"/>
      <point x="388" y="431" type="line"/>
      <point x="104" y="431" type="line"/>
      <point x="104" y="714" type="line"/>
      <point x="78" y="714" type="line"/>
    </contour>
  </outline>
</glyph>
<glyph name="Can-oldgeorgian" format="2">
  <advance width="473"/>
  <unicode hex="10BA"/>
  <note>
uni10BA
</note>
  <outline>
    <contour>
      <point x="253" y="-10" type="curve" smooth="yes"/>
      <point x="317" y="-10"/>
      <point x="357" y="17"/>
      <point x="391" y="50" type="curve"/>
      <point x="391" y="0" type="line"/>
      <point x="417" y="0" type="line"/>
      <point x="417" y="295" type="line"/>
      <point x="391" y="295" type="line"/>
      <point x="391" y="82" type="line"/>
      <point x="353" y="42"/>
      <point x="311" y="15"/>
      <point x="253" y="15" type="curve" smooth="yes"/>
      <point x="138" y="15"/>
      <point x="81" y="145"/>
      <point x="81" y="358" type="curve" smooth="yes"/>
      <point x="81" y="568"/>
      <point x="147" y="699"/>
      <point x="263" y="699" type="curve" smooth="yes"/>
      <point x="305" y="699"/>
      <point x="341" y="684"/>
      <point x="372" y="665" type="curve"/>
      <point x="385" y="689" type="line"/>
      <point x="349" y="711"/>
      <point x="312" y="724"/>
      <point x="263" y="724" type="curve" smooth="yes"/>
      <point x="122" y="724"/>
      <point x="54" y="571"/>
      <point x="54" y="358" type="curve" smooth="yes"/>
      <point x="54" y="133"/>
      <point x="118" y="-10"/>
    </contour>
  </outline>
</glyph>
<glyph name="Jil-oldgeorgian" format="2">
  <advance width="602"/>
  <unicode hex="10BB"/>
  <outline>
    <contour>
      <point x="199" y="-10" type="curve" smooth="yes"/>
      <point x="298" y="-10"/>
      <point x="342" y="83"/>
      <point x="342" y="225" type="curve" smooth="yes"/>
      <point x="342" y="425" type="line"/>
      <point x="508" y="425" type="line"/>
      <point x="508" y="0" type="line"/>
      <point x="534" y="0" type="line"/>
      <point x="534" y="450" type="line"/>
      <point x="342" y="450" type="line"/>
      <point x="342" y="714" type="line"/>
      <point x="316" y="714" type="line"/>
      <point x="316" y="450" type="line"/>
      <point x="225" y="450" type="line" smooth="yes"/>
      <point x="116" y="450"/>
      <point x="54" y="364"/>
      <point x="54" y="225" type="curve" smooth="yes"/>
      <point x="54" y="83"/>
      <point x="102" y="-10"/>
    </contour>
    <contour>
      <point x="199" y="15" type="curve" smooth="yes"/>
      <point x="122" y="15"/>
      <point x="81" y="93"/>
      <point x="81" y="225" type="curve" smooth="yes"/>
      <point x="81" y="353"/>
      <point x="134" y="425"/>
      <point x="225" y="425" type="curve" smooth="yes"/>
      <point x="316" y="425" type="line"/>
      <point x="316" y="226" type="line" smooth="yes"/>
      <point x="316" y="93"/>
      <point x="278" y="15"/>
    </contour>
  </outline>
</glyph>
<glyph name="Cil-oldgeorgian" format="2">
  <advance width="395"/>
  <unicode hex="10BC"/>
  <note>
uni10BC
</note>
  <outline>
    <contour>
      <point x="78" y="0" type="line"/>
      <point x="104" y="0" type="line"/>
      <point x="104" y="173" type="line"/>
      <point x="230" y="173" type="line"/>
      <point x="230" y="60" type="line"/>
      <point x="256" y="60" type="line"/>
      <point x="256" y="198" type="line"/>
      <point x="104" y="198" type="line"/>
      <point x="104" y="306" type="line"/>
      <point x="172" y="306" type="line" smooth="yes"/>
      <point x="303" y="306"/>
      <point x="362" y="366"/>
      <point x="362" y="519" type="curve" smooth="yes"/>
      <point x="362" y="663"/>
      <point x="300" y="714"/>
      <point x="172" y="714" type="curve" smooth="yes"/>
      <point x="78" y="714" type="line"/>
    </contour>
    <contour>
      <point x="104" y="331" type="line"/>
      <point x="104" y="689" type="line"/>
      <point x="171" y="689" type="line" smooth="yes"/>
      <point x="282" y="689"/>
      <point x="335" y="645"/>
      <point x="335" y="520" type="curve" smooth="yes"/>
      <point x="335" y="385"/>
      <point x="285" y="331"/>
      <point x="178" y="331" type="curve" smooth="yes"/>
    </contour>
  </outline>
</glyph>
<glyph name="Char-oldgeorgian" format="2">
  <advance width="396"/>
  <unicode hex="10BD"/>
  <note>
uni10BD
</note>
  <outline>
    <contour>
      <point x="200" y="-10" type="curve" smooth="yes"/>
      <point x="288" y="-10"/>
      <point x="342" y="55"/>
      <point x="342" y="165" type="curve" smooth="yes"/>
      <point x="342" y="287"/>
      <point x="277" y="335"/>
      <point x="215" y="378" type="curve" smooth="yes"/>
      <point x="153" y="421"/>
      <point x="100" y="455"/>
      <point x="100" y="555" type="curve" smooth="yes"/>
      <point x="100" y="643"/>
      <point x="134" y="699"/>
      <point x="206" y="699" type="curve" smooth="yes"/>
      <point x="274" y="699"/>
      <point x="308" y="645"/>
      <point x="308" y="575" type="curve" smooth="yes"/>
      <point x="308" y="565"/>
      <point x="307" y="555"/>
      <point x="305" y="547" type="curve"/>
      <point x="332" y="547" type="line"/>
      <point x="334" y="555"/>
      <point x="335" y="567"/>
      <point x="335" y="576" type="curve" smooth="yes"/>
      <point x="335" y="658"/>
      <point x="290" y="724"/>
      <point x="207" y="724" type="curve" smooth="yes"/>
      <point x="122" y="724"/>
      <point x="73" y="659"/>
      <point x="73" y="555" type="curve" smooth="yes"/>
      <point x="73" y="441"/>
      <point x="137" y="399"/>
      <point x="199" y="356" type="curve" smooth="yes"/>
      <point x="258" y="315"/>
      <point x="315" y="271"/>
      <point x="315" y="164" type="curve" smooth="yes"/>
      <point x="315" y="72"/>
      <point x="271" y="15"/>
      <point x="201" y="15" type="curve" smooth="yes"/>
      <point x="120" y="15"/>
      <point x="77" y="74"/>
      <point x="77" y="165" type="curve" smooth="yes"/>
      <point x="77" y="188"/>
      <point x="79" y="212"/>
      <point x="85" y="234" type="curve"/>
      <point x="57" y="234" type="line"/>
      <point x="53" y="216"/>
      <point x="50" y="188"/>
      <point x="50" y="165" type="curve" smooth="yes"/>
      <point x="50" y="53"/>
      <point x="110" y="-10"/>
    </contour>
  </outline>
</glyph>
<glyph name="Xan-oldgeorgian" format="2">
  <advance width="459"/>
  <unicode hex="10BE"/>
  <note>
uni10BE
</note>
  <outline>
    <contour>
      <point x="71" y="714" type="line"/>
      <point x="71" y="0" type="line"/>
      <point x="365" y="0" type="line"/>
      <point x="365" y="25" type="line"/>
      <point x="97" y="25" type="line"/>
      <point x="97" y="303" type="line"/>
      <point x="381" y="303" type="line"/>
      <point x="381" y="714" type="line"/>
      <point x="355" y="714" type="line"/>
      <point x="355" y="328" type="line"/>
      <point x="97" y="328" type="line"/>
      <point x="97" y="714" type="line"/>
    </contour>
  </outline>
</glyph>
<glyph name="Jhan-oldgeorgian" format="2">
  <advance width="420"/>
  <unicode hex="10BF"/>
  <note>
uni10BF
</note>
  <outline>
    <contour>
      <point x="42" y="0" type="line"/>
      <point x="70" y="0" type="line"/>
      <point x="226" y="349" type="line"/>
      <point x="382" y="0" type="line"/>
      <point x="410" y="0" type="line"/>
      <point x="242" y="371" type="line"/>
      <point x="382" y="699" type="line"/>
      <point x="382" y="714" type="line"/>
      <point x="10" y="714" type="line"/>
      <point x="10" y="689" type="line"/>
      <point x="76" y="689" type="line"/>
      <point x="209" y="370" type="line"/>
    </contour>
    <contour>
      <point x="226" y="391" type="line"/>
      <point x="104" y="689" type="line"/>
      <point x="351" y="689" type="line"/>
    </contour>
  </outline>
</glyph>
<glyph name="Hae-oldgeorgian" format="2">
  <advance width="646"/>
  <unicode hex="10C0"/>
  <note>
uni10C0
</note>
  <outline>
    <contour>
      <point x="448" y="-10" type="curve" smooth="yes"/>
      <point x="552" y="-10"/>
      <point x="597" y="87"/>
      <point x="597" y="207" type="curve" smooth="yes"/>
      <point x="597" y="281"/>
      <point x="576" y="335"/>
      <point x="553" y="370" type="curve"/>
      <point x="533" y="361" type="line"/>
      <point x="555" y="325"/>
      <point x="570" y="270"/>
      <point x="570" y="208" type="curve" smooth="yes"/>
      <point x="570" y="87"/>
      <point x="525" y="15"/>
      <point x="449" y="15" type="curve" smooth="yes"/>
      <point x="369" y="15"/>
      <point x="330" y="88"/>
      <point x="330" y="220" type="curve" smooth="yes"/>
      <point x="330" y="714" type="line"/>
      <point x="68" y="714" type="line"/>
      <point x="68" y="407" type="line"/>
      <point x="94" y="407" type="line"/>
      <point x="94" y="689" type="line"/>
      <point x="304" y="689" type="line"/>
      <point x="304" y="220" type="line" smooth="yes"/>
      <point x="304" y="86"/>
      <point x="343" y="-10"/>
    </contour>
  </outline>
</glyph>
<glyph name="He-oldgeorgian" format="2">
  <advance width="430"/>
  <unicode hex="10C1"/>
  <note>
uni10C1
</note>
  <outline>
    <contour>
      <point x="78" y="0" type="line"/>
      <point x="104" y="0" type="line"/>
      <point x="104" y="311" type="line" smooth="yes"/>
      <point x="104" y="420"/>
      <point x="141" y="512"/>
      <point x="214" y="512" type="curve" smooth="yes"/>
      <point x="280" y="512"/>
      <point x="305" y="456"/>
      <point x="305" y="311" type="curve" smooth="yes"/>
      <point x="305" y="286" type="line"/>
      <point x="410" y="286" type="line"/>
      <point x="410" y="311" type="line"/>
      <point x="331" y="311" type="line"/>
      <point x="331" y="470"/>
      <point x="299" y="537"/>
      <point x="216" y="537" type="curve" smooth="yes"/>
      <point x="164" y="537"/>
      <point x="123" y="503"/>
      <point x="102" y="433" type="curve"/>
      <point x="101" y="433" type="line"/>
      <point x="103" y="465"/>
      <point x="104" y="490"/>
      <point x="104" y="524" type="curve" smooth="yes"/>
      <point x="104" y="714" type="line"/>
      <point x="78" y="714" type="line"/>
    </contour>
  </outline>
</glyph>
<glyph name="Hie-oldgeorgian" format="2">
  <advance width="417"/>
  <unicode hex="10C2"/>
  <note>
uni10C2
</note>
  <outline>
    <contour>
      <point x="154" y="-10" type="curve" smooth="yes"/>
      <point x="289" y="-10"/>
      <point x="363" y="121"/>
      <point x="363" y="308" type="curve" smooth="yes"/>
      <point x="363" y="478"/>
      <point x="303" y="625"/>
      <point x="148" y="625" type="curve" smooth="yes"/>
      <point x="113" y="625" type="line"/>
      <point x="113" y="714" type="line"/>
      <point x="87" y="714" type="line"/>
      <point x="87" y="600" type="line"/>
      <point x="148" y="600" type="line" smooth="yes"/>
      <point x="284" y="600"/>
      <point x="336" y="459"/>
      <point x="336" y="307" type="curve" smooth="yes"/>
      <point x="336" y="144"/>
      <point x="274" y="15"/>
      <point x="154" y="15" type="curve" smooth="yes"/>
      <point x="109" y="15"/>
      <point x="77" y="30"/>
      <point x="53" y="41" type="curve"/>
      <point x="53" y="14" type="line"/>
      <point x="82" y="0"/>
      <point x="116" y="-10"/>
    </contour>
  </outline>
</glyph>
<glyph name="We-oldgeorgian" format="2">
  <advance width="436"/>
  <unicode hex="10C3"/>
  <note>
uni10C3
</note>
  <outline>
    <contour>
      <point x="332" y="0" type="line"/>
      <point x="358" y="0" type="line"/>
      <point x="358" y="714" type="line"/>
      <point x="332" y="714" type="line"/>
      <point x="332" y="454" type="line" smooth="yes"/>
      <point x="332" y="270"/>
      <point x="274" y="213"/>
      <point x="196" y="213" type="curve" smooth="yes"/>
      <point x="113" y="213"/>
      <point x="76" y="297"/>
      <point x="76" y="410" type="curve" smooth="yes"/>
      <point x="76" y="482"/>
      <point x="91" y="537"/>
      <point x="113" y="573" type="curve"/>
      <point x="93" y="582" type="line"/>
      <point x="70" y="547"/>
      <point x="49" y="493"/>
      <point x="49" y="409" type="curve" smooth="yes"/>
      <point x="49" y="274"/>
      <point x="102" y="188"/>
      <point x="196" y="188" type="curve" smooth="yes"/>
      <point x="261" y="188"/>
      <point x="310" y="225"/>
      <point x="332" y="303" type="curve"/>
      <point x="334" y="303" type="line"/>
      <point x="333" y="281"/>
      <point x="332" y="233"/>
      <point x="332" y="188" type="curve" smooth="yes"/>
    </contour>
  </outline>
</glyph>
<glyph name="Har-oldgeorgian" format="2">
  <advance width="484"/>
  <unicode hex="10C4"/>
  <note>
uni10C4
</note>
  <outline>
    <contour>
      <point x="229" y="0" type="line"/>
      <point x="255" y="0" type="line"/>
      <point x="255" y="266" type="line"/>
      <point x="354" y="273"/>
      <point x="415" y="353"/>
      <point x="415" y="528" type="curve" smooth="yes"/>
      <point x="415" y="714" type="line"/>
      <point x="389" y="714" type="line"/>
      <point x="389" y="528" type="line" smooth="yes"/>
      <point x="389" y="358"/>
      <point x="331" y="291"/>
      <point x="242" y="291" type="curve" smooth="yes"/>
      <point x="148" y="291"/>
      <point x="95" y="358"/>
      <point x="95" y="531" type="curve" smooth="yes"/>
      <point x="95" y="714" type="line"/>
      <point x="69" y="714" type="line"/>
      <point x="69" y="530" type="line" smooth="yes"/>
      <point x="69" y="352"/>
      <point x="127" y="273"/>
      <point x="229" y="266" type="curve"/>
    </contour>
  </outline>
</glyph>
<glyph name="Hoe-oldgeorgian" format="2">
  <advance width="560"/>
  <unicode hex="10C5"/>
  <note>
uni10C5
</note>
  <outline>
    <contour>
      <point x="150" y="-10" type="curve" smooth="yes"/>
      <point x="217" y="-10"/>
      <point x="256" y="39"/>
      <point x="256" y="169" type="curve" smooth="yes"/>
      <point x="256" y="257" type="line"/>
      <point x="427" y="257" type="line"/>
      <point x="427" y="130" type="line"/>
      <point x="453" y="130" type="line"/>
      <point x="453" y="282" type="line"/>
      <point x="256" y="282" type="line"/>
      <point x="256" y="414" type="line"/>
      <point x="372" y="414" type="line" smooth="yes"/>
      <point x="456" y="414"/>
      <point x="512" y="467"/>
      <point x="512" y="564" type="curve" smooth="yes"/>
      <point x="512" y="670"/>
      <point x="457" y="724"/>
      <point x="372" y="724" type="curve" smooth="yes"/>
      <point x="288" y="724"/>
      <point x="230" y="665"/>
      <point x="230" y="520" type="curve" smooth="yes"/>
      <point x="230" y="282" type="line"/>
      <point x="176" y="282" type="line" smooth="yes"/>
      <point x="100" y="282"/>
      <point x="48" y="232"/>
      <point x="48" y="133" type="curve" smooth="yes"/>
      <point x="48" y="33"/>
      <point x="89" y="-10"/>
    </contour>
    <contour>
      <point x="150" y="15" type="curve" smooth="yes"/>
      <point x="106" y="15"/>
      <point x="75" y="50"/>
      <point x="75" y="135" type="curve" smooth="yes"/>
      <point x="75" y="216"/>
      <point x="115" y="257"/>
      <point x="176" y="257" type="curve" smooth="yes"/>
      <point x="230" y="257" type="line"/>
      <point x="230" y="169" type="line" smooth="yes"/>
      <point x="230" y="54"/>
      <point x="200" y="15"/>
    </contour>
    <contour>
      <point x="256" y="439" type="line"/>
      <point x="256" y="520" type="line" smooth="yes"/>
      <point x="256" y="646"/>
      <point x="299" y="699"/>
      <point x="372" y="699" type="curve" smooth="yes"/>
      <point x="447" y="699"/>
      <point x="485" y="646"/>
      <point x="485" y="564" type="curve" smooth="yes"/>
      <point x="485" y="486"/>
      <point x="447" y="439"/>
      <point x="372" y="439" type="curve" smooth="yes"/>
    </contour>
  </outline>
</glyph>
<glyph name="Yn-oldgeorgian" format="2">
  <advance width="396"/>
  <unicode hex="10C7"/>
  <anchor x="195" y="0" name="bottom"/>
  <anchor x="195" y="714" name="top"/>
  <outline>
    <contour>
      <point x="196" y="-10" type="curve" smooth="yes"/>
      <point x="286" y="-10"/>
      <point x="346" y="53"/>
      <point x="346" y="165" type="curve" smooth="yes"/>
      <point x="346" y="188"/>
      <point x="343" y="216"/>
      <point x="339" y="234" type="curve"/>
      <point x="311" y="234" type="line"/>
      <point x="317" y="212"/>
      <point x="319" y="188"/>
      <point x="319" y="165" type="curve" smooth="yes"/>
      <point x="319" y="74"/>
      <point x="276" y="15"/>
      <point x="195" y="15" type="curve" smooth="yes"/>
      <point x="125" y="15"/>
      <point x="81" y="72"/>
      <point x="81" y="164" type="curve" smooth="yes"/>
      <point x="81" y="271"/>
      <point x="138" y="315"/>
      <point x="197" y="356" type="curve" smooth="yes"/>
      <point x="259" y="399"/>
      <point x="323" y="441"/>
      <point x="323" y="555" type="curve" smooth="yes"/>
      <point x="323" y="659"/>
      <point x="274" y="724"/>
      <point x="189" y="724" type="curve" smooth="yes"/>
      <point x="106" y="724"/>
      <point x="61" y="658"/>
      <point x="61" y="576" type="curve" smooth="yes"/>
      <point x="61" y="567"/>
      <point x="62" y="555"/>
      <point x="64" y="547" type="curve"/>
      <point x="91" y="547" type="line"/>
      <point x="89" y="555"/>
      <point x="88" y="565"/>
      <point x="88" y="575" type="curve" smooth="yes"/>
      <point x="88" y="645"/>
      <point x="122" y="699"/>
      <point x="190" y="699" type="curve" smooth="yes"/>
      <point x="262" y="699"/>
      <point x="296" y="643"/>
      <point x="296" y="555" type="curve" smooth="yes"/>
      <point x="296" y="455"/>
      <point x="243" y="421"/>
      <point x="181" y="378" type="curve" smooth="yes"/>
      <point x="119" y="335"/>
      <point x="54" y="287"/>
      <point x="54" y="165" type="curve" smooth="yes"/>
      <point x="54" y="55"/>
      <point x="108" y="-10"/>
    </contour>
  </outline>
</glyph>
<glyph name="Aen-oldgeorgian" format="2">
  <advance width="323"/>
  <unicode hex="10CD"/>
  <outline>
    <contour>
      <point x="28" y="0" type="line"/>
      <point x="303" y="0" type="line"/>
      <point x="303" y="25" type="line"/>
      <point x="57" y="25" type="line"/>
      <point x="296" y="689" type="line"/>
      <point x="296" y="714" type="line"/>
      <point x="40" y="714" type="line"/>
      <point x="40" y="689" type="line"/>
      <point x="269" y="689" type="line"/>
      <point x="28" y="24" type="line"/>
    </contour>
  </outline>
</glyph>
<glyph name="an-georgian" format="2">
  <advance width="367"/>
  <unicode hex="10D0"/>
  <note>
uni10D0
</note>
  <anchor x="184" y="527" name="top"/>
  <outline>
    <contour>
      <point x="181" y="-10" type="curve" smooth="yes"/>
      <point x="249" y="-10"/>
      <point x="322" y="33"/>
      <point x="322" y="161" type="curve" smooth="yes"/>
      <point x="322" y="264"/>
      <point x="282" y="316"/>
      <point x="245" y="371" type="curve" smooth="yes"/>
      <point x="217" y="412"/>
      <point x="194" y="457"/>
      <point x="194" y="527" type="curve"/>
      <point x="168" y="527" type="line"/>
      <point x="168" y="443"/>
      <point x="200" y="393"/>
      <point x="232" y="344" type="curve" smooth="yes"/>
      <point x="264" y="295"/>
      <point x="296" y="246"/>
      <point x="296" y="166" type="curve" smooth="yes"/>
      <point x="296" y="60"/>
      <point x="248" y="15"/>
      <point x="181" y="15" type="curve" smooth="yes"/>
      <point x="122" y="15"/>
      <point x="67" y="42"/>
      <point x="67" y="160" type="curve" smooth="yes"/>
      <point x="67" y="192"/>
      <point x="71" y="220"/>
      <point x="77" y="247" type="curve"/>
      <point x="52" y="247" type="line"/>
      <point x="44" y="218"/>
      <point x="40" y="189"/>
      <point x="40" y="160" type="curve" smooth="yes"/>
      <point x="40" y="39"/>
      <point x="98" y="-10"/>
    </contour>
  </outline>
</glyph>
<glyph name="ban-georgian" format="2">
  <advance width="401"/>
  <unicode hex="10D1"/>
  <note>
uni10D1
</note>
  <outline>
    <contour>
      <point x="221" y="536" type="curve"/>
      <point x="233" y="560"/>
      <point x="239" y="583"/>
      <point x="239" y="608" type="curve" smooth="yes"/>
      <point x="239" y="647"/>
      <point x="223" y="669"/>
      <point x="205" y="690" type="curve" smooth="yes"/>
      <point x="189" y="709"/>
      <point x="175" y="728"/>
      <point x="175" y="760" type="curve"/>
      <point x="149" y="760" type="line"/>
      <point x="149" y="717"/>
      <point x="168" y="695"/>
      <point x="186" y="674" type="curve" smooth="yes"/>
      <point x="201" y="656"/>
      <point x="212" y="639"/>
      <point x="212" y="608" type="curve" smooth="yes"/>
      <point x="212" y="584"/>
      <point x="208" y="559"/>
      <point x="195" y="537" type="curve"/>
      <point x="93" y="533"/>
      <point x="45" y="441"/>
      <point x="45" y="266" type="curve" smooth="yes"/>
      <point x="45" y="80"/>
      <point x="99" y="-10"/>
      <point x="203" y="-10" type="curve" smooth="yes"/>
      <point x="305" y="-10"/>
      <point x="356" y="77"/>
      <point x="356" y="264" type="curve" smooth="yes"/>
      <point x="356" y="423"/>
      <point x="319" y="524"/>
    </contour>
    <contour>
      <point x="202" y="15" type="curve" smooth="yes"/>
      <point x="112" y="15"/>
      <point x="71" y="102"/>
      <point x="71" y="266" type="curve" smooth="yes"/>
      <point x="71" y="424"/>
      <point x="109" y="512"/>
      <point x="201" y="512" type="curve" smooth="yes"/>
      <point x="297" y="512"/>
      <point x="330" y="418"/>
      <point x="330" y="265" type="curve" smooth="yes"/>
      <point x="330" y="94"/>
      <point x="290" y="15"/>
    </contour>
  </outline>
</glyph>
<glyph name="gan-georgian" format="2">
  <advance width="391"/>
  <unicode hex="10D2"/>
  <note>
uni10D2
</note>
  <outline>
    <contour>
      <point x="198" y="-250" type="curve" smooth="yes"/>
      <point x="300" y="-250"/>
      <point x="351" y="-163"/>
      <point x="351" y="14" type="curve" smooth="yes"/>
      <point x="351" y="189"/>
      <point x="305" y="252"/>
      <point x="232" y="268" type="curve"/>
      <point x="232" y="270" type="line"/>
      <point x="284" y="290"/>
      <point x="306" y="338"/>
      <point x="306" y="400" type="curve" smooth="yes"/>
      <point x="306" y="477"/>
      <point x="270" y="537"/>
      <point x="196" y="537" type="curve" smooth="yes"/>
      <point x="126" y="537"/>
      <point x="83" y="488"/>
      <point x="83" y="409" type="curve" smooth="yes"/>
      <point x="83" y="388"/>
      <point x="85" y="372"/>
      <point x="87" y="358" type="curve"/>
      <point x="113" y="358" type="line"/>
      <point x="110" y="373"/>
      <point x="109" y="389"/>
      <point x="109" y="409" type="curve" smooth="yes"/>
      <point x="109" y="480"/>
      <point x="141" y="512"/>
      <point x="196" y="512" type="curve" smooth="yes"/>
      <point x="256" y="512"/>
      <point x="280" y="462"/>
      <point x="280" y="399" type="curve" smooth="yes"/>
      <point x="280" y="331"/>
      <point x="250" y="284"/>
      <point x="187" y="277" type="curve" smooth="yes"/>
      <point x="92" y="266"/>
      <point x="40" y="189"/>
      <point x="40" y="16" type="curve" smooth="yes"/>
      <point x="40" y="-160"/>
      <point x="94" y="-250"/>
    </contour>
    <contour>
      <point x="197" y="-225" type="curve" smooth="yes"/>
      <point x="107" y="-225"/>
      <point x="66" y="-138"/>
      <point x="66" y="16" type="curve" smooth="yes"/>
      <point x="66" y="164"/>
      <point x="108" y="252"/>
      <point x="196" y="252" type="curve" smooth="yes"/>
      <point x="292" y="252"/>
      <point x="325" y="158"/>
      <point x="325" y="15" type="curve" smooth="yes"/>
      <point x="325" y="-146"/>
      <point x="284" y="-225"/>
    </contour>
  </outline>
</glyph>
<glyph name="don-georgian" format="2">
  <advance width="592"/>
  <unicode hex="10D3"/>
  <note>
uni10D3
</note>
  <outline>
    <contour>
      <point x="390" y="-250" type="curve"/>
      <point x="414" y="-240" type="line"/>
      <point x="386" y="-157"/>
      <point x="329" y="-114"/>
      <point x="264" y="-74" type="curve" smooth="yes"/>
      <point x="168" y="-15"/>
      <point x="72" y="60"/>
      <point x="72" y="284" type="curve" smooth="yes"/>
      <point x="72" y="429"/>
      <point x="96" y="512"/>
      <point x="174" y="512" type="curve" smooth="yes"/>
      <point x="251" y="512"/>
      <point x="266" y="443"/>
      <point x="266" y="324" type="curve" smooth="yes"/>
      <point x="266" y="264" type="line" smooth="yes"/>
      <point x="266" y="77"/>
      <point x="312" y="-10"/>
      <point x="405" y="-10" type="curve" smooth="yes"/>
      <point x="498" y="-10"/>
      <point x="547" y="77"/>
      <point x="547" y="266" type="curve" smooth="yes"/>
      <point x="547" y="444"/>
      <point x="502" y="537"/>
      <point x="406" y="537" type="curve" smooth="yes"/>
      <point x="348" y="537"/>
      <point x="299" y="498"/>
      <point x="284" y="396" type="curve"/>
      <point x="282" y="396" type="line"/>
      <point x="281" y="490"/>
      <point x="242" y="537"/>
      <point x="173" y="537" type="curve" smooth="yes"/>
      <point x="76" y="537"/>
      <point x="45" y="441"/>
      <point x="45" y="284" type="curve" smooth="yes"/>
      <point x="45" y="112"/>
      <point x="102" y="-12"/>
      <point x="234" y="-79" type="curve"/>
      <point x="234" y="-80" type="line"/>
      <point x="188" y="-78"/>
      <point x="148" y="-83"/>
      <point x="114" y="-98" type="curve"/>
      <point x="123" y="-117" type="line"/>
      <point x="152" y="-103"/>
      <point x="187" y="-98"/>
      <point x="222" y="-98" type="curve" smooth="yes"/>
      <point x="296" y="-98"/>
      <point x="368" y="-178"/>
    </contour>
    <contour>
      <point x="406" y="15" type="curve" smooth="yes"/>
      <point x="327" y="15"/>
      <point x="292" y="94"/>
      <point x="292" y="265" type="curve" smooth="yes"/>
      <point x="292" y="424"/>
      <point x="327" y="512"/>
      <point x="406" y="512" type="curve" smooth="yes"/>
      <point x="488" y="512"/>
      <point x="521" y="424"/>
      <point x="521" y="266" type="curve" smooth="yes"/>
      <point x="521" y="94"/>
      <point x="485" y="15"/>
    </contour>
  </outline>
</glyph>
<glyph name="en-georgian" format="2">
  <advance width="403"/>
  <unicode hex="10D4"/>
  <note>
uni10D4
</note>
  <anchor x="202" y="527" name="top"/>
  <outline>
    <contour>
      <point x="189" y="-250" type="curve" smooth="yes"/>
      <point x="275" y="-250"/>
      <point x="338" y="-189"/>
      <point x="338" y="-34" type="curve" smooth="yes"/>
      <point x="338" y="366" type="line" smooth="yes"/>
      <point x="338" y="494"/>
      <point x="265" y="537"/>
      <point x="202" y="537" type="curve" smooth="yes"/>
      <point x="119" y="537"/>
      <point x="61" y="488"/>
      <point x="61" y="367" type="curve" smooth="yes"/>
      <point x="61" y="338"/>
      <point x="65" y="309"/>
      <point x="73" y="280" type="curve"/>
      <point x="98" y="280" type="line"/>
      <point x="92" y="307"/>
      <point x="88" y="335"/>
      <point x="88" y="367" type="curve" smooth="yes"/>
      <point x="88" y="485"/>
      <point x="143" y="512"/>
      <point x="202" y="512" type="curve" smooth="yes"/>
      <point x="264" y="512"/>
      <point x="312" y="467"/>
      <point x="312" y="361" type="curve" smooth="yes"/>
      <point x="312" y="-33" type="line" smooth="yes"/>
      <point x="312" y="-164"/>
      <point x="266" y="-225"/>
      <point x="189" y="-225" type="curve" smooth="yes"/>
      <point x="110" y="-225"/>
      <point x="67" y="-164"/>
      <point x="67" y="-48" type="curve" smooth="yes"/>
      <point x="67" y="13"/>
      <point x="78" y="50"/>
      <point x="86" y="71" type="curve"/>
      <point x="61" y="71" type="line"/>
      <point x="54" y="54"/>
      <point x="40" y="12"/>
      <point x="40" y="-48" type="curve" smooth="yes"/>
      <point x="40" y="-159"/>
      <point x="81" y="-250"/>
    </contour>
  </outline>
</glyph>
<glyph name="vin-georgian" format="2">
  <advance width="387"/>
  <unicode hex="10D5"/>
  <note>
uni10D5
</note>
  <outline>
    <contour>
      <point x="189" y="-250" type="curve" smooth="yes"/>
      <point x="285" y="-250"/>
      <point x="347" y="-181"/>
      <point x="347" y="-26" type="curve" smooth="yes"/>
      <point x="347" y="105"/>
      <point x="304" y="168"/>
      <point x="230" y="183" type="curve"/>
      <point x="230" y="185" type="line"/>
      <point x="297" y="204"/>
      <point x="336" y="275"/>
      <point x="336" y="365" type="curve" smooth="yes"/>
      <point x="336" y="488"/>
      <point x="273" y="537"/>
      <point x="200" y="537" type="curve" smooth="yes"/>
      <point x="119" y="537"/>
      <point x="61" y="488"/>
      <point x="61" y="377" type="curve" smooth="yes"/>
      <point x="61" y="348"/>
      <point x="65" y="319"/>
      <point x="73" y="300" type="curve"/>
      <point x="98" y="300" type="line"/>
      <point x="92" y="317"/>
      <point x="88" y="345"/>
      <point x="88" y="377" type="curve" smooth="yes"/>
      <point x="88" y="485"/>
      <point x="143" y="512"/>
      <point x="200" y="512" type="curve" smooth="yes"/>
      <point x="261" y="512"/>
      <point x="310" y="468"/>
      <point x="310" y="365" type="curve" smooth="yes"/>
      <point x="310" y="260"/>
      <point x="259" y="196"/>
      <point x="187" y="196" type="curve" smooth="yes"/>
      <point x="158" y="196" type="line"/>
      <point x="158" y="171" type="line"/>
      <point x="185" y="171" type="line" smooth="yes"/>
      <point x="260" y="171"/>
      <point x="320" y="126"/>
      <point x="320" y="-25" type="curve" smooth="yes"/>
      <point x="320" y="-156"/>
      <point x="276" y="-225"/>
      <point x="189" y="-225" type="curve" smooth="yes"/>
      <point x="110" y="-225"/>
      <point x="68" y="-164"/>
      <point x="67" y="-58" type="curve" smooth="yes"/>
      <point x="67" y="-7"/>
      <point x="78" y="30"/>
      <point x="86" y="51" type="curve"/>
      <point x="61" y="51" type="line"/>
      <point x="54" y="34"/>
      <point x="40" y="-8"/>
      <point x="40" y="-58" type="curve" smooth="yes"/>
      <point x="40" y="-159"/>
      <point x="81" y="-250"/>
    </contour>
  </outline>
</glyph>
<glyph name="zen-georgian" format="2">
  <advance width="425"/>
  <unicode hex="10D6"/>
  <note>
uni10D6
</note>
  <outline>
    <contour>
      <point x="230" y="-10" type="curve" smooth="yes"/>
      <point x="331" y="-10"/>
      <point x="380" y="77"/>
      <point x="380" y="244" type="curve" smooth="yes"/>
      <point x="380" y="392"/>
      <point x="338" y="497"/>
      <point x="232" y="497" type="curve" smooth="yes"/>
      <point x="228" y="497"/>
      <point x="224" y="497"/>
      <point x="220" y="496" type="curve"/>
      <point x="220" y="498" type="line"/>
      <point x="245" y="525"/>
      <point x="256" y="562"/>
      <point x="256" y="615" type="curve" smooth="yes"/>
      <point x="256" y="706"/>
      <point x="219" y="770"/>
      <point x="145" y="770" type="curve" smooth="yes"/>
      <point x="78" y="770"/>
      <point x="35" y="713"/>
      <point x="35" y="616" type="curve" smooth="yes"/>
      <point x="35" y="513"/>
      <point x="77" y="462"/>
      <point x="137" y="459" type="curve"/>
      <point x="137" y="457" type="line"/>
      <point x="97" y="417"/>
      <point x="77" y="359"/>
      <point x="77" y="246" type="curve" smooth="yes"/>
      <point x="77" y="80"/>
      <point x="130" y="-10"/>
    </contour>
    <contour>
      <point x="229" y="15" type="curve" smooth="yes"/>
      <point x="143" y="15"/>
      <point x="104" y="102"/>
      <point x="104" y="246" type="curve" smooth="yes"/>
      <point x="104" y="384"/>
      <point x="140" y="472"/>
      <point x="228" y="472" type="curve" smooth="yes"/>
      <point x="323" y="472"/>
      <point x="353" y="378"/>
      <point x="353" y="245" type="curve" smooth="yes"/>
      <point x="353" y="94"/>
      <point x="316" y="15"/>
    </contour>
    <contour>
      <point x="146" y="480" type="curve" smooth="yes"/>
      <point x="91" y="480"/>
      <point x="61" y="525"/>
      <point x="61" y="616" type="curve" smooth="yes"/>
      <point x="61" y="701"/>
      <point x="89" y="746"/>
      <point x="145" y="746" type="curve" smooth="yes"/>
      <point x="205" y="746"/>
      <point x="230" y="697"/>
      <point x="230" y="615" type="curve" smooth="yes"/>
      <point x="230" y="520"/>
      <point x="201" y="480"/>
    </contour>
  </outline>
</glyph>
<glyph name="tan-georgian" format="2">
  <advance width="592"/>
  <unicode hex="10D7"/>
  <note>
uni10D7
</note>
  <outline>
    <contour>
      <point x="187" y="-10" type="curve" smooth="yes"/>
      <point x="280" y="-10"/>
      <point x="326" y="77"/>
      <point x="326" y="264" type="curve" smooth="yes"/>
      <point x="326" y="324" type="line" smooth="yes"/>
      <point x="326" y="443"/>
      <point x="341" y="512"/>
      <point x="418" y="512" type="curve" smooth="yes"/>
      <point x="496" y="512"/>
      <point x="520" y="429"/>
      <point x="520" y="291" type="curve" smooth="yes"/>
      <point x="520" y="178"/>
      <point x="505" y="95"/>
      <point x="469" y="0" type="curve"/>
      <point x="494" y="0" type="line"/>
      <point x="528" y="98"/>
      <point x="547" y="173"/>
      <point x="547" y="291" type="curve" smooth="yes"/>
      <point x="547" y="432"/>
      <point x="516" y="537"/>
      <point x="419" y="537" type="curve" smooth="yes"/>
      <point x="350" y="537"/>
      <point x="311" y="490"/>
      <point x="310" y="396" type="curve"/>
      <point x="308" y="396" type="line"/>
      <point x="293" y="498"/>
      <point x="244" y="537"/>
      <point x="186" y="537" type="curve" smooth="yes"/>
      <point x="90" y="537"/>
      <point x="45" y="444"/>
      <point x="45" y="266" type="curve" smooth="yes"/>
      <point x="45" y="77"/>
      <point x="94" y="-10"/>
    </contour>
    <contour>
      <point x="186" y="15" type="curve" smooth="yes"/>
      <point x="107" y="15"/>
      <point x="71" y="94"/>
      <point x="71" y="266" type="curve" smooth="yes"/>
      <point x="71" y="424"/>
      <point x="104" y="512"/>
      <point x="186" y="512" type="curve" smooth="yes"/>
      <point x="265" y="512"/>
      <point x="300" y="424"/>
      <point x="300" y="265" type="curve" smooth="yes"/>
      <point x="300" y="94"/>
      <point x="265" y="15"/>
    </contour>
  </outline>
</glyph>
<glyph name="in-georgian" format="2">
  <advance width="388"/>
  <unicode hex="10D8"/>
  <note>
uni10D8
</note>
  <anchor x="194" y="527" name="top"/>
  <outline>
    <contour>
      <point x="98" y="0" type="curve"/>
      <point x="123" y="0" type="line"/>
      <point x="89" y="96"/>
      <point x="71" y="175"/>
      <point x="71" y="291" type="curve" smooth="yes"/>
      <point x="71" y="425"/>
      <point x="105" y="512"/>
      <point x="194" y="512" type="curve" smooth="yes"/>
      <point x="282" y="512"/>
      <point x="316" y="429"/>
      <point x="316" y="291" type="curve" smooth="yes"/>
      <point x="316" y="178"/>
      <point x="301" y="95"/>
      <point x="265" y="0" type="curve"/>
      <point x="290" y="0" type="line"/>
      <point x="324" y="98"/>
      <point x="343" y="173"/>
      <point x="343" y="295" type="curve" smooth="yes"/>
      <point x="343" y="442"/>
      <point x="299" y="537"/>
      <point x="194" y="537" type="curve" smooth="yes"/>
      <point x="91" y="537"/>
      <point x="45" y="450"/>
      <point x="45" y="295" type="curve" smooth="yes"/>
      <point x="45" y="170"/>
      <point x="64" y="92"/>
    </contour>
  </outline>
</glyph>
<glyph name="kan-georgian" format="2">
  <advance width="372"/>
  <unicode hex="10D9"/>
  <note>
uni10D9
</note>
  <outline>
    <contour>
      <point x="185" y="-250" type="curve" smooth="yes"/>
      <point x="278" y="-250"/>
      <point x="332" y="-181"/>
      <point x="332" y="-16" type="curve" smooth="yes"/>
      <point x="332" y="122"/>
      <point x="289" y="188"/>
      <point x="215" y="203" type="curve"/>
      <point x="215" y="205" type="line"/>
      <point x="282" y="224"/>
      <point x="321" y="289"/>
      <point x="321" y="369" type="curve" smooth="yes"/>
      <point x="321" y="484"/>
      <point x="248" y="537"/>
      <point x="185" y="537" type="curve"/>
      <point x="185" y="512" type="line"/>
      <point x="236" y="512"/>
      <point x="295" y="468"/>
      <point x="295" y="369" type="curve" smooth="yes"/>
      <point x="295" y="282"/>
      <point x="244" y="216"/>
      <point x="172" y="216" type="curve" smooth="yes"/>
      <point x="143" y="216" type="line"/>
      <point x="143" y="191" type="line"/>
      <point x="170" y="191" type="line" smooth="yes"/>
      <point x="245" y="191"/>
      <point x="305" y="139"/>
      <point x="305" y="-15" type="curve" smooth="yes"/>
      <point x="305" y="-156"/>
      <point x="264" y="-225"/>
      <point x="185" y="-225" type="curve" smooth="yes"/>
      <point x="108" y="-225"/>
      <point x="63" y="-164"/>
      <point x="62" y="-58" type="curve"/>
      <point x="62" y="-7"/>
      <point x="73" y="30"/>
      <point x="81" y="51" type="curve"/>
      <point x="56" y="51" type="line"/>
      <point x="49" y="34"/>
      <point x="35" y="-8"/>
      <point x="35" y="-58" type="curve" smooth="yes"/>
      <point x="35" y="-159"/>
      <point x="79" y="-250"/>
    </contour>
  </outline>
</glyph>
<glyph name="las-georgian" format="2">
  <advance width="712"/>
  <unicode hex="10DA"/>
  <note>
uni10DA
</note>
  <outline>
    <contour>
      <point x="470" y="-250" type="curve"/>
      <point x="494" y="-240" type="line"/>
      <point x="457" y="-157"/>
      <point x="387" y="-104"/>
      <point x="294" y="-64" type="curve" smooth="yes"/>
      <point x="193" y="-21"/>
      <point x="72" y="68"/>
      <point x="72" y="290" type="curve" smooth="yes"/>
      <point x="72" y="425"/>
      <point x="96" y="512"/>
      <point x="165" y="512" type="curve" smooth="yes"/>
      <point x="231" y="512"/>
      <point x="246" y="453"/>
      <point x="246" y="334" type="curve" smooth="yes"/>
      <point x="246" y="190" type="line"/>
      <point x="272" y="190" type="line"/>
      <point x="272" y="334" type="line" smooth="yes"/>
      <point x="272" y="453"/>
      <point x="291" y="512"/>
      <point x="356" y="512" type="curve" smooth="yes"/>
      <point x="421" y="512"/>
      <point x="440" y="453"/>
      <point x="440" y="334" type="curve" smooth="yes"/>
      <point x="440" y="190" type="line"/>
      <point x="466" y="190" type="line"/>
      <point x="466" y="334" type="line" smooth="yes"/>
      <point x="466" y="453"/>
      <point x="481" y="512"/>
      <point x="548" y="512" type="curve" smooth="yes"/>
      <point x="616" y="512"/>
      <point x="640" y="425"/>
      <point x="640" y="291" type="curve" smooth="yes"/>
      <point x="640" y="205"/>
      <point x="631" y="137"/>
      <point x="606" y="67" type="curve"/>
      <point x="629" y="60" type="line"/>
      <point x="656" y="132"/>
      <point x="667" y="198"/>
      <point x="667" y="291" type="curve" smooth="yes"/>
      <point x="667" y="448"/>
      <point x="630" y="537"/>
      <point x="550" y="537" type="curve" smooth="yes"/>
      <point x="491" y="537"/>
      <point x="462" y="497"/>
      <point x="454" y="442" type="curve"/>
      <point x="452" y="442" type="line"/>
      <point x="444" y="497"/>
      <point x="416" y="537"/>
      <point x="356" y="537" type="curve" smooth="yes"/>
      <point x="296" y="537"/>
      <point x="268" y="497"/>
      <point x="260" y="442" type="curve"/>
      <point x="258" y="442" type="line"/>
      <point x="250" y="497"/>
      <point x="221" y="537"/>
      <point x="163" y="537" type="curve" smooth="yes"/>
      <point x="82" y="537"/>
      <point x="45" y="448"/>
      <point x="45" y="290" type="curve" smooth="yes"/>
      <point x="45" y="88"/>
      <point x="147" y="-25"/>
      <point x="264" y="-69" type="curve"/>
      <point x="264" y="-70" type="line"/>
      <point x="218" y="-68"/>
      <point x="171" y="-78"/>
      <point x="136" y="-98" type="curve"/>
      <point x="145" y="-117" type="line"/>
      <point x="175" y="-99"/>
      <point x="217" y="-89"/>
      <point x="259" y="-89" type="curve" smooth="yes"/>
      <point x="326" y="-89"/>
      <point x="434" y="-161"/>
    </contour>
  </outline>
</glyph>
<glyph name="nar-georgian" format="2">
  <advance width="418"/>
  <unicode hex="10DC"/>
  <note>
uni10DC
</note>
  <outline>
    <contour>
      <point x="219" y="-10" type="curve" smooth="yes"/>
      <point x="330" y="-10"/>
      <point x="373" y="111"/>
      <point x="373" y="256" type="curve" smooth="yes"/>
      <point x="373" y="440"/>
      <point x="317" y="537"/>
      <point x="220" y="537" type="curve" smooth="yes"/>
      <point x="145" y="537"/>
      <point x="102" y="479"/>
      <point x="91" y="429" type="curve"/>
      <point x="89" y="429" type="line"/>
      <point x="90" y="454"/>
      <point x="91" y="475"/>
      <point x="91" y="497" type="curve" smooth="yes"/>
      <point x="91" y="610" type="line" smooth="yes"/>
      <point x="91" y="691"/>
      <point x="128" y="735"/>
      <point x="211" y="735" type="curve" smooth="yes"/>
      <point x="344" y="735" type="line"/>
      <point x="344" y="760" type="line"/>
      <point x="211" y="760" type="line" smooth="yes"/>
      <point x="114" y="760"/>
      <point x="65" y="709"/>
      <point x="65" y="610" type="curve" smooth="yes"/>
      <point x="65" y="256" type="line" smooth="yes"/>
      <point x="65" y="71"/>
      <point x="128" y="-10"/>
    </contour>
    <contour>
      <point x="219" y="15" type="curve" smooth="yes"/>
      <point x="137" y="15"/>
      <point x="91" y="104"/>
      <point x="91" y="257" type="curve" smooth="yes"/>
      <point x="91" y="315" type="line" smooth="yes"/>
      <point x="91" y="432"/>
      <point x="139" y="512"/>
      <point x="219" y="512" type="curve" smooth="yes"/>
      <point x="302" y="512"/>
      <point x="346" y="424"/>
      <point x="346" y="256" type="curve" smooth="yes"/>
      <point x="346" y="106"/>
      <point x="301" y="15"/>
    </contour>
  </outline>
</glyph>
<glyph name="on-georgian" format="2">
  <advance width="528"/>
  <unicode hex="10DD"/>
  <note>
uni10DD
</note>
  <anchor x="264" y="527" name="top"/>
  <outline>
    <contour>
      <point x="99" y="0" type="curve"/>
      <point x="124" y="0" type="line"/>
      <point x="90" y="96"/>
      <point x="72" y="175"/>
      <point x="72" y="291" type="curve" smooth="yes"/>
      <point x="72" y="425"/>
      <point x="96" y="512"/>
      <point x="167" y="512" type="curve" smooth="yes"/>
      <point x="236" y="512"/>
      <point x="251" y="453"/>
      <point x="251" y="334" type="curve" smooth="yes"/>
      <point x="251" y="190" type="line"/>
      <point x="277" y="190" type="line"/>
      <point x="277" y="334" type="line" smooth="yes"/>
      <point x="277" y="453"/>
      <point x="292" y="512"/>
      <point x="361" y="512" type="curve" smooth="yes"/>
      <point x="431" y="512"/>
      <point x="455" y="429"/>
      <point x="455" y="291" type="curve" smooth="yes"/>
      <point x="455" y="178"/>
      <point x="440" y="95"/>
      <point x="404" y="0" type="curve"/>
      <point x="429" y="0" type="line"/>
      <point x="463" y="98"/>
      <point x="483" y="173"/>
      <point x="483" y="291" type="curve" smooth="yes"/>
      <point x="483" y="432"/>
      <point x="451" y="537"/>
      <point x="362" y="537" type="curve" smooth="yes"/>
      <point x="301" y="537"/>
      <point x="273" y="497"/>
      <point x="265" y="442" type="curve"/>
      <point x="263" y="442" type="line"/>
      <point x="255" y="497"/>
      <point x="226" y="537"/>
      <point x="165" y="537" type="curve" smooth="yes"/>
      <point x="82" y="537"/>
      <point x="45" y="448"/>
      <point x="45" y="291" type="curve" smooth="yes"/>
      <point x="45" y="170"/>
      <point x="65" y="92"/>
    </contour>
  </outline>
</glyph>
<glyph name="par-georgian" format="2">
  <advance width="382"/>
  <unicode hex="10DE"/>
  <note>
uni10DE
</note>
  <outline>
    <contour>
      <point x="190" y="-10" type="curve" smooth="yes"/>
      <point x="275" y="-10"/>
      <point x="337" y="53"/>
      <point x="337" y="212" type="curve" smooth="yes"/>
      <point x="337" y="345"/>
      <point x="277" y="412"/>
      <point x="210" y="422" type="curve"/>
      <point x="210" y="424" type="line"/>
      <point x="277" y="436"/>
      <point x="316" y="472"/>
      <point x="316" y="532" type="curve" smooth="yes"/>
      <point x="316" y="595"/>
      <point x="284" y="628"/>
      <point x="252" y="657" type="curve" smooth="yes"/>
      <point x="218" y="687"/>
      <point x="188" y="712"/>
      <point x="188" y="760" type="curve"/>
      <point x="162" y="760" type="line"/>
      <point x="162" y="704"/>
      <point x="196" y="676"/>
      <point x="232" y="644" type="curve" smooth="yes"/>
      <point x="263" y="617"/>
      <point x="290" y="586"/>
      <point x="290" y="532" type="curve" smooth="yes"/>
      <point x="290" y="461"/>
      <point x="223" y="436"/>
      <point x="165" y="436" type="curve" smooth="yes"/>
      <point x="138" y="436" type="line"/>
      <point x="138" y="411" type="line"/>
      <point x="165" y="411" type="line" smooth="yes"/>
      <point x="240" y="411"/>
      <point x="310" y="356"/>
      <point x="310" y="213" type="curve" smooth="yes"/>
      <point x="310" y="78"/>
      <point x="266" y="15"/>
      <point x="190" y="15" type="curve" smooth="yes"/>
      <point x="122" y="15"/>
      <point x="67" y="47"/>
      <point x="67" y="160" type="curve" smooth="yes"/>
      <point x="67" y="192"/>
      <point x="71" y="220"/>
      <point x="77" y="247" type="curve"/>
      <point x="52" y="247" type="line"/>
      <point x="44" y="218"/>
      <point x="40" y="189"/>
      <point x="40" y="160" type="curve" smooth="yes"/>
      <point x="40" y="44"/>
      <point x="98" y="-10"/>
    </contour>
  </outline>
</glyph>
<glyph name="zhar-georgian" format="2">
  <advance width="438"/>
  <unicode hex="10DF"/>
  <note>
uni10DF
</note>
  <outline>
    <contour>
      <point x="219" y="-250" type="curve" smooth="yes"/>
      <point x="305" y="-250"/>
      <point x="368" y="-189"/>
      <point x="368" y="-34" type="curve" smooth="yes"/>
      <point x="368" y="527" type="line"/>
      <point x="346" y="527" type="line"/>
      <point x="285" y="489"/>
      <point x="215" y="464"/>
      <point x="131" y="449" type="curve"/>
      <point x="131" y="426" type="line"/>
      <point x="172" y="418"/>
      <point x="207" y="374"/>
      <point x="207" y="306" type="curve" smooth="yes"/>
      <point x="207" y="236"/>
      <point x="186" y="191"/>
      <point x="134" y="191" type="curve" smooth="yes"/>
      <point x="85" y="191"/>
      <point x="61" y="230"/>
      <point x="61" y="284" type="curve" smooth="yes"/>
      <point x="61" y="296"/>
      <point x="62" y="310"/>
      <point x="64" y="320" type="curve"/>
      <point x="39" y="320" type="line"/>
      <point x="37" y="309"/>
      <point x="36" y="297"/>
      <point x="36" y="284" type="curve" smooth="yes"/>
      <point x="36" y="221"/>
      <point x="65" y="167"/>
      <point x="134" y="167" type="curve" smooth="yes"/>
      <point x="203" y="167"/>
      <point x="233" y="225"/>
      <point x="233" y="306" type="curve" smooth="yes"/>
      <point x="233" y="370"/>
      <point x="208" y="415"/>
      <point x="163" y="434" type="curve"/>
      <point x="163" y="436" type="line"/>
      <point x="230" y="448"/>
      <point x="289" y="470"/>
      <point x="342" y="500" type="curve"/>
      <point x="342" y="-33" type="line" smooth="yes"/>
      <point x="342" y="-164"/>
      <point x="296" y="-225"/>
      <point x="219" y="-225" type="curve" smooth="yes"/>
      <point x="140" y="-225"/>
      <point x="97" y="-178"/>
      <point x="97" y="-82" type="curve" smooth="yes"/>
      <point x="97" y="-31"/>
      <point x="108" y="6"/>
      <point x="116" y="27" type="curve"/>
      <point x="91" y="27" type="line"/>
      <point x="84" y="10"/>
      <point x="70" y="-32"/>
      <point x="70" y="-82" type="curve" smooth="yes"/>
      <point x="70" y="-173"/>
      <point x="111" y="-250"/>
    </contour>
  </outline>
</glyph>
<glyph name="rae-georgian" format="2">
  <advance width="528"/>
  <unicode hex="10E0"/>
  <note>
uni10E0
</note>
  <outline>
    <contour>
      <point x="99" y="0" type="curve"/>
      <point x="124" y="0" type="line"/>
      <point x="90" y="96"/>
      <point x="72" y="175"/>
      <point x="72" y="291" type="curve" smooth="yes"/>
      <point x="72" y="425"/>
      <point x="96" y="512"/>
      <point x="167" y="512" type="curve" smooth="yes"/>
      <point x="236" y="512"/>
      <point x="251" y="453"/>
      <point x="251" y="334" type="curve" smooth="yes"/>
      <point x="251" y="190" type="line"/>
      <point x="277" y="190" type="line"/>
      <point x="277" y="334" type="line" smooth="yes"/>
      <point x="277" y="453"/>
      <point x="292" y="512"/>
      <point x="361" y="512" type="curve" smooth="yes"/>
      <point x="431" y="512"/>
      <point x="455" y="429"/>
      <point x="455" y="291" type="curve" smooth="yes"/>
      <point x="455" y="178"/>
      <point x="440" y="95"/>
      <point x="404" y="0" type="curve"/>
      <point x="429" y="0" type="line"/>
      <point x="463" y="98"/>
      <point x="483" y="173"/>
      <point x="483" y="291" type="curve" smooth="yes"/>
      <point x="483" y="432"/>
      <point x="451" y="537"/>
      <point x="362" y="537" type="curve" smooth="yes"/>
      <point x="301" y="537"/>
      <point x="273" y="497"/>
      <point x="265" y="442" type="curve"/>
      <point x="263" y="442" type="line"/>
      <point x="255" y="497"/>
      <point x="226" y="537"/>
      <point x="167" y="537" type="curve" smooth="yes"/>
      <point x="130" y="537"/>
      <point x="92" y="520"/>
      <point x="70" y="449" type="curve"/>
      <point x="68" y="449" type="line"/>
      <point x="86" y="583"/>
      <point x="113" y="647"/>
      <point x="179" y="689" type="curve" smooth="yes"/>
      <point x="224" y="718"/>
      <point x="311" y="735"/>
      <point x="361" y="746" type="curve"/>
      <point x="356" y="770" type="line"/>
      <point x="284" y="755"/>
      <point x="203" y="735"/>
      <point x="159" y="705" type="curve" smooth="yes"/>
      <point x="59" y="637"/>
      <point x="45" y="499"/>
      <point x="45" y="342" type="curve" smooth="yes"/>
      <point x="45" y="291" type="line" smooth="yes"/>
      <point x="45" y="170"/>
      <point x="65" y="92"/>
    </contour>
  </outline>
</glyph>
<glyph name="san-georgian" format="2">
  <advance width="416"/>
  <unicode hex="10E1"/>
  <note>
uni10E1
</note>
  <outline>
    <contour>
      <point x="219" y="-10" type="curve" smooth="yes"/>
      <point x="316" y="-10"/>
      <point x="371" y="73"/>
      <point x="371" y="209" type="curve" smooth="yes"/>
      <point x="371" y="281"/>
      <point x="359" y="327"/>
      <point x="331" y="374" type="curve" smooth="yes"/>
      <point x="306" y="416"/>
      <point x="284" y="455"/>
      <point x="284" y="527" type="curve"/>
      <point x="258" y="527" type="line"/>
      <point x="258" y="447"/>
      <point x="283" y="407"/>
      <point x="309" y="362" type="curve" smooth="yes"/>
      <point x="334" y="319"/>
      <point x="344" y="276"/>
      <point x="344" y="211" type="curve" smooth="yes"/>
      <point x="344" y="94"/>
      <point x="300" y="15"/>
      <point x="219" y="15" type="curve" smooth="yes"/>
      <point x="137" y="15"/>
      <point x="91" y="92"/>
      <point x="91" y="235" type="curve" smooth="yes"/>
      <point x="91" y="760" type="line"/>
      <point x="65" y="760" type="line"/>
      <point x="65" y="234" type="line" smooth="yes"/>
      <point x="65" y="59"/>
      <point x="128" y="-10"/>
    </contour>
  </outline>
</glyph>
<glyph name="tar-georgian" format="2">
  <advance width="492"/>
  <unicode hex="10E2"/>
  <note>
uni10E2
</note>
  <outline>
    <contour>
      <point x="247" y="-250" type="curve" smooth="yes"/>
      <point x="406" y="-250"/>
      <point x="447" y="-75"/>
      <point x="447" y="156" type="curve" smooth="yes"/>
      <point x="447" y="368"/>
      <point x="396" y="519"/>
      <point x="258" y="528" type="curve"/>
      <point x="258" y="553"/>
      <point x="259" y="578"/>
      <point x="259" y="603" type="curve"/>
      <point x="259" y="651" type="line"/>
      <point x="233" y="651" type="line"/>
      <point x="233" y="603" type="line"/>
      <point x="233" y="578"/>
      <point x="234" y="553"/>
      <point x="234" y="528" type="curve"/>
      <point x="112" y="519"/>
      <point x="45" y="397"/>
      <point x="45" y="156" type="curve" smooth="yes"/>
      <point x="45" y="-67"/>
      <point x="87" y="-250"/>
    </contour>
    <contour>
      <point x="247" y="-225" type="curve" smooth="yes"/>
      <point x="133" y="-225"/>
      <point x="71" y="-99"/>
      <point x="71" y="156" type="curve" smooth="yes"/>
      <point x="71" y="369"/>
      <point x="124" y="494"/>
      <point x="234" y="503" type="curve"/>
      <point x="234" y="480"/>
      <point x="233" y="458"/>
      <point x="233" y="405" type="curve"/>
      <point x="233" y="190" type="line"/>
      <point x="259" y="190" type="line"/>
      <point x="259" y="405" type="line"/>
      <point x="259" y="458"/>
      <point x="258" y="481"/>
      <point x="258" y="504" type="curve"/>
      <point x="367" y="495"/>
      <point x="421" y="373"/>
      <point x="421" y="156" type="curve" smooth="yes"/>
      <point x="421" y="-105"/>
      <point x="364" y="-225"/>
    </contour>
  </outline>
</glyph>
<glyph name="un-georgian" format="2">
  <advance width="435"/>
  <unicode hex="10E3"/>
  <note>
uni10E3
</note>
  <anchor x="208" y="527" name="top"/>
  <outline>
    <contour>
      <point x="214" y="-250" type="curve" smooth="yes"/>
      <point x="307" y="-250"/>
      <point x="370" y="-189"/>
      <point x="370" y="-34" type="curve" smooth="yes"/>
      <point x="370" y="386" type="line" smooth="yes"/>
      <point x="370" y="482"/>
      <point x="342" y="537"/>
      <point x="263" y="537" type="curve" smooth="yes"/>
      <point x="203" y="537"/>
      <point x="172" y="487"/>
      <point x="166" y="440" type="curve"/>
      <point x="164" y="440" type="line"/>
      <point x="158" y="487"/>
      <point x="125" y="532"/>
      <point x="65" y="532" type="curve"/>
      <point x="30" y="532" type="line"/>
      <point x="30" y="507" type="line"/>
      <point x="65" y="507" type="line"/>
      <point x="122" y="507"/>
      <point x="152" y="459"/>
      <point x="152" y="383" type="curve" smooth="yes"/>
      <point x="152" y="246" type="line"/>
      <point x="178" y="246" type="line"/>
      <point x="178" y="383" type="line" smooth="yes"/>
      <point x="178" y="459"/>
      <point x="204" y="512"/>
      <point x="263" y="512" type="curve" smooth="yes"/>
      <point x="324" y="512"/>
      <point x="344" y="464"/>
      <point x="344" y="383" type="curve" smooth="yes"/>
      <point x="344" y="-33" type="line" smooth="yes"/>
      <point x="344" y="-164"/>
      <point x="298" y="-225"/>
      <point x="214" y="-225" type="curve" smooth="yes"/>
      <point x="122" y="-225"/>
      <point x="79" y="-164"/>
      <point x="79" y="-48" type="curve" smooth="yes"/>
      <point x="79" y="13"/>
      <point x="90" y="50"/>
      <point x="98" y="71" type="curve"/>
      <point x="73" y="71" type="line"/>
      <point x="66" y="54"/>
      <point x="52" y="12"/>
      <point x="52" y="-48" type="curve" smooth="yes"/>
      <point x="52" y="-159"/>
      <point x="93" y="-250"/>
    </contour>
  </outline>
</glyph>
<glyph name="phar-georgian" format="2">
  <advance width="582"/>
  <unicode hex="10E4"/>
  <note>
uni10E4
</note>
  <outline>
    <contour>
      <point x="343" y="-250" type="curve" smooth="yes"/>
      <point x="458" y="-250"/>
      <point x="520" y="-171"/>
      <point x="520" y="-46" type="curve" smooth="yes"/>
      <point x="520" y="35"/>
      <point x="490" y="117"/>
      <point x="419" y="132" type="curve"/>
      <point x="419" y="134" type="line"/>
      <point x="497" y="153"/>
      <point x="537" y="224"/>
      <point x="537" y="332" type="curve" smooth="yes"/>
      <point x="537" y="432"/>
      <point x="506" y="537"/>
      <point x="409" y="537" type="curve" smooth="yes"/>
      <point x="340" y="537"/>
      <point x="306" y="487"/>
      <point x="302" y="407" type="curve"/>
      <point x="300" y="407" type="line"/>
      <point x="286" y="503"/>
      <point x="239" y="537"/>
      <point x="180" y="537" type="curve" smooth="yes"/>
      <point x="85" y="537"/>
      <point x="45" y="444"/>
      <point x="45" y="296" type="curve" smooth="yes"/>
      <point x="45" y="147"/>
      <point x="89" y="60"/>
      <point x="181" y="60" type="curve" smooth="yes"/>
      <point x="275" y="60"/>
      <point x="316" y="147"/>
      <point x="316" y="294" type="curve" smooth="yes"/>
      <point x="316" y="324" type="line" smooth="yes"/>
      <point x="316" y="443"/>
      <point x="334" y="512"/>
      <point x="408" y="512" type="curve" smooth="yes"/>
      <point x="486" y="512"/>
      <point x="510" y="429"/>
      <point x="510" y="332" type="curve" smooth="yes"/>
      <point x="510" y="224"/>
      <point x="459" y="146"/>
      <point x="387" y="146" type="curve" smooth="yes"/>
      <point x="366" y="146" type="line"/>
      <point x="366" y="121" type="line"/>
      <point x="385" y="121" type="line" smooth="yes"/>
      <point x="460" y="121"/>
      <point x="493" y="36"/>
      <point x="493" y="-45" type="curve" smooth="yes"/>
      <point x="493" y="-146"/>
      <point x="449" y="-225"/>
      <point x="343" y="-225" type="curve" smooth="yes"/>
      <point x="237" y="-225"/>
      <point x="192" y="-163"/>
      <point x="192" y="-91" type="curve" smooth="yes"/>
      <point x="192" y="-79"/>
      <point x="194" y="-67"/>
      <point x="196" y="-54" type="curve"/>
      <point x="171" y="-54" type="line"/>
      <point x="168" y="-68"/>
      <point x="166" y="-82"/>
      <point x="166" y="-96" type="curve" smooth="yes"/>
      <point x="166" y="-177"/>
      <point x="221" y="-250"/>
    </contour>
    <contour>
      <point x="180" y="85" type="curve" smooth="yes"/>
      <point x="102" y="85"/>
      <point x="71" y="164"/>
      <point x="71" y="296" type="curve" smooth="yes"/>
      <point x="71" y="424"/>
      <point x="99" y="512"/>
      <point x="180" y="512" type="curve" smooth="yes"/>
      <point x="260" y="512"/>
      <point x="290" y="424"/>
      <point x="290" y="295" type="curve" smooth="yes"/>
      <point x="290" y="164"/>
      <point x="260" y="85"/>
    </contour>
  </outline>
</glyph>
<glyph name="khar-georgian" format="2">
  <advance width="403"/>
  <unicode hex="10E5"/>
  <note>
uni10E5
</note>
  <outline>
    <contour>
      <point x="189" y="-250" type="curve" smooth="yes"/>
      <point x="275" y="-250"/>
      <point x="338" y="-189"/>
      <point x="338" y="-34" type="curve" smooth="yes"/>
      <point x="338" y="760" type="line"/>
      <point x="312" y="760" type="line"/>
      <point x="312" y="497" type="line" smooth="yes"/>
      <point x="312" y="475"/>
      <point x="313" y="454"/>
      <point x="314" y="429" type="curve"/>
      <point x="312" y="429" type="line"/>
      <point x="301" y="479"/>
      <point x="256" y="537"/>
      <point x="191" y="537" type="curve" smooth="yes"/>
      <point x="119" y="537"/>
      <point x="61" y="488"/>
      <point x="61" y="367" type="curve" smooth="yes"/>
      <point x="61" y="338"/>
      <point x="65" y="309"/>
      <point x="73" y="280" type="curve"/>
      <point x="98" y="280" type="line"/>
      <point x="92" y="307"/>
      <point x="88" y="335"/>
      <point x="88" y="367" type="curve" smooth="yes"/>
      <point x="88" y="485"/>
      <point x="143" y="512"/>
      <point x="192" y="512" type="curve" smooth="yes"/>
      <point x="262" y="512"/>
      <point x="312" y="432"/>
      <point x="312" y="315" type="curve" smooth="yes"/>
      <point x="312" y="-33" type="line" smooth="yes"/>
      <point x="312" y="-164"/>
      <point x="266" y="-225"/>
      <point x="189" y="-225" type="curve" smooth="yes"/>
      <point x="110" y="-225"/>
      <point x="67" y="-164"/>
      <point x="67" y="-48" type="curve" smooth="yes"/>
      <point x="67" y="13"/>
      <point x="78" y="50"/>
      <point x="86" y="71" type="curve"/>
      <point x="61" y="71" type="line"/>
      <point x="54" y="54"/>
      <point x="40" y="12"/>
      <point x="40" y="-48" type="curve" smooth="yes"/>
      <point x="40" y="-159"/>
      <point x="81" y="-250"/>
    </contour>
  </outline>
</glyph>
<glyph name="ghan-georgian" format="2">
  <advance width="528"/>
  <unicode hex="10E6"/>
  <note>
uni10E6
</note>
  <outline>
    <contour>
      <point x="359" y="-250" type="curve"/>
      <point x="383" y="-240" type="line"/>
      <point x="358" y="-167"/>
      <point x="318" y="-114"/>
      <point x="253" y="-74" type="curve" smooth="yes"/>
      <point x="157" y="-15"/>
      <point x="72" y="60"/>
      <point x="72" y="284" type="curve" smooth="yes"/>
      <point x="72" y="425"/>
      <point x="96" y="512"/>
      <point x="167" y="512" type="curve" smooth="yes"/>
      <point x="236" y="512"/>
      <point x="251" y="453"/>
      <point x="251" y="334" type="curve" smooth="yes"/>
      <point x="251" y="190" type="line"/>
      <point x="277" y="190" type="line"/>
      <point x="277" y="334" type="line" smooth="yes"/>
      <point x="277" y="453"/>
      <point x="292" y="512"/>
      <point x="361" y="512" type="curve" smooth="yes"/>
      <point x="431" y="512"/>
      <point x="455" y="429"/>
      <point x="455" y="291" type="curve" smooth="yes"/>
      <point x="455" y="205"/>
      <point x="446" y="137"/>
      <point x="421" y="67" type="curve"/>
      <point x="444" y="60" type="line"/>
      <point x="471" y="132"/>
      <point x="483" y="198"/>
      <point x="483" y="291" type="curve" smooth="yes"/>
      <point x="483" y="432"/>
      <point x="451" y="537"/>
      <point x="362" y="537" type="curve" smooth="yes"/>
      <point x="301" y="537"/>
      <point x="273" y="497"/>
      <point x="265" y="442" type="curve"/>
      <point x="263" y="442" type="line"/>
      <point x="255" y="497"/>
      <point x="226" y="537"/>
      <point x="165" y="537" type="curve" smooth="yes"/>
      <point x="82" y="537"/>
      <point x="45" y="448"/>
      <point x="45" y="284" type="curve" smooth="yes"/>
      <point x="45" y="112"/>
      <point x="91" y="-11"/>
      <point x="223" y="-78" type="curve"/>
      <point x="223" y="-79" type="line"/>
      <point x="177" y="-77"/>
      <point x="137" y="-83"/>
      <point x="103" y="-98" type="curve"/>
      <point x="112" y="-117" type="line"/>
      <point x="141" y="-103"/>
      <point x="176" y="-98"/>
      <point x="211" y="-98" type="curve" smooth="yes"/>
      <point x="285" y="-98"/>
      <point x="337" y="-178"/>
    </contour>
  </outline>
</glyph>
<glyph name="qar-georgian" format="2">
  <advance width="408"/>
  <unicode hex="10E7"/>
  <note>
uni10E7
</note>
  <outline>
    <contour>
      <point x="194" y="-250" type="curve" smooth="yes"/>
      <point x="280" y="-250"/>
      <point x="343" y="-189"/>
      <point x="343" y="-34" type="curve" smooth="yes"/>
      <point x="343" y="527" type="line"/>
      <point x="317" y="527" type="line"/>
      <point x="317" y="388" type="line" smooth="yes"/>
      <point x="317" y="213"/>
      <point x="259" y="156"/>
      <point x="191" y="156" type="curve" smooth="yes"/>
      <point x="108" y="156"/>
      <point x="76" y="240"/>
      <point x="76" y="339" type="curve" smooth="yes"/>
      <point x="76" y="413"/>
      <point x="86" y="467"/>
      <point x="106" y="527" type="curve"/>
      <point x="80" y="527" type="line"/>
      <point x="59" y="468"/>
      <point x="49" y="413"/>
      <point x="49" y="339" type="curve" smooth="yes"/>
      <point x="49" y="217"/>
      <point x="95" y="131"/>
      <point x="191" y="131" type="curve" smooth="yes"/>
      <point x="246" y="131"/>
      <point x="295" y="168"/>
      <point x="317" y="246" type="curve"/>
      <point x="319" y="246" type="line"/>
      <point x="317" y="195"/>
      <point x="317" y="159"/>
      <point x="317" y="128" type="curve" smooth="yes"/>
      <point x="317" y="-33" type="line" smooth="yes"/>
      <point x="317" y="-164"/>
      <point x="271" y="-225"/>
      <point x="194" y="-225" type="curve" smooth="yes"/>
      <point x="115" y="-225"/>
      <point x="72" y="-178"/>
      <point x="72" y="-82" type="curve" smooth="yes"/>
      <point x="72" y="-31"/>
      <point x="83" y="6"/>
      <point x="91" y="27" type="curve"/>
      <point x="66" y="27" type="line"/>
      <point x="59" y="10"/>
      <point x="45" y="-32"/>
      <point x="45" y="-82" type="curve" smooth="yes"/>
      <point x="45" y="-173"/>
      <point x="86" y="-250"/>
    </contour>
  </outline>
</glyph>
<glyph name="shin-georgian" format="2">
  <advance width="418"/>
  <unicode hex="10E8"/>
  <note>
uni10E8
</note>
  <outline>
    <contour>
      <point x="199" y="-10" type="curve" smooth="yes"/>
      <point x="290" y="-10"/>
      <point x="353" y="71"/>
      <point x="353" y="246" type="curve" smooth="yes"/>
      <point x="353" y="662" type="line" smooth="yes"/>
      <point x="353" y="743"/>
      <point x="303" y="770"/>
      <point x="258" y="770" type="curve" smooth="yes"/>
      <point x="216" y="770"/>
      <point x="184" y="754"/>
      <point x="172" y="710" type="curve"/>
      <point x="170" y="710" type="line"/>
      <point x="158" y="754"/>
      <point x="128" y="770"/>
      <point x="88" y="770" type="curve" smooth="yes"/>
      <point x="64" y="770"/>
      <point x="44" y="764"/>
      <point x="30" y="757" type="curve"/>
      <point x="40" y="735" type="line"/>
      <point x="55" y="743"/>
      <point x="73" y="746"/>
      <point x="89" y="746" type="curve" smooth="yes"/>
      <point x="141" y="746"/>
      <point x="158" y="706"/>
      <point x="158" y="652" type="curve" smooth="yes"/>
      <point x="158" y="602" type="line"/>
      <point x="184" y="602" type="line"/>
      <point x="184" y="652" type="line" smooth="yes"/>
      <point x="184" y="721"/>
      <point x="214" y="745"/>
      <point x="255" y="745" type="curve" smooth="yes"/>
      <point x="299" y="745"/>
      <point x="327" y="716"/>
      <point x="327" y="657" type="curve" smooth="yes"/>
      <point x="327" y="477" type="line" smooth="yes"/>
      <point x="327" y="455"/>
      <point x="328" y="434"/>
      <point x="329" y="409" type="curve"/>
      <point x="327" y="409" type="line"/>
      <point x="316" y="459"/>
      <point x="273" y="517"/>
      <point x="198" y="517" type="curve" smooth="yes"/>
      <point x="101" y="517"/>
      <point x="45" y="420"/>
      <point x="45" y="246" type="curve" smooth="yes"/>
      <point x="45" y="111"/>
      <point x="88" y="-10"/>
    </contour>
    <contour>
      <point x="199" y="15" type="curve" smooth="yes"/>
      <point x="117" y="15"/>
      <point x="72" y="106"/>
      <point x="72" y="246" type="curve" smooth="yes"/>
      <point x="72" y="404"/>
      <point x="116" y="492"/>
      <point x="199" y="492" type="curve" smooth="yes"/>
      <point x="279" y="492"/>
      <point x="327" y="412"/>
      <point x="327" y="295" type="curve" smooth="yes"/>
      <point x="327" y="247" type="line" smooth="yes"/>
      <point x="327" y="104"/>
      <point x="281" y="15"/>
    </contour>
  </outline>
</glyph>
<glyph name="chin-georgian" format="2">
  <advance width="404"/>
  <unicode hex="10E9"/>
  <note>
uni10E9
</note>
  <outline>
    <contour>
      <point x="65" y="0" type="line"/>
      <point x="91" y="0" type="line"/>
      <point x="91" y="246" type="line" smooth="yes"/>
      <point x="91" y="445"/>
      <point x="152" y="502"/>
      <point x="217" y="502" type="curve" smooth="yes"/>
      <point x="296" y="502"/>
      <point x="341" y="418"/>
      <point x="341" y="275" type="curve" smooth="yes"/>
      <point x="341" y="164"/>
      <point x="322" y="70"/>
      <point x="301" y="0" type="curve"/>
      <point x="328" y="0" type="line"/>
      <point x="349" y="69"/>
      <point x="368" y="164"/>
      <point x="368" y="275" type="curve" smooth="yes"/>
      <point x="368" y="441"/>
      <point x="313" y="524"/>
      <point x="218" y="524" type="curve"/>
      <point x="218" y="526" type="line"/>
      <point x="267" y="557"/>
      <point x="290" y="600"/>
      <point x="290" y="654" type="curve" smooth="yes"/>
      <point x="290" y="726"/>
      <point x="247" y="770"/>
      <point x="180" y="770" type="curve" smooth="yes"/>
      <point x="117" y="770"/>
      <point x="65" y="726"/>
      <point x="65" y="626" type="curve" smooth="yes"/>
    </contour>
    <contour>
      <point x="89" y="412" type="line"/>
      <point x="91" y="463"/>
      <point x="91" y="474"/>
      <point x="91" y="505" type="curve" smooth="yes"/>
      <point x="91" y="626" type="line" smooth="yes"/>
      <point x="91" y="709"/>
      <point x="134" y="745"/>
      <point x="180" y="745" type="curve" smooth="yes"/>
      <point x="233" y="745"/>
      <point x="263" y="708"/>
      <point x="263" y="654" type="curve" smooth="yes"/>
      <point x="263" y="573"/>
      <point x="215" y="553"/>
      <point x="155" y="508" type="curve" smooth="yes"/>
      <point x="128" y="488"/>
      <point x="104" y="461"/>
      <point x="91" y="412" type="curve"/>
    </contour>
  </outline>
</glyph>
<glyph name="can-georgian" format="2">
  <advance width="437"/>
  <unicode hex="10EA"/>
  <note>
uni10EA
</note>
  <outline>
    <contour>
      <point x="231" y="-250" type="curve" smooth="yes"/>
      <point x="344" y="-250"/>
      <point x="397" y="-171"/>
      <point x="397" y="-23" type="curve" smooth="yes"/>
      <point x="397" y="112"/>
      <point x="353" y="179"/>
      <point x="286" y="189" type="curve"/>
      <point x="286" y="191" type="line"/>
      <point x="353" y="203"/>
      <point x="386" y="239"/>
      <point x="386" y="299" type="curve" smooth="yes"/>
      <point x="386" y="356"/>
      <point x="365" y="390"/>
      <point x="341" y="419" type="curve" smooth="yes"/>
      <point x="316" y="450"/>
      <point x="293" y="478"/>
      <point x="293" y="527" type="curve"/>
      <point x="267" y="527" type="line"/>
      <point x="267" y="472"/>
      <point x="291" y="441"/>
      <point x="317" y="408" type="curve" smooth="yes"/>
      <point x="340" y="379"/>
      <point x="360" y="349"/>
      <point x="360" y="299" type="curve" smooth="yes"/>
      <point x="360" y="228"/>
      <point x="299" y="203"/>
      <point x="241" y="203" type="curve" smooth="yes"/>
      <point x="214" y="203" type="line"/>
      <point x="214" y="178" type="line"/>
      <point x="241" y="178" type="line" smooth="yes"/>
      <point x="316" y="178"/>
      <point x="370" y="123"/>
      <point x="370" y="-23" type="curve" smooth="yes"/>
      <point x="370" y="-149"/>
      <point x="329" y="-225"/>
      <point x="231" y="-225" type="curve" smooth="yes"/>
      <point x="114" y="-225"/>
      <point x="72" y="-92"/>
      <point x="72" y="136" type="curve" smooth="yes"/>
      <point x="72" y="293"/>
      <point x="95" y="425"/>
      <point x="132" y="527" type="curve"/>
      <point x="106" y="527" type="line"/>
      <point x="70" y="432"/>
      <point x="45" y="293"/>
      <point x="45" y="136" type="curve" smooth="yes"/>
      <point x="45" y="-116"/>
      <point x="99" y="-250"/>
    </contour>
  </outline>
</glyph>
<glyph name="jil-georgian" format="2">
  <advance width="418"/>
  <unicode hex="10EB"/>
  <note>
uni10EB
</note>
  <outline>
    <contour>
      <point x="199" y="-10" type="curve" smooth="yes"/>
      <point x="290" y="-10"/>
      <point x="353" y="71"/>
      <point x="353" y="256" type="curve" smooth="yes"/>
      <point x="353" y="760" type="line"/>
      <point x="327" y="760" type="line"/>
      <point x="327" y="497" type="line" smooth="yes"/>
      <point x="327" y="475"/>
      <point x="328" y="454"/>
      <point x="329" y="429" type="curve"/>
      <point x="327" y="429" type="line"/>
      <point x="316" y="479"/>
      <point x="273" y="537"/>
      <point x="198" y="537" type="curve" smooth="yes"/>
      <point x="101" y="537"/>
      <point x="45" y="440"/>
      <point x="45" y="256" type="curve" smooth="yes"/>
      <point x="45" y="111"/>
      <point x="88" y="-10"/>
    </contour>
    <contour>
      <point x="199" y="15" type="curve" smooth="yes"/>
      <point x="117" y="15"/>
      <point x="72" y="106"/>
      <point x="72" y="256" type="curve" smooth="yes"/>
      <point x="72" y="424"/>
      <point x="116" y="512"/>
      <point x="199" y="512" type="curve" smooth="yes"/>
      <point x="279" y="512"/>
      <point x="327" y="432"/>
      <point x="327" y="315" type="curve" smooth="yes"/>
      <point x="327" y="257" type="line" smooth="yes"/>
      <point x="327" y="104"/>
      <point x="281" y="15"/>
    </contour>
  </outline>
</glyph>
<glyph name="cil-georgian" format="2">
  <advance width="418"/>
  <unicode hex="10EC"/>
  <note>
uni10EC
</note>
  <outline>
    <contour>
      <point x="219" y="-10" type="curve" smooth="yes"/>
      <point x="330" y="-10"/>
      <point x="373" y="111"/>
      <point x="373" y="246" type="curve" smooth="yes"/>
      <point x="373" y="420"/>
      <point x="317" y="517"/>
      <point x="220" y="517" type="curve" smooth="yes"/>
      <point x="145" y="517"/>
      <point x="102" y="459"/>
      <point x="91" y="409" type="curve"/>
      <point x="89" y="409" type="line"/>
      <point x="90" y="434"/>
      <point x="91" y="455"/>
      <point x="91" y="477" type="curve" smooth="yes"/>
      <point x="91" y="657" type="line" smooth="yes"/>
      <point x="91" y="716"/>
      <point x="119" y="745"/>
      <point x="163" y="745" type="curve" smooth="yes"/>
      <point x="204" y="745"/>
      <point x="234" y="721"/>
      <point x="234" y="652" type="curve" smooth="yes"/>
      <point x="234" y="602" type="line"/>
      <point x="260" y="602" type="line"/>
      <point x="260" y="652" type="line" smooth="yes"/>
      <point x="260" y="706"/>
      <point x="277" y="746"/>
      <point x="329" y="746" type="curve" smooth="yes"/>
      <point x="345" y="746"/>
      <point x="363" y="743"/>
      <point x="378" y="735" type="curve"/>
      <point x="388" y="757" type="line"/>
      <point x="374" y="764"/>
      <point x="354" y="770"/>
      <point x="330" y="770" type="curve" smooth="yes"/>
      <point x="290" y="770"/>
      <point x="260" y="754"/>
      <point x="248" y="710" type="curve"/>
      <point x="246" y="710" type="line"/>
      <point x="234" y="754"/>
      <point x="202" y="770"/>
      <point x="160" y="770" type="curve" smooth="yes"/>
      <point x="115" y="770"/>
      <point x="65" y="743"/>
      <point x="65" y="662" type="curve" smooth="yes"/>
      <point x="65" y="246" type="line" smooth="yes"/>
      <point x="65" y="71"/>
      <point x="128" y="-10"/>
    </contour>
    <contour>
      <point x="219" y="15" type="curve" smooth="yes"/>
      <point x="137" y="15"/>
      <point x="91" y="104"/>
      <point x="91" y="247" type="curve" smooth="yes"/>
      <point x="91" y="295" type="line" smooth="yes"/>
      <point x="91" y="412"/>
      <point x="139" y="492"/>
      <point x="219" y="492" type="curve" smooth="yes"/>
      <point x="302" y="492"/>
      <point x="346" y="404"/>
      <point x="346" y="246" type="curve" smooth="yes"/>
      <point x="346" y="106"/>
      <point x="301" y="15"/>
    </contour>
  </outline>
</glyph>
<glyph name="char-georgian" format="2">
  <advance width="394"/>
  <unicode hex="10ED"/>
  <note>
uni10ED
</note>
  <outline>
    <contour>
      <point x="200" y="-250" type="curve" smooth="yes"/>
      <point x="286" y="-250"/>
      <point x="349" y="-189"/>
      <point x="349" y="-50" type="curve" smooth="yes"/>
      <point x="349" y="38"/>
      <point x="327" y="90"/>
      <point x="300" y="154" type="curve" smooth="yes"/>
      <point x="275" y="213"/>
      <point x="257" y="282"/>
      <point x="257" y="387" type="curve" smooth="yes"/>
      <point x="257" y="502" type="line"/>
      <point x="339" y="502" type="line"/>
      <point x="339" y="527" type="line"/>
      <point x="257" y="527" type="line"/>
      <point x="257" y="760" type="line"/>
      <point x="231" y="760" type="line"/>
      <point x="231" y="527" type="line"/>
      <point x="155" y="527" type="line" smooth="yes"/>
      <point x="104" y="527"/>
      <point x="40" y="496"/>
      <point x="40" y="409" type="curve" smooth="yes"/>
      <point x="40" y="336"/>
      <point x="82" y="290"/>
      <point x="144" y="290" type="curve" smooth="yes"/>
      <point x="185" y="290"/>
      <point x="221" y="315"/>
      <point x="234" y="358" type="curve"/>
      <point x="236" y="358" type="line"/>
      <point x="236" y="259"/>
      <point x="252" y="197"/>
      <point x="275" y="144" type="curve" smooth="yes"/>
      <point x="301" y="84"/>
      <point x="322" y="36"/>
      <point x="322" y="-50" type="curve" smooth="yes"/>
      <point x="322" y="-165"/>
      <point x="277" y="-225"/>
      <point x="200" y="-225" type="curve" smooth="yes"/>
      <point x="121" y="-225"/>
      <point x="78" y="-164"/>
      <point x="78" y="-48" type="curve" smooth="yes"/>
      <point x="78" y="13"/>
      <point x="89" y="50"/>
      <point x="97" y="71" type="curve"/>
      <point x="72" y="71" type="line"/>
      <point x="65" y="54"/>
      <point x="51" y="12"/>
      <point x="51" y="-48" type="curve" smooth="yes"/>
      <point x="51" y="-159"/>
      <point x="92" y="-250"/>
    </contour>
    <contour>
      <point x="145" y="315" type="curve" smooth="yes"/>
      <point x="108" y="315"/>
      <point x="67" y="339"/>
      <point x="67" y="409" type="curve" smooth="yes"/>
      <point x="67" y="469"/>
      <point x="103" y="502"/>
      <point x="155" y="502" type="curve" smooth="yes"/>
      <point x="231" y="502" type="line"/>
      <point x="231" y="421" type="line" smooth="yes"/>
      <point x="231" y="354"/>
      <point x="191" y="315"/>
    </contour>
  </outline>
</glyph>
<glyph name="xan-georgian" format="2">
  <advance width="418"/>
  <unicode hex="10EE"/>
  <note>
uni10EE
</note>
  <outline>
    <contour>
      <point x="219" y="-10" type="curve" smooth="yes"/>
      <point x="330" y="-10"/>
      <point x="373" y="111"/>
      <point x="373" y="256" type="curve" smooth="yes"/>
      <point x="373" y="440"/>
      <point x="317" y="537"/>
      <point x="220" y="537" type="curve" smooth="yes"/>
      <point x="145" y="537"/>
      <point x="102" y="479"/>
      <point x="91" y="429" type="curve"/>
      <point x="89" y="429" type="line"/>
      <point x="90" y="454"/>
      <point x="91" y="475"/>
      <point x="91" y="497" type="curve" smooth="yes"/>
      <point x="91" y="760" type="line"/>
      <point x="65" y="760" type="line"/>
      <point x="65" y="256" type="line" smooth="yes"/>
      <point x="65" y="71"/>
      <point x="128" y="-10"/>
    </contour>
    <contour>
      <point x="219" y="15" type="curve" smooth="yes"/>
      <point x="137" y="15"/>
      <point x="91" y="104"/>
      <point x="91" y="257" type="curve" smooth="yes"/>
      <point x="91" y="315" type="line" smooth="yes"/>
      <point x="91" y="432"/>
      <point x="139" y="512"/>
      <point x="219" y="512" type="curve" smooth="yes"/>
      <point x="302" y="512"/>
      <point x="346" y="424"/>
      <point x="346" y="256" type="curve" smooth="yes"/>
      <point x="346" y="106"/>
      <point x="301" y="15"/>
    </contour>
  </outline>
</glyph>
<glyph name="jhan-georgian" format="2">
  <advance width="378"/>
  <unicode hex="10EF"/>
  <note>
uni10EF
</note>
  <outline>
    <contour>
      <point x="203" y="287" type="curve" smooth="yes"/>
      <point x="203" y="372" type="line"/>
      <point x="328" y="336" type="line"/>
      <point x="328" y="361" type="line"/>
      <point x="203" y="397" type="line"/>
      <point x="203" y="537" type="line"/>
      <point x="178" y="537" type="line"/>
      <point x="178" y="404" type="line"/>
      <point x="50" y="441" type="line"/>
      <point x="50" y="416" type="line"/>
      <point x="178" y="379" type="line"/>
      <point x="178" y="283" type="line" smooth="yes"/>
      <point x="178" y="182"/>
      <point x="218" y="132"/>
      <point x="258" y="76" type="curve" smooth="yes"/>
      <point x="288" y="34"/>
      <point x="311" y="-12"/>
      <point x="311" y="-88" type="curve" smooth="yes"/>
      <point x="311" y="-174"/>
      <point x="266" y="-225"/>
      <point x="189" y="-225" type="curve" smooth="yes"/>
      <point x="110" y="-225"/>
      <point x="67" y="-178"/>
      <point x="67" y="-82" type="curve" smooth="yes"/>
      <point x="67" y="-31"/>
      <point x="78" y="6"/>
      <point x="86" y="27" type="curve"/>
      <point x="61" y="27" type="line"/>
      <point x="54" y="10"/>
      <point x="40" y="-32"/>
      <point x="40" y="-82" type="curve" smooth="yes"/>
      <point x="40" y="-173"/>
      <point x="81" y="-250"/>
      <point x="189" y="-250" type="curve" smooth="yes"/>
      <point x="275" y="-250"/>
      <point x="338" y="-199"/>
      <point x="338" y="-88" type="curve" smooth="yes"/>
      <point x="338" y="-1"/>
      <point x="309" y="50"/>
      <point x="277" y="95" type="curve" smooth="yes"/>
      <point x="239" y="148"/>
      <point x="203" y="196"/>
    </contour>
  </outline>
</glyph>
<glyph name="hae-georgian" format="2">
  <advance width="376"/>
  <unicode hex="10F0"/>
  <note>
uni10F0
</note>
  <outline>
    <contour>
      <point x="184" y="-10" type="curve" smooth="yes"/>
      <point x="269" y="-10"/>
      <point x="331" y="49"/>
      <point x="331" y="153" type="curve" smooth="yes"/>
      <point x="331" y="232"/>
      <point x="291" y="296"/>
      <point x="224" y="306" type="curve"/>
      <point x="224" y="308" type="line"/>
      <point x="282" y="318"/>
      <point x="321" y="351"/>
      <point x="321" y="409" type="curve" smooth="yes"/>
      <point x="321" y="461"/>
      <point x="291" y="503"/>
      <point x="224" y="513" type="curve"/>
      <point x="224" y="515" type="line"/>
      <point x="291" y="527"/>
      <point x="310" y="563"/>
      <point x="310" y="601" type="curve" smooth="yes"/>
      <point x="310" y="644"/>
      <point x="280" y="671"/>
      <point x="250" y="691" type="curve" smooth="yes"/>
      <point x="216" y="713"/>
      <point x="188" y="731"/>
      <point x="188" y="760" type="curve"/>
      <point x="162" y="760" type="line"/>
      <point x="162" y="720"/>
      <point x="195" y="699"/>
      <point x="231" y="676" type="curve" smooth="yes"/>
      <point x="258" y="659"/>
      <point x="284" y="636"/>
      <point x="284" y="601" type="curve" smooth="yes"/>
      <point x="284" y="552"/>
      <point x="237" y="527"/>
      <point x="179" y="527" type="curve" smooth="yes"/>
      <point x="152" y="527" type="line"/>
      <point x="152" y="502" type="line"/>
      <point x="179" y="502" type="line" smooth="yes"/>
      <point x="249" y="502"/>
      <point x="293" y="469"/>
      <point x="293" y="409" type="curve" smooth="yes"/>
      <point x="293" y="356"/>
      <point x="255" y="320"/>
      <point x="179" y="320" type="curve" smooth="yes"/>
      <point x="152" y="320" type="line"/>
      <point x="152" y="295" type="line"/>
      <point x="179" y="295" type="line" smooth="yes"/>
      <point x="254" y="295"/>
      <point x="304" y="242"/>
      <point x="304" y="154" type="curve" smooth="yes"/>
      <point x="304" y="70"/>
      <point x="260" y="15"/>
      <point x="184" y="15" type="curve" smooth="yes"/>
      <point x="96" y="15"/>
      <point x="64" y="79"/>
      <point x="64" y="146" type="curve" smooth="yes"/>
      <point x="64" y="167"/>
      <point x="67" y="188"/>
      <point x="71" y="207" type="curve"/>
      <point x="47" y="207" type="line"/>
      <point x="41" y="187"/>
      <point x="38" y="165"/>
      <point x="38" y="144" type="curve" smooth="yes"/>
      <point x="38" y="60"/>
      <point x="83" y="-10"/>
    </contour>
  </outline>
</glyph>
<glyph name="he-georgian" format="2">
  <advance width="442"/>
  <unicode hex="10F1"/>
  <note>
uni10F1
</note>
  <outline>
    <contour>
      <point x="241" y="-10" type="curve" smooth="yes"/>
      <point x="344" y="-10"/>
      <point x="397" y="59"/>
      <point x="397" y="153" type="curve" smooth="yes"/>
      <point x="397" y="232"/>
      <point x="357" y="296"/>
      <point x="290" y="306" type="curve"/>
      <point x="290" y="308" type="line"/>
      <point x="348" y="318"/>
      <point x="387" y="351"/>
      <point x="387" y="409" type="curve" smooth="yes"/>
      <point x="387" y="461"/>
      <point x="357" y="503"/>
      <point x="290" y="513" type="curve"/>
      <point x="290" y="515" type="line"/>
      <point x="357" y="527"/>
      <point x="376" y="563"/>
      <point x="376" y="601" type="curve" smooth="yes"/>
      <point x="376" y="646"/>
      <point x="355" y="674"/>
      <point x="331" y="694" type="curve" smooth="yes"/>
      <point x="308" y="713"/>
      <point x="290" y="732"/>
      <point x="290" y="760" type="curve"/>
      <point x="264" y="760" type="line"/>
      <point x="264" y="721"/>
      <point x="287" y="700"/>
      <point x="311" y="679" type="curve" smooth="yes"/>
      <point x="332" y="661"/>
      <point x="350" y="639"/>
      <point x="350" y="601" type="curve" smooth="yes"/>
      <point x="350" y="552"/>
      <point x="303" y="527"/>
      <point x="245" y="527" type="curve" smooth="yes"/>
      <point x="218" y="527" type="line"/>
      <point x="218" y="502" type="line"/>
      <point x="245" y="502" type="line" smooth="yes"/>
      <point x="315" y="502"/>
      <point x="359" y="469"/>
      <point x="359" y="409" type="curve" smooth="yes"/>
      <point x="359" y="356"/>
      <point x="321" y="320"/>
      <point x="245" y="320" type="curve" smooth="yes"/>
      <point x="218" y="320" type="line"/>
      <point x="218" y="295" type="line"/>
      <point x="245" y="295" type="line" smooth="yes"/>
      <point x="320" y="295"/>
      <point x="370" y="242"/>
      <point x="370" y="154" type="curve" smooth="yes"/>
      <point x="370" y="72"/>
      <point x="329" y="15"/>
      <point x="241" y="15" type="curve" smooth="yes"/>
      <point x="114" y="15"/>
      <point x="72" y="148"/>
      <point x="72" y="376" type="curve" smooth="yes"/>
      <point x="72" y="526"/>
      <point x="95" y="658"/>
      <point x="132" y="760" type="curve"/>
      <point x="106" y="760" type="line"/>
      <point x="70" y="665"/>
      <point x="45" y="526"/>
      <point x="45" y="376" type="curve" smooth="yes"/>
      <point x="45" y="124"/>
      <point x="99" y="-10"/>
    </contour>
  </outline>
</glyph>
<glyph name="hie-georgian" format="2">
  <advance width="398"/>
  <unicode hex="10F2"/>
  <note>
uni10F2
</note>
  <outline>
    <contour>
      <point x="45" y="0" type="line"/>
      <point x="96" y="0"/>
      <point x="151" y="20"/>
      <point x="199" y="57" type="curve"/>
      <point x="247" y="20"/>
      <point x="302" y="0"/>
      <point x="353" y="0" type="curve"/>
      <point x="353" y="25" type="line"/>
      <point x="310" y="25"/>
      <point x="261" y="41"/>
      <point x="219" y="70" type="curve"/>
      <point x="219" y="72" type="line"/>
      <point x="294" y="134"/>
      <point x="353" y="231"/>
      <point x="353" y="345" type="curve" smooth="yes"/>
      <point x="353" y="450"/>
      <point x="307" y="537"/>
      <point x="199" y="537" type="curve" smooth="yes"/>
      <point x="91" y="537"/>
      <point x="45" y="450"/>
      <point x="45" y="345" type="curve" smooth="yes"/>
      <point x="45" y="231"/>
      <point x="103" y="134"/>
      <point x="178" y="72" type="curve"/>
      <point x="178" y="70" type="line"/>
      <point x="136" y="41"/>
      <point x="88" y="25"/>
      <point x="45" y="25" type="curve"/>
    </contour>
    <contour>
      <point x="199" y="82" type="curve"/>
      <point x="127" y="144"/>
      <point x="71" y="239"/>
      <point x="71" y="345" type="curve" smooth="yes"/>
      <point x="71" y="429"/>
      <point x="105" y="512"/>
      <point x="199" y="512" type="curve" smooth="yes"/>
      <point x="293" y="512"/>
      <point x="327" y="429"/>
      <point x="327" y="345" type="curve" smooth="yes"/>
      <point x="327" y="239"/>
      <point x="271" y="144"/>
    </contour>
  </outline>
</glyph>
<glyph name="we-georgian" format="2">
  <advance width="387"/>
  <unicode hex="10F3"/>
  <note>
uni10F3
</note>
  <outline>
    <contour>
      <point x="189" y="-250" type="curve" smooth="yes"/>
      <point x="285" y="-250"/>
      <point x="347" y="-181"/>
      <point x="347" y="-26" type="curve" smooth="yes"/>
      <point x="347" y="127"/>
      <point x="289" y="208"/>
      <point x="195" y="209" type="curve"/>
      <point x="326" y="506" type="line"/>
      <point x="326" y="527" type="line"/>
      <point x="75" y="527" type="line"/>
      <point x="75" y="502" type="line"/>
      <point x="298" y="502" type="line"/>
      <point x="167" y="202" type="line"/>
      <point x="167" y="185" type="line"/>
      <point x="193" y="185" type="line" smooth="yes"/>
      <point x="274" y="185"/>
      <point x="320" y="117"/>
      <point x="320" y="-25" type="curve" smooth="yes"/>
      <point x="320" y="-156"/>
      <point x="276" y="-225"/>
      <point x="189" y="-225" type="curve" smooth="yes"/>
      <point x="110" y="-225"/>
      <point x="68" y="-164"/>
      <point x="67" y="-58" type="curve" smooth="yes"/>
      <point x="67" y="-7"/>
      <point x="78" y="30"/>
      <point x="86" y="51" type="curve"/>
      <point x="61" y="51" type="line"/>
      <point x="54" y="34"/>
      <point x="40" y="-8"/>
      <point x="40" y="-58" type="curve" smooth="yes"/>
      <point x="40" y="-159"/>
      <point x="81" y="-250"/>
    </contour>
  </outline>
</glyph>
<glyph name="har-georgian" format="2">
  <advance width="377"/>
  <unicode hex="10F4"/>
  <note>
uni10F4
</note>
  <outline>
    <contour>
      <point x="190" y="-250" type="curve" smooth="yes"/>
      <point x="275" y="-250"/>
      <point x="337" y="-187"/>
      <point x="337" y="-28" type="curve" smooth="yes"/>
      <point x="337" y="105"/>
      <point x="277" y="172"/>
      <point x="210" y="182" type="curve"/>
      <point x="210" y="184" type="line"/>
      <point x="277" y="200"/>
      <point x="316" y="246"/>
      <point x="316" y="320" type="curve" smooth="yes"/>
      <point x="316" y="413"/>
      <point x="262" y="460"/>
      <point x="210" y="505" type="curve" smooth="yes"/>
      <point x="163" y="545"/>
      <point x="117" y="586"/>
      <point x="117" y="658" type="curve" smooth="yes"/>
      <point x="117" y="712"/>
      <point x="143" y="745"/>
      <point x="194" y="745" type="curve" smooth="yes"/>
      <point x="229" y="745"/>
      <point x="249" y="731"/>
      <point x="271" y="718" type="curve"/>
      <point x="283" y="742" type="line"/>
      <point x="260" y="756"/>
      <point x="236" y="770"/>
      <point x="193" y="770" type="curve" smooth="yes"/>
      <point x="132" y="770"/>
      <point x="90" y="728"/>
      <point x="90" y="657" type="curve" smooth="yes"/>
      <point x="90" y="573"/>
      <point x="144" y="529"/>
      <point x="197" y="483" type="curve" smooth="yes"/>
      <point x="245" y="441"/>
      <point x="290" y="397"/>
      <point x="290" y="320" type="curve" smooth="yes"/>
      <point x="290" y="231"/>
      <point x="223" y="196"/>
      <point x="165" y="196" type="curve" smooth="yes"/>
      <point x="138" y="196" type="line"/>
      <point x="138" y="171" type="line"/>
      <point x="165" y="171" type="line" smooth="yes"/>
      <point x="240" y="171"/>
      <point x="310" y="116"/>
      <point x="310" y="-27" type="curve" smooth="yes"/>
      <point x="310" y="-162"/>
      <point x="266" y="-225"/>
      <point x="190" y="-225" type="curve" smooth="yes"/>
      <point x="122" y="-225"/>
      <point x="67" y="-193"/>
      <point x="67" y="-80" type="curve" smooth="yes"/>
      <point x="67" y="-48"/>
      <point x="71" y="-20"/>
      <point x="77" y="7" type="curve"/>
      <point x="52" y="7" type="line"/>
      <point x="44" y="-22"/>
      <point x="40" y="-51"/>
      <point x="40" y="-80" type="curve" smooth="yes"/>
      <point x="40" y="-196"/>
      <point x="98" y="-250"/>
    </contour>
  </outline>
</glyph>
<glyph name="hoe-georgian" format="2">
  <advance width="414"/>
  <unicode hex="10F5"/>
  <note>
uni10F5
</note>
  <outline>
    <contour>
      <point x="176" y="-10" type="curve" smooth="yes"/>
      <point x="266" y="-10"/>
      <point x="311" y="51"/>
      <point x="311" y="160" type="curve" smooth="yes"/>
      <point x="311" y="290" type="line"/>
      <point x="384" y="290" type="line"/>
      <point x="384" y="315" type="line"/>
      <point x="311" y="315" type="line"/>
      <point x="311" y="459" type="line"/>
      <point x="384" y="459" type="line"/>
      <point x="384" y="484" type="line"/>
      <point x="311" y="484" type="line"/>
      <point x="311" y="605" type="line" smooth="yes"/>
      <point x="311" y="708"/>
      <point x="265" y="765"/>
      <point x="178" y="765" type="curve" smooth="yes"/>
      <point x="99" y="765"/>
      <point x="51" y="711"/>
      <point x="51" y="615" type="curve" smooth="yes"/>
      <point x="51" y="507"/>
      <point x="101" y="459"/>
      <point x="198" y="459" type="curve" smooth="yes"/>
      <point x="285" y="459" type="line"/>
      <point x="285" y="315" type="line"/>
      <point x="198" y="315" type="line" smooth="yes"/>
      <point x="103" y="315"/>
      <point x="45" y="261"/>
      <point x="45" y="152" type="curve" smooth="yes"/>
      <point x="45" y="45"/>
      <point x="95" y="-10"/>
    </contour>
    <contour>
      <point x="175" y="15" type="curve" smooth="yes"/>
      <point x="105" y="15"/>
      <point x="72" y="73"/>
      <point x="72" y="152" type="curve" smooth="yes"/>
      <point x="72" y="237"/>
      <point x="109" y="290"/>
      <point x="198" y="290" type="curve" smooth="yes"/>
      <point x="285" y="290" type="line"/>
      <point x="285" y="162" type="line" smooth="yes"/>
      <point x="285" y="71"/>
      <point x="248" y="15"/>
    </contour>
    <contour>
      <point x="198" y="484" type="line" smooth="yes"/>
      <point x="109" y="484"/>
      <point x="78" y="533"/>
      <point x="78" y="615" type="curve" smooth="yes"/>
      <point x="78" y="690"/>
      <point x="111" y="740"/>
      <point x="177" y="740" type="curve" smooth="yes"/>
      <point x="246" y="740"/>
      <point x="285" y="690"/>
      <point x="285" y="603" type="curve" smooth="yes"/>
      <point x="285" y="484" type="line"/>
    </contour>
  </outline>
</glyph>
<glyph name="fi-georgian" format="2">
  <advance width="620"/>
  <unicode hex="10F6"/>
  <note>
uni10F6
</note>
  <outline>
    <contour>
      <point x="254" y="-250" type="curve" smooth="yes"/>
      <point x="296" y="-250"/>
      <point x="323" y="-225"/>
      <point x="323" y="-153" type="curve" smooth="yes"/>
      <point x="323" y="30" type="line" smooth="yes"/>
      <point x="323" y="52"/>
      <point x="322" y="72"/>
      <point x="321" y="103" type="curve"/>
      <point x="323" y="103" type="line"/>
      <point x="334" y="47"/>
      <point x="374" y="-10"/>
      <point x="441" y="-10" type="curve" smooth="yes"/>
      <point x="528" y="-10"/>
      <point x="575" y="87"/>
      <point x="575" y="271" type="curve" smooth="yes"/>
      <point x="575" y="445"/>
      <point x="530" y="537"/>
      <point x="441" y="537" type="curve" smooth="yes"/>
      <point x="371" y="537"/>
      <point x="334" y="475"/>
      <point x="321" y="421" type="curve"/>
      <point x="319" y="421" type="line"/>
      <point x="323" y="466"/>
      <point x="323" y="492"/>
      <point x="323" y="527" type="curve" smooth="yes"/>
      <point x="323" y="670" type="line" smooth="yes"/>
      <point x="323" y="721"/>
      <point x="336" y="745"/>
      <point x="368" y="745" type="curve" smooth="yes"/>
      <point x="379" y="745"/>
      <point x="388" y="743"/>
      <point x="399" y="738" type="curve"/>
      <point x="399" y="764" type="line"/>
      <point x="391" y="767"/>
      <point x="381" y="770"/>
      <point x="366" y="770" type="curve" smooth="yes"/>
      <point x="324" y="770"/>
      <point x="297" y="745"/>
      <point x="297" y="673" type="curve" smooth="yes"/>
      <point x="297" y="527" type="line" smooth="yes"/>
      <point x="297" y="492"/>
      <point x="298" y="466"/>
      <point x="301" y="421" type="curve"/>
      <point x="299" y="421" type="line"/>
      <point x="286" y="475"/>
      <point x="249" y="537"/>
      <point x="179" y="537" type="curve" smooth="yes"/>
      <point x="90" y="537"/>
      <point x="45" y="445"/>
      <point x="45" y="271" type="curve" smooth="yes"/>
      <point x="45" y="87"/>
      <point x="92" y="-10"/>
      <point x="179" y="-10" type="curve" smooth="yes"/>
      <point x="246" y="-10"/>
      <point x="286" y="47"/>
      <point x="297" y="103" type="curve"/>
      <point x="299" y="103" type="line"/>
      <point x="298" y="72"/>
      <point x="297" y="52"/>
      <point x="297" y="30" type="curve" smooth="yes"/>
      <point x="297" y="-150" type="line" smooth="yes"/>
      <point x="297" y="-201"/>
      <point x="284" y="-225"/>
      <point x="252" y="-225" type="curve" smooth="yes"/>
      <point x="241" y="-225"/>
      <point x="232" y="-223"/>
      <point x="221" y="-218" type="curve"/>
      <point x="221" y="-244" type="line"/>
      <point x="229" y="-247"/>
      <point x="239" y="-250"/>
    </contour>
    <contour>
      <point x="179" y="15" type="curve" smooth="yes"/>
      <point x="108" y="15"/>
      <point x="72" y="105"/>
      <point x="72" y="271" type="curve" smooth="yes"/>
      <point x="72" y="425"/>
      <point x="105" y="512"/>
      <point x="181" y="512" type="curve" smooth="yes"/>
      <point x="255" y="512"/>
      <point x="297" y="430"/>
      <point x="297" y="306" type="curve" smooth="yes"/>
      <point x="297" y="229" type="line" smooth="yes"/>
      <point x="297" y="81"/>
      <point x="249" y="15"/>
    </contour>
    <contour>
      <point x="441" y="15" type="curve" smooth="yes"/>
      <point x="371" y="15"/>
      <point x="323" y="81"/>
      <point x="323" y="229" type="curve" smooth="yes"/>
      <point x="323" y="306" type="line" smooth="yes"/>
      <point x="323" y="430"/>
      <point x="365" y="512"/>
      <point x="439" y="512" type="curve" smooth="yes"/>
      <point x="515" y="512"/>
      <point x="548" y="425"/>
      <point x="548" y="271" type="curve" smooth="yes"/>
      <point x="548" y="105"/>
      <point x="512" y="15"/>
    </contour>
  </outline>
</glyph>
<glyph name="yn-georgian" format="2">
  <advance width="361"/>
  <unicode hex="10F7"/>
  <note>
uni10F7
</note>
  <anchor x="181" y="527" name="top"/>
  <outline>
    <contour>
      <point x="178" y="-250" type="curve" smooth="yes"/>
      <point x="265" y="-250"/>
      <point x="321" y="-201"/>
      <point x="321" y="-64" type="curve" smooth="yes"/>
      <point x="321" y="-33"/>
      <point x="318" y="-7"/>
      <point x="315" y="9" type="curve"/>
      <point x="288" y="9" type="line"/>
      <point x="292" y="-11"/>
      <point x="294" y="-32"/>
      <point x="294" y="-64" type="curve" smooth="yes"/>
      <point x="294" y="-184"/>
      <point x="249" y="-225"/>
      <point x="178" y="-225" type="curve" smooth="yes"/>
      <point x="105" y="-225"/>
      <point x="67" y="-164"/>
      <point x="67" y="-57" type="curve" smooth="yes"/>
      <point x="67" y="55"/>
      <point x="107" y="107"/>
      <point x="175" y="164" type="curve" smooth="yes"/>
      <point x="259" y="234"/>
      <point x="310" y="281"/>
      <point x="310" y="384" type="curve" smooth="yes"/>
      <point x="310" y="479"/>
      <point x="268" y="537"/>
      <point x="182" y="537" type="curve" smooth="yes"/>
      <point x="97" y="537"/>
      <point x="54" y="470"/>
      <point x="54" y="380" type="curve" smooth="yes"/>
      <point x="54" y="371"/>
      <point x="55" y="353"/>
      <point x="56" y="345" type="curve"/>
      <point x="83" y="345" type="line"/>
      <point x="82" y="353"/>
      <point x="81" y="370"/>
      <point x="81" y="380" type="curve" smooth="yes"/>
      <point x="81" y="458"/>
      <point x="111" y="512"/>
      <point x="182" y="512" type="curve" smooth="yes"/>
      <point x="252" y="512"/>
      <point x="283" y="466"/>
      <point x="283" y="384" type="curve" smooth="yes"/>
      <point x="283" y="283"/>
      <point x="233" y="236"/>
      <point x="158" y="182" type="curve" smooth="yes"/>
      <point x="85" y="130"/>
      <point x="40" y="67"/>
      <point x="40" y="-58" type="curve" smooth="yes"/>
      <point x="40" y="-180"/>
      <point x="89" y="-250"/>
    </contour>
  </outline>
</glyph>
<glyph name="elifi-georgian" format="2">
  <advance width="408"/>
  <unicode hex="10F8"/>
  <note>
uni10F8
</note>
  <outline>
    <contour>
      <point x="214" y="-250" type="curve" smooth="yes"/>
      <point x="322" y="-250"/>
      <point x="363" y="-173"/>
      <point x="363" y="-82" type="curve" smooth="yes"/>
      <point x="363" y="-32"/>
      <point x="349" y="10"/>
      <point x="342" y="27" type="curve"/>
      <point x="317" y="27" type="line"/>
      <point x="325" y="6"/>
      <point x="336" y="-31"/>
      <point x="336" y="-82" type="curve" smooth="yes"/>
      <point x="336" y="-178"/>
      <point x="293" y="-225"/>
      <point x="214" y="-225" type="curve" smooth="yes"/>
      <point x="137" y="-225"/>
      <point x="91" y="-164"/>
      <point x="91" y="-33" type="curve" smooth="yes"/>
      <point x="91" y="128" type="line" smooth="yes"/>
      <point x="91" y="159"/>
      <point x="91" y="195"/>
      <point x="89" y="246" type="curve"/>
      <point x="91" y="246" type="line"/>
      <point x="113" y="168"/>
      <point x="162" y="131"/>
      <point x="217" y="131" type="curve" smooth="yes"/>
      <point x="313" y="131"/>
      <point x="359" y="217"/>
      <point x="359" y="339" type="curve" smooth="yes"/>
      <point x="359" y="413"/>
      <point x="349" y="468"/>
      <point x="328" y="527" type="curve"/>
      <point x="302" y="527" type="line"/>
      <point x="322" y="467"/>
      <point x="332" y="413"/>
      <point x="332" y="339" type="curve" smooth="yes"/>
      <point x="332" y="240"/>
      <point x="300" y="156"/>
      <point x="217" y="156" type="curve" smooth="yes"/>
      <point x="149" y="156"/>
      <point x="91" y="213"/>
      <point x="91" y="388" type="curve" smooth="yes"/>
      <point x="91" y="527" type="line"/>
      <point x="65" y="527" type="line"/>
      <point x="65" y="-34" type="line" smooth="yes"/>
      <point x="65" y="-189"/>
      <point x="128" y="-250"/>
    </contour>
  </outline>
</glyph>
<glyph name="turnedgan-georgian" format="2">
  <advance width="401"/>
  <unicode hex="10F9"/>
  <note>
uni10F9
</note>
  <outline>
    <contour>
      <point x="198" y="537" type="curve" smooth="yes"/>
      <point x="96" y="537"/>
      <point x="45" y="450"/>
      <point x="45" y="273" type="curve" smooth="yes"/>
      <point x="45" y="98"/>
      <point x="91" y="35"/>
      <point x="164" y="19" type="curve"/>
      <point x="164" y="17" type="line"/>
      <point x="112" y="-3"/>
      <point x="90" y="-51"/>
      <point x="90" y="-113" type="curve" smooth="yes"/>
      <point x="90" y="-190"/>
      <point x="126" y="-250"/>
      <point x="200" y="-250" type="curve" smooth="yes"/>
      <point x="270" y="-250"/>
      <point x="313" y="-201"/>
      <point x="313" y="-122" type="curve" smooth="yes"/>
      <point x="313" y="-101"/>
      <point x="311" y="-85"/>
      <point x="309" y="-71" type="curve"/>
      <point x="283" y="-71" type="line"/>
      <point x="286" y="-86"/>
      <point x="287" y="-102"/>
      <point x="287" y="-122" type="curve" smooth="yes"/>
      <point x="287" y="-193"/>
      <point x="255" y="-225"/>
      <point x="200" y="-225" type="curve" smooth="yes"/>
      <point x="140" y="-225"/>
      <point x="116" y="-175"/>
      <point x="116" y="-112" type="curve" smooth="yes"/>
      <point x="116" y="-44"/>
      <point x="146" y="3"/>
      <point x="209" y="10" type="curve" smooth="yes"/>
      <point x="304" y="21"/>
      <point x="356" y="98"/>
      <point x="356" y="271" type="curve" smooth="yes"/>
      <point x="356" y="447"/>
      <point x="302" y="537"/>
    </contour>
    <contour>
      <point x="199" y="512" type="curve" smooth="yes"/>
      <point x="289" y="512"/>
      <point x="330" y="425"/>
      <point x="330" y="271" type="curve" smooth="yes"/>
      <point x="330" y="123"/>
      <point x="288" y="35"/>
      <point x="200" y="35" type="curve" smooth="yes"/>
      <point x="104" y="35"/>
      <point x="71" y="129"/>
      <point x="71" y="272" type="curve" smooth="yes"/>
      <point x="71" y="433"/>
      <point x="112" y="512"/>
    </contour>
  </outline>
</glyph>
<glyph name="ain-georgian" format="2">
  <advance width="321"/>
  <unicode hex="10FA"/>
  <note>
uni10FA
</note>
  <outline>
    <contour>
      <point x="102" y="-82" type="line"/>
      <point x="290" y="4" type="line"/>
      <point x="290" y="32" type="line"/>
      <point x="265" y="21"/>
      <point x="238" y="15"/>
      <point x="213" y="15" type="curve" smooth="yes"/>
      <point x="112" y="15"/>
      <point x="71" y="114"/>
      <point x="71" y="257" type="curve" smooth="yes"/>
      <point x="71" y="427"/>
      <point x="128" y="512"/>
      <point x="220" y="512" type="curve" smooth="yes"/>
      <point x="242" y="512"/>
      <point x="263" y="507"/>
      <point x="281" y="496" type="curve"/>
      <point x="291" y="519" type="line"/>
      <point x="270" y="531"/>
      <point x="246" y="537"/>
      <point x="219" y="537" type="curve" smooth="yes"/>
      <point x="111" y="537"/>
      <point x="45" y="440"/>
      <point x="45" y="256" type="curve" smooth="yes"/>
      <point x="45" y="97"/>
      <point x="98" y="-3"/>
      <point x="205" y="-8" type="curve"/>
      <point x="205" y="-10" type="line"/>
      <point x="102" y="-57" type="line"/>
    </contour>
  </outline>
</glyph>
<glyph name="paragraph-georgian" format="2">
  <advance width="344"/>
  <unicode hex="10FB"/>
  <note>
uni10FB
</note>
  <outline>
    <contour>
      <point x="254" y="233" type="curve" smooth="yes"/>
      <point x="276" y="233"/>
      <point x="280" y="249"/>
      <point x="280" y="269" type="curve" smooth="yes"/>
      <point x="280" y="288"/>
      <point x="276" y="304"/>
      <point x="254" y="304" type="curve" smooth="yes"/>
      <point x="233" y="304"/>
      <point x="229" y="288"/>
      <point x="229" y="269" type="curve" smooth="yes"/>
      <point x="229" y="250"/>
      <point x="231" y="233"/>
    </contour>
    <contour>
      <point x="90" y="-5" type="curve" smooth="yes"/>
      <point x="112" y="-5"/>
      <point x="116" y="11"/>
      <point x="116" y="31" type="curve" smooth="yes"/>
      <point x="116" y="50"/>
      <point x="112" y="66"/>
      <point x="90" y="66" type="curve" smooth="yes"/>
      <point x="69" y="66"/>
      <point x="65" y="50"/>
      <point x="65" y="31" type="curve" smooth="yes"/>
      <point x="65" y="12"/>
      <point x="67" y="-5"/>
    </contour>
    <contour>
      <point x="90" y="461" type="curve" smooth="yes"/>
      <point x="108" y="461"/>
      <point x="116" y="474"/>
      <point x="116" y="497" type="curve" smooth="yes"/>
      <point x="116" y="521"/>
      <point x="109" y="532"/>
      <point x="91" y="532" type="curve" smooth="yes"/>
      <point x="70" y="532"/>
      <point x="65" y="516"/>
      <point x="65" y="496" type="curve" smooth="yes"/>
      <point x="65" y="476"/>
      <point x="70" y="461"/>
    </contour>
  </outline>
</glyph>
<glyph name="narMod-georgian" format="2">
  <advance width="268"/>
  <unicode hex="10FC"/>
  <note>
uni10FC
</note>
  <outline>
    <contour>
      <point x="141" y="404" type="curve" smooth="yes"/>
      <point x="206" y="404"/>
      <point x="233" y="472"/>
      <point x="233" y="558" type="curve" smooth="yes"/>
      <point x="233" y="662"/>
      <point x="202" y="717"/>
      <point x="146" y="717" type="curve" smooth="yes"/>
      <point x="108" y="717"/>
      <point x="84" y="690"/>
      <point x="75" y="661" type="curve"/>
      <point x="73" y="661" type="line"/>
      <point x="74" y="675"/>
      <point x="75" y="688"/>
      <point x="75" y="700" type="curve" smooth="yes"/>
      <point x="75" y="753" type="line" smooth="yes"/>
      <point x="75" y="796"/>
      <point x="96" y="820"/>
      <point x="140" y="820" type="curve" smooth="yes"/>
      <point x="215" y="820" type="line"/>
      <point x="215" y="842" type="line"/>
      <point x="138" y="842" type="line" smooth="yes"/>
      <point x="83" y="842"/>
      <point x="50" y="812"/>
      <point x="50" y="753" type="curve" smooth="yes"/>
      <point x="50" y="557" type="line" smooth="yes"/>
      <point x="50" y="452"/>
      <point x="86" y="404"/>
    </contour>
    <contour>
      <point x="141" y="426" type="curve" smooth="yes"/>
      <point x="98" y="426"/>
      <point x="75" y="474"/>
      <point x="75" y="557" type="curve" smooth="yes"/>
      <point x="75" y="582" type="line" smooth="yes"/>
      <point x="75" y="652"/>
      <point x="99" y="694"/>
      <point x="142" y="694" type="curve" smooth="yes"/>
      <point x="186" y="694"/>
      <point x="208" y="647"/>
      <point x="208" y="558" type="curve" smooth="yes"/>
      <point x="208" y="476"/>
      <point x="186" y="426"/>
    </contour>
  </outline>
</glyph>
<glyph name="aen-georgian" format="2">
  <advance width="361"/>
  <unicode hex="10FD"/>
  <outline>
    <contour>
      <point x="183" y="-10" type="curve" smooth="yes"/>
      <point x="272" y="-10"/>
      <point x="321" y="60"/>
      <point x="321" y="182" type="curve" smooth="yes"/>
      <point x="321" y="300"/>
      <point x="272" y="358"/>
      <point x="203" y="415" type="curve" smooth="yes"/>
      <point x="132" y="474"/>
      <point x="78" y="516"/>
      <point x="78" y="617" type="curve" smooth="yes"/>
      <point x="78" y="699"/>
      <point x="109" y="745"/>
      <point x="179" y="745" type="curve" smooth="yes"/>
      <point x="250" y="745"/>
      <point x="280" y="691"/>
      <point x="280" y="613" type="curve" smooth="yes"/>
      <point x="280" y="603"/>
      <point x="279" y="586"/>
      <point x="278" y="578" type="curve"/>
      <point x="305" y="578" type="line"/>
      <point x="306" y="586"/>
      <point x="307" y="604"/>
      <point x="307" y="613" type="curve" smooth="yes"/>
      <point x="307" y="703"/>
      <point x="264" y="770"/>
      <point x="179" y="770" type="curve" smooth="yes"/>
      <point x="93" y="770"/>
      <point x="51" y="712"/>
      <point x="51" y="617" type="curve" smooth="yes"/>
      <point x="51" y="514"/>
      <point x="101" y="464"/>
      <point x="186" y="395" type="curve" smooth="yes"/>
      <point x="257" y="337"/>
      <point x="294" y="288"/>
      <point x="294" y="183" type="curve" smooth="yes"/>
      <point x="294" y="76"/>
      <point x="256" y="15"/>
      <point x="183" y="15" type="curve" smooth="yes"/>
      <point x="112" y="15"/>
      <point x="67" y="56"/>
      <point x="67" y="176" type="curve" smooth="yes"/>
      <point x="67" y="208"/>
      <point x="69" y="229"/>
      <point x="73" y="249" type="curve"/>
      <point x="46" y="249" type="line"/>
      <point x="43" y="233"/>
      <point x="40" y="207"/>
      <point x="40" y="176" type="curve" smooth="yes"/>
      <point x="40" y="39"/>
      <point x="96" y="-10"/>
    </contour>
  </outline>
</glyph>
<glyph name="hardsign-georgian" format="2">
  <advance width="398"/>
  <unicode hex="10FE"/>
  <outline>
    <contour>
      <point x="45" y="527" type="curve"/>
      <point x="45" y="502" type="line"/>
      <point x="88" y="502"/>
      <point x="136" y="486"/>
      <point x="178" y="457" type="curve"/>
      <point x="178" y="455" type="line"/>
      <point x="103" y="393"/>
      <point x="45" y="296"/>
      <point x="45" y="182" type="curve" smooth="yes"/>
      <point x="45" y="77"/>
      <point x="91" y="-10"/>
      <point x="199" y="-10" type="curve" smooth="yes"/>
      <point x="307" y="-10"/>
      <point x="353" y="77"/>
      <point x="353" y="182" type="curve" smooth="yes"/>
      <point x="353" y="296"/>
      <point x="294" y="393"/>
      <point x="219" y="455" type="curve"/>
      <point x="219" y="457" type="line"/>
      <point x="261" y="486"/>
      <point x="310" y="502"/>
      <point x="353" y="502" type="curve"/>
      <point x="353" y="527" type="line"/>
      <point x="302" y="527"/>
      <point x="247" y="507"/>
      <point x="199" y="470" type="curve"/>
      <point x="151" y="507"/>
      <point x="96" y="527"/>
    </contour>
    <contour>
      <point x="199" y="445" type="curve"/>
      <point x="271" y="383"/>
      <point x="327" y="288"/>
      <point x="327" y="182" type="curve" smooth="yes"/>
      <point x="327" y="98"/>
      <point x="293" y="15"/>
      <point x="199" y="15" type="curve" smooth="yes"/>
      <point x="105" y="15"/>
      <point x="71" y="98"/>
      <point x="71" y="182" type="curve" smooth="yes"/>
      <point x="71" y="288"/>
      <point x="127" y="383"/>
    </contour>
  </outline>
</glyph>
<glyph name="labial-georgian" format="2">
  <advance width="401"/>
  <unicode hex="10FF"/>
  <outline>
    <contour>
      <point x="356" y="264" type="curve" smooth="yes"/>
      <point x="356" y="433"/>
      <point x="314" y="537"/>
      <point x="201" y="537" type="curve" smooth="yes"/>
      <point x="95" y="537"/>
      <point x="45" y="444"/>
      <point x="45" y="266" type="curve" smooth="yes"/>
      <point x="45" y="80"/>
      <point x="99" y="-10"/>
      <point x="203" y="-10" type="curve" smooth="yes"/>
      <point x="305" y="-10"/>
      <point x="356" y="77"/>
    </contour>
    <contour>
      <point x="71" y="266" type="curve" smooth="yes"/>
      <point x="71" y="424"/>
      <point x="109" y="512"/>
      <point x="201" y="512" type="curve" smooth="yes"/>
      <point x="297" y="512"/>
      <point x="330" y="418"/>
      <point x="330" y="265" type="curve" smooth="yes"/>
      <point x="330" y="94"/>
      <point x="290" y="15"/>
      <point x="202" y="15" type="curve" smooth="yes"/>
      <point x="112" y="15"/>
      <point x="71" y="102"/>
    </contour>
  </outline>
</glyph>
<glyph name="An-georgian" format="2">
  <advance width="414"/>
  <unicode hex="1C90"/>
  <anchor x="204" y="714" name="top"/>
  <outline>
    <contour>
      <point x="204" y="-10" type="curve" smooth="yes"/>
      <point x="296" y="-10"/>
      <point x="364" y="53"/>
      <point x="364" y="212" type="curve" smooth="yes"/>
      <point x="364" y="320"/>
      <point x="322" y="403"/>
      <point x="283" y="480" type="curve" smooth="yes"/>
      <point x="244" y="557"/>
      <point x="209" y="628"/>
      <point x="219" y="714" type="curve"/>
      <point x="193" y="714" type="line"/>
      <point x="183" y="624"/>
      <point x="220" y="550"/>
      <point x="258" y="473" type="curve" smooth="yes"/>
      <point x="296" y="395"/>
      <point x="337" y="315"/>
      <point x="337" y="213" type="curve" smooth="yes"/>
      <point x="337" y="78"/>
      <point x="288" y="15"/>
      <point x="204" y="15" type="curve" smooth="yes"/>
      <point x="124" y="15"/>
      <point x="71" y="72"/>
      <point x="71" y="209" type="curve" smooth="yes"/>
      <point x="71" y="261"/>
      <point x="81" y="311"/>
      <point x="95" y="360" type="curve"/>
      <point x="105" y="352" type="line"/>
      <point x="54" y="352" type="line"/>
      <point x="68" y="359" type="line"/>
      <point x="54" y="315"/>
      <point x="44" y="260"/>
      <point x="44" y="209" type="curve" smooth="yes"/>
      <point x="44" y="53"/>
      <point x="113" y="-10"/>
    </contour>
  </outline>
</glyph>
<glyph name="Ban-georgian" format="2">
  <advance width="436"/>
  <unicode hex="1C91"/>
  <outline>
    <contour>
      <point x="221" y="-10" type="curve" smooth="yes"/>
      <point x="325" y="-10"/>
      <point x="386" y="73"/>
      <point x="386" y="248" type="curve" smooth="yes"/>
      <point x="386" y="406"/>
      <point x="337" y="505"/>
      <point x="219" y="505" type="curve" smooth="yes"/>
      <point x="110" y="505"/>
      <point x="50" y="417"/>
      <point x="50" y="250" type="curve" smooth="yes"/>
      <point x="50" y="76"/>
      <point x="114" y="-10"/>
    </contour>
    <contour>
      <point x="220" y="15" type="curve" smooth="yes"/>
      <point x="127" y="15"/>
      <point x="77" y="97"/>
      <point x="77" y="250" type="curve" smooth="yes"/>
      <point x="77" y="398"/>
      <point x="124" y="480"/>
      <point x="219" y="480" type="curve" smooth="yes"/>
      <point x="319" y="480"/>
      <point x="359" y="392"/>
      <point x="359" y="249" type="curve" smooth="yes"/>
      <point x="359" y="89"/>
      <point x="310" y="15"/>
    </contour>
    <contour>
      <point x="233" y="494" type="line"/>
      <point x="248" y="521"/>
      <point x="254" y="549"/>
      <point x="254" y="570" type="curve" smooth="yes"/>
      <point x="254" y="606"/>
      <point x="237" y="629"/>
      <point x="218" y="648" type="curve" smooth="yes"/>
      <point x="200" y="666"/>
      <point x="183" y="684"/>
      <point x="185" y="714" type="curve"/>
      <point x="159" y="714" type="line"/>
      <point x="156" y="678"/>
      <point x="177" y="652"/>
      <point x="197" y="632" type="curve" smooth="yes"/>
      <point x="213" y="615"/>
      <point x="227" y="598"/>
      <point x="227" y="571" type="curve" smooth="yes"/>
      <point x="227" y="547"/>
      <point x="222" y="521"/>
      <point x="207" y="496" type="curve"/>
    </contour>
  </outline>
</glyph>
<glyph name="Gan-georgian" format="2">
  <advance width="424"/>
  <unicode hex="1C92"/>
  <outline>
    <contour>
      <point x="215" y="-10" type="curve" smooth="yes"/>
      <point x="319" y="-10"/>
      <point x="380" y="73"/>
      <point x="380" y="238" type="curve" smooth="yes"/>
      <point x="380" y="369"/>
      <point x="346" y="459"/>
      <point x="248" y="477" type="curve"/>
      <point x="248" y="478" type="line"/>
      <point x="298" y="496"/>
      <point x="329" y="534"/>
      <point x="329" y="594" type="curve" smooth="yes"/>
      <point x="329" y="667"/>
      <point x="288" y="724"/>
      <point x="209" y="724" type="curve" smooth="yes"/>
      <point x="134" y="724"/>
      <point x="86" y="673"/>
      <point x="86" y="602" type="curve" smooth="yes"/>
      <point x="86" y="582"/>
      <point x="88" y="566"/>
      <point x="90" y="555" type="curve"/>
      <point x="116" y="555" type="line"/>
      <point x="113" y="569"/>
      <point x="112" y="584"/>
      <point x="112" y="602" type="curve" smooth="yes"/>
      <point x="112" y="664"/>
      <point x="149" y="700"/>
      <point x="209" y="700" type="curve" smooth="yes"/>
      <point x="274" y="700"/>
      <point x="303" y="655"/>
      <point x="303" y="593" type="curve" smooth="yes"/>
      <point x="303" y="533"/>
      <point x="266" y="493"/>
      <point x="200" y="485" type="curve" smooth="yes"/>
      <point x="97" y="472"/>
      <point x="44" y="391"/>
      <point x="44" y="240" type="curve" smooth="yes"/>
      <point x="44" y="76"/>
      <point x="108" y="-10"/>
    </contour>
    <contour>
      <point x="214" y="15" type="curve" smooth="yes"/>
      <point x="121" y="15"/>
      <point x="71" y="97"/>
      <point x="71" y="240" type="curve" smooth="yes"/>
      <point x="71" y="378"/>
      <point x="121" y="460"/>
      <point x="213" y="460" type="curve" smooth="yes"/>
      <point x="313" y="460"/>
      <point x="353" y="372"/>
      <point x="353" y="239" type="curve" smooth="yes"/>
      <point x="353" y="89"/>
      <point x="304" y="15"/>
    </contour>
  </outline>
</glyph>
<glyph name="Don-georgian" format="2">
  <advance width="640"/>
  <unicode hex="1C93"/>
  <outline>
    <contour>
      <point x="433" y="0" type="curve"/>
      <point x="458" y="0" type="line"/>
      <point x="449" y="78"/>
      <point x="383" y="113"/>
      <point x="308" y="147" type="curve" smooth="yes"/>
      <point x="198" y="196"/>
      <point x="77" y="272"/>
      <point x="77" y="495" type="curve" smooth="yes"/>
      <point x="77" y="630"/>
      <point x="108" y="699"/>
      <point x="188" y="699" type="curve" smooth="yes"/>
      <point x="276" y="699"/>
      <point x="289" y="611"/>
      <point x="289" y="525" type="curve" smooth="yes"/>
      <point x="289" y="479" type="line" smooth="yes"/>
      <point x="289" y="317"/>
      <point x="338" y="234"/>
      <point x="438" y="234" type="curve" smooth="yes"/>
      <point x="537" y="234"/>
      <point x="590" y="315"/>
      <point x="590" y="481" type="curve" smooth="yes"/>
      <point x="590" y="635"/>
      <point x="542" y="724"/>
      <point x="439" y="724" type="curve" smooth="yes"/>
      <point x="377" y="724"/>
      <point x="323" y="687"/>
      <point x="307" y="593" type="curve"/>
      <point x="305" y="593" type="line"/>
      <point x="304" y="676"/>
      <point x="259" y="724"/>
      <point x="188" y="724" type="curve" smooth="yes"/>
      <point x="87" y="724"/>
      <point x="50" y="641"/>
      <point x="50" y="495" type="curve" smooth="yes"/>
      <point x="50" y="337"/>
      <point x="109" y="213"/>
      <point x="254" y="150" type="curve"/>
      <point x="254" y="149" type="line"/>
      <point x="204" y="151"/>
      <point x="163" y="148"/>
      <point x="126" y="135" type="curve"/>
      <point x="134" y="114" type="line"/>
      <point x="165" y="127"/>
      <point x="207" y="130"/>
      <point x="241" y="130" type="curve" smooth="yes"/>
      <point x="321" y="130"/>
      <point x="426" y="71"/>
    </contour>
    <contour>
      <point x="439" y="259" type="curve" smooth="yes"/>
      <point x="353" y="259"/>
      <point x="315" y="332"/>
      <point x="315" y="480" type="curve" smooth="yes"/>
      <point x="315" y="616"/>
      <point x="353" y="699"/>
      <point x="439" y="699" type="curve" smooth="yes"/>
      <point x="528" y="699"/>
      <point x="564" y="617"/>
      <point x="564" y="481" type="curve" smooth="yes"/>
      <point x="564" y="333"/>
      <point x="525" y="259"/>
    </contour>
  </outline>
</glyph>
<glyph name="Vin-georgian" format="2">
  <advance width="418"/>
  <unicode hex="1C95"/>
  <outline>
    <contour>
      <point x="209" y="-10" type="curve" smooth="yes"/>
      <point x="312" y="-10"/>
      <point x="374" y="60"/>
      <point x="374" y="199" type="curve" smooth="yes"/>
      <point x="374" y="316"/>
      <point x="325" y="385"/>
      <point x="253" y="394" type="curve"/>
      <point x="253" y="395" type="line"/>
      <point x="325" y="413"/>
      <point x="362" y="480"/>
      <point x="362" y="563" type="curve" smooth="yes"/>
      <point x="362" y="677"/>
      <point x="290" y="724"/>
      <point x="216" y="724" type="curve" smooth="yes"/>
      <point x="128" y="724"/>
      <point x="67" y="668"/>
      <point x="67" y="570" type="curve" smooth="yes"/>
      <point x="67" y="547"/>
      <point x="70" y="522"/>
      <point x="75" y="502" type="curve"/>
      <point x="101" y="502" type="line"/>
      <point x="97" y="520"/>
      <point x="94" y="546"/>
      <point x="94" y="569" type="curve" smooth="yes"/>
      <point x="94" y="664"/>
      <point x="153" y="699"/>
      <point x="216" y="699" type="curve" smooth="yes"/>
      <point x="278" y="699"/>
      <point x="336" y="657"/>
      <point x="336" y="562" type="curve" smooth="yes"/>
      <point x="336" y="466"/>
      <point x="280" y="406"/>
      <point x="202" y="406" type="curve" smooth="yes"/>
      <point x="171" y="406" type="line"/>
      <point x="171" y="382" type="line"/>
      <point x="200" y="382" type="line" smooth="yes"/>
      <point x="281" y="382"/>
      <point x="347" y="339"/>
      <point x="347" y="200" type="curve" smooth="yes"/>
      <point x="347" y="85"/>
      <point x="304" y="15"/>
      <point x="209" y="15" type="curve" smooth="yes"/>
      <point x="124" y="15"/>
      <point x="71" y="72"/>
      <point x="71" y="169" type="curve" smooth="yes"/>
      <point x="71" y="215"/>
      <point x="78" y="251"/>
      <point x="84" y="271" type="curve"/>
      <point x="58" y="271" type="line"/>
      <point x="53" y="255"/>
      <point x="44" y="215"/>
      <point x="44" y="169" type="curve" smooth="yes"/>
      <point x="44" y="76"/>
      <point x="93" y="-10"/>
    </contour>
  </outline>
</glyph>
<glyph name="Zen-georgian" format="2">
  <advance width="461"/>
  <unicode hex="1C96"/>
  <outline>
    <contour>
      <point x="248" y="-10" type="curve" smooth="yes"/>
      <point x="357" y="-10"/>
      <point x="411" y="73"/>
      <point x="411" y="230" type="curve" smooth="yes"/>
      <point x="411" y="369"/>
      <point x="365" y="467"/>
      <point x="249" y="467" type="curve" smooth="yes"/>
      <point x="246" y="467"/>
      <point x="244" y="467"/>
      <point x="241" y="467" type="curve"/>
      <point x="241" y="468" type="line"/>
      <point x="265" y="490"/>
      <point x="276" y="528"/>
      <point x="276" y="576" type="curve" smooth="yes"/>
      <point x="276" y="668"/>
      <point x="236" y="724"/>
      <point x="156" y="724" type="curve" smooth="yes"/>
      <point x="86" y="724"/>
      <point x="39" y="670"/>
      <point x="39" y="577" type="curve" smooth="yes"/>
      <point x="39" y="483"/>
      <point x="84" y="434"/>
      <point x="148" y="431" type="curve"/>
      <point x="148" y="429" type="line"/>
      <point x="102" y="390"/>
      <point x="85" y="325"/>
      <point x="85" y="231" type="curve" smooth="yes"/>
      <point x="85" y="76"/>
      <point x="142" y="-10"/>
    </contour>
    <contour>
      <point x="247" y="15" type="curve" smooth="yes"/>
      <point x="155" y="15"/>
      <point x="112" y="96"/>
      <point x="112" y="231" type="curve" smooth="yes"/>
      <point x="112" y="361"/>
      <point x="152" y="443"/>
      <point x="246" y="443" type="curve" smooth="yes"/>
      <point x="350" y="443"/>
      <point x="383" y="356"/>
      <point x="383" y="231" type="curve" smooth="yes"/>
      <point x="383" y="91"/>
      <point x="343" y="15"/>
    </contour>
    <contour>
      <point x="157" y="452" type="curve" smooth="yes"/>
      <point x="101" y="452"/>
      <point x="65" y="494"/>
      <point x="65" y="577" type="curve" smooth="yes"/>
      <point x="65" y="658"/>
      <point x="97" y="700"/>
      <point x="156" y="700" type="curve" smooth="yes"/>
      <point x="223" y="700"/>
      <point x="250" y="652"/>
      <point x="250" y="576" type="curve" smooth="yes"/>
      <point x="250" y="489"/>
      <point x="217" y="452"/>
    </contour>
  </outline>
</glyph>
<glyph name="Tan-georgian" format="2">
  <advance width="683"/>
  <unicode hex="1C97"/>
  <outline>
    <contour>
      <point x="485" y="724" type="curve" smooth="yes"/>
      <point x="437" y="724"/>
      <point x="382" y="697"/>
      <point x="367" y="595" type="curve"/>
      <point x="365" y="595" type="line"/>
      <point x="342" y="687"/>
      <point x="295" y="724"/>
      <point x="222" y="724" type="curve" smooth="yes"/>
      <point x="100" y="724"/>
      <point x="54" y="620"/>
      <point x="54" y="357" type="curve" smooth="yes"/>
      <point x="54" y="97"/>
      <point x="98" y="-10"/>
      <point x="222" y="-10" type="curve" smooth="yes"/>
      <point x="344" y="-10"/>
      <point x="390" y="94"/>
      <point x="390" y="357" type="curve" smooth="yes"/>
      <point x="390" y="417"/>
      <point x="385" y="468"/>
      <point x="385" y="532" type="curve"/>
      <point x="385" y="650"/>
      <point x="429" y="699"/>
      <point x="485" y="699" type="curve" smooth="yes"/>
      <point x="567" y="699"/>
      <point x="602" y="617"/>
      <point x="602" y="429" type="curve" smooth="yes"/>
      <point x="602" y="264"/>
      <point x="572" y="122"/>
      <point x="529" y="0" type="curve"/>
      <point x="556" y="0" type="line"/>
      <point x="599" y="118"/>
      <point x="629" y="259"/>
      <point x="629" y="429" type="curve" smooth="yes"/>
      <point x="629" y="639"/>
      <point x="581" y="724"/>
    </contour>
    <contour>
      <point x="222" y="15" type="curve" smooth="yes"/>
      <point x="119" y="15"/>
      <point x="81" y="109"/>
      <point x="81" y="357" type="curve" smooth="yes"/>
      <point x="81" y="602"/>
      <point x="117" y="699"/>
      <point x="222" y="699" type="curve" smooth="yes"/>
      <point x="325" y="699"/>
      <point x="363" y="605"/>
      <point x="363" y="357" type="curve" smooth="yes"/>
      <point x="363" y="112"/>
      <point x="327" y="15"/>
    </contour>
  </outline>
</glyph>
<glyph name="In-georgian" format="2">
  <advance width="444"/>
  <unicode hex="1C98"/>
  <anchor x="222" y="714" name="top"/>
  <outline>
    <contour>
      <point x="116" y="0" type="curve"/>
      <point x="143" y="0" type="line"/>
      <point x="101" y="122"/>
      <point x="81" y="255"/>
      <point x="81" y="419" type="curve" smooth="yes"/>
      <point x="81" y="617"/>
      <point x="128" y="699"/>
      <point x="222" y="699" type="curve" smooth="yes"/>
      <point x="316" y="699"/>
      <point x="363" y="617"/>
      <point x="363" y="419" type="curve" smooth="yes"/>
      <point x="363" y="255"/>
      <point x="343" y="122"/>
      <point x="301" y="0" type="curve"/>
      <point x="328" y="0" type="line"/>
      <point x="369" y="118"/>
      <point x="390" y="250"/>
      <point x="390" y="419" type="curve" smooth="yes"/>
      <point x="390" y="636"/>
      <point x="330" y="724"/>
      <point x="222" y="724" type="curve" smooth="yes"/>
      <point x="114" y="724"/>
      <point x="54" y="636"/>
      <point x="54" y="419" type="curve" smooth="yes"/>
      <point x="54" y="250"/>
      <point x="75" y="118"/>
    </contour>
  </outline>
</glyph>
<glyph name="Kan-georgian" format="2">
  <advance width="402"/>
  <unicode hex="1C99"/>
  <outline>
    <contour>
      <point x="201" y="-10" type="curve" smooth="yes"/>
      <point x="300" y="-10"/>
      <point x="358" y="61"/>
      <point x="358" y="208" type="curve" smooth="yes"/>
      <point x="358" y="336"/>
      <point x="316" y="396"/>
      <point x="244" y="412" type="curve"/>
      <point x="244" y="414" type="line"/>
      <point x="316" y="432"/>
      <point x="346" y="492"/>
      <point x="346" y="567" type="curve" smooth="yes"/>
      <point x="346" y="676"/>
      <point x="267" y="724"/>
      <point x="200" y="724" type="curve"/>
      <point x="200" y="699" type="line"/>
      <point x="255" y="699"/>
      <point x="320" y="658"/>
      <point x="320" y="566" type="curve" smooth="yes"/>
      <point x="320" y="476"/>
      <point x="270" y="425"/>
      <point x="192" y="425" type="curve" smooth="yes"/>
      <point x="161" y="425" type="line"/>
      <point x="161" y="400" type="line"/>
      <point x="190" y="400" type="line" smooth="yes"/>
      <point x="271" y="400"/>
      <point x="331" y="352"/>
      <point x="331" y="209" type="curve" smooth="yes"/>
      <point x="331" y="79"/>
      <point x="286" y="15"/>
      <point x="201" y="15" type="curve" smooth="yes"/>
      <point x="119" y="15"/>
      <point x="66" y="72"/>
      <point x="66" y="169" type="curve" smooth="yes"/>
      <point x="66" y="215"/>
      <point x="73" y="251"/>
      <point x="79" y="271" type="curve"/>
      <point x="53" y="271" type="line"/>
      <point x="48" y="255"/>
      <point x="39" y="215"/>
      <point x="39" y="169" type="curve" smooth="yes"/>
      <point x="39" y="76"/>
      <point x="88" y="-10"/>
    </contour>
  </outline>
</glyph>
<glyph name="Las-georgian" format="2">
  <advance width="770"/>
  <unicode hex="1C9A"/>
  <outline>
    <contour>
      <point x="519" y="0" type="curve"/>
      <point x="544" y="0" type="line"/>
      <point x="518" y="117"/>
      <point x="433" y="144"/>
      <point x="339" y="166" type="curve" smooth="yes"/>
      <point x="154" y="209"/>
      <point x="77" y="297"/>
      <point x="77" y="492" type="curve" smooth="yes"/>
      <point x="77" y="616"/>
      <point x="104" y="699"/>
      <point x="179" y="699" type="curve" smooth="yes"/>
      <point x="260" y="699"/>
      <point x="267" y="619"/>
      <point x="267" y="532" type="curve" smooth="yes"/>
      <point x="267" y="400" type="line"/>
      <point x="293" y="400" type="line"/>
      <point x="293" y="532" type="line" smooth="yes"/>
      <point x="293" y="622"/>
      <point x="308" y="699"/>
      <point x="385" y="699" type="curve" smooth="yes"/>
      <point x="461" y="699"/>
      <point x="476" y="630"/>
      <point x="476" y="532" type="curve" smooth="yes"/>
      <point x="476" y="400" type="line"/>
      <point x="502" y="400" type="line"/>
      <point x="502" y="532" type="line" smooth="yes"/>
      <point x="502" y="630"/>
      <point x="514" y="699"/>
      <point x="592" y="699" type="curve" smooth="yes"/>
      <point x="666" y="699"/>
      <point x="693" y="615"/>
      <point x="693" y="495" type="curve" smooth="yes"/>
      <point x="693" y="411"/>
      <point x="682" y="351"/>
      <point x="655" y="287" type="curve"/>
      <point x="679" y="280" type="line"/>
      <point x="708" y="346"/>
      <point x="720" y="410"/>
      <point x="720" y="492" type="curve" smooth="yes"/>
      <point x="720" y="637"/>
      <point x="680" y="724"/>
      <point x="594" y="724" type="curve" smooth="yes"/>
      <point x="531" y="724"/>
      <point x="498" y="683"/>
      <point x="490" y="632" type="curve"/>
      <point x="488" y="632" type="line"/>
      <point x="480" y="683"/>
      <point x="449" y="724"/>
      <point x="385" y="724" type="curve" smooth="yes"/>
      <point x="320" y="724"/>
      <point x="291" y="683"/>
      <point x="282" y="632" type="curve"/>
      <point x="280" y="632" type="line"/>
      <point x="271" y="686"/>
      <point x="236" y="724"/>
      <point x="177" y="724" type="curve" smooth="yes"/>
      <point x="90" y="724"/>
      <point x="50" y="638"/>
      <point x="50" y="492" type="curve" smooth="yes"/>
      <point x="50" y="320"/>
      <point x="117" y="199"/>
      <point x="277" y="164" type="curve"/>
      <point x="277" y="163" type="line"/>
      <point x="233" y="165"/>
      <point x="185" y="154"/>
      <point x="147" y="138" type="curve"/>
      <point x="157" y="119" type="line"/>
      <point x="191" y="135"/>
      <point x="233" y="144"/>
      <point x="280" y="144" type="curve" smooth="yes"/>
      <point x="351" y="144"/>
      <point x="490" y="127"/>
    </contour>
  </outline>
</glyph>
<glyph name="Man-georgian" format="2">
  <advance width="453"/>
  <unicode hex="1C9B"/>
  <outline>
    <contour>
      <point x="214" y="-10" type="curve" smooth="yes"/>
      <point x="312" y="-10"/>
      <point x="381" y="67"/>
      <point x="381" y="241" type="curve" smooth="yes"/>
      <point x="381" y="577" type="line" smooth="yes"/>
      <point x="381" y="681"/>
      <point x="303" y="724"/>
      <point x="227" y="724" type="curve" smooth="yes"/>
      <point x="139" y="724"/>
      <point x="76" y="668"/>
      <point x="76" y="593" type="curve" smooth="yes"/>
      <point x="76" y="584"/>
      <point x="77" y="576"/>
      <point x="78" y="567" type="curve"/>
      <point x="104" y="567" type="line"/>
      <point x="103" y="576"/>
      <point x="102" y="584"/>
      <point x="102" y="592" type="curve" smooth="yes"/>
      <point x="102" y="662"/>
      <point x="158" y="699"/>
      <point x="228" y="699" type="curve" smooth="yes"/>
      <point x="303" y="699"/>
      <point x="355" y="655"/>
      <point x="355" y="572" type="curve" smooth="yes"/>
      <point x="355" y="468" type="line" smooth="yes"/>
      <point x="355" y="449"/>
      <point x="356" y="428"/>
      <point x="357" y="404" type="curve"/>
      <point x="355" y="404" type="line"/>
      <point x="344" y="451"/>
      <point x="295" y="505"/>
      <point x="214" y="505" type="curve" smooth="yes"/>
      <point x="109" y="505"/>
      <point x="50" y="412"/>
      <point x="50" y="241" type="curve" smooth="yes"/>
      <point x="50" y="104"/>
      <point x="97" y="-10"/>
    </contour>
    <contour>
      <point x="214" y="15" type="curve" smooth="yes"/>
      <point x="127" y="15"/>
      <point x="77" y="101"/>
      <point x="77" y="241" type="curve" smooth="yes"/>
      <point x="77" y="397"/>
      <point x="126" y="480"/>
      <point x="216" y="480" type="curve" smooth="yes"/>
      <point x="301" y="480"/>
      <point x="355" y="406"/>
      <point x="355" y="295" type="curve" smooth="yes"/>
      <point x="355" y="242" type="line" smooth="yes"/>
      <point x="355" y="99"/>
      <point x="304" y="15"/>
    </contour>
  </outline>
</glyph>
<glyph name="Nar-georgian" format="2">
  <advance width="453"/>
  <unicode hex="1C9C"/>
  <outline>
    <contour>
      <point x="238" y="-10" type="curve" smooth="yes"/>
      <point x="357" y="-10"/>
      <point x="403" y="105"/>
      <point x="403" y="241" type="curve" smooth="yes"/>
      <point x="403" y="411"/>
      <point x="343" y="505"/>
      <point x="238" y="505" type="curve" smooth="yes"/>
      <point x="156" y="505"/>
      <point x="109" y="450"/>
      <point x="98" y="404" type="curve"/>
      <point x="96" y="404" type="line"/>
      <point x="97" y="427"/>
      <point x="98" y="447"/>
      <point x="98" y="468" type="curve" smooth="yes"/>
      <point x="98" y="564" type="line" smooth="yes"/>
      <point x="98" y="645"/>
      <point x="135" y="689"/>
      <point x="218" y="689" type="curve" smooth="yes"/>
      <point x="371" y="689" type="line"/>
      <point x="371" y="714" type="line"/>
      <point x="218" y="714" type="line" smooth="yes"/>
      <point x="121" y="714"/>
      <point x="72" y="663"/>
      <point x="72" y="564" type="curve" smooth="yes"/>
      <point x="72" y="241" type="line" smooth="yes"/>
      <point x="72" y="67"/>
      <point x="140" y="-10"/>
    </contour>
    <contour>
      <point x="238" y="15" type="curve" smooth="yes"/>
      <point x="149" y="15"/>
      <point x="98" y="99"/>
      <point x="98" y="241" type="curve" smooth="yes"/>
      <point x="98" y="295" type="line" smooth="yes"/>
      <point x="98" y="404"/>
      <point x="151" y="480"/>
      <point x="238" y="480" type="curve" smooth="yes"/>
      <point x="328" y="480"/>
      <point x="376" y="396"/>
      <point x="376" y="241" type="curve" smooth="yes"/>
      <point x="376" y="102"/>
      <point x="327" y="15"/>
    </contour>
  </outline>
</glyph>
<glyph name="On-georgian" format="2">
  <advance width="612"/>
  <unicode hex="1C9D"/>
  <anchor x="306" y="714" name="top"/>
  <outline>
    <contour>
      <point x="127" y="0" type="curve"/>
      <point x="154" y="0" type="line"/>
      <point x="110" y="122"/>
      <point x="81" y="270"/>
      <point x="81" y="429" type="curve" smooth="yes"/>
      <point x="81" y="617"/>
      <point x="116" y="699"/>
      <point x="190" y="699" type="curve" smooth="yes"/>
      <point x="271" y="699"/>
      <point x="293" y="616"/>
      <point x="293" y="489" type="curve" smooth="yes"/>
      <point x="293" y="230" type="line"/>
      <point x="319" y="230" type="line"/>
      <point x="319" y="489" type="line" smooth="yes"/>
      <point x="319" y="609"/>
      <point x="338" y="699"/>
      <point x="420" y="699" type="curve" smooth="yes"/>
      <point x="496" y="699"/>
      <point x="531" y="617"/>
      <point x="531" y="429" type="curve" smooth="yes"/>
      <point x="531" y="264"/>
      <point x="501" y="122"/>
      <point x="458" y="0" type="curve"/>
      <point x="485" y="0" type="line"/>
      <point x="528" y="118"/>
      <point x="558" y="259"/>
      <point x="558" y="429" type="curve" smooth="yes"/>
      <point x="558" y="639"/>
      <point x="510" y="724"/>
      <point x="420" y="724" type="curve" smooth="yes"/>
      <point x="366" y="724"/>
      <point x="321" y="697"/>
      <point x="307" y="602" type="curve"/>
      <point x="305" y="602" type="line"/>
      <point x="290" y="695"/>
      <point x="244" y="724"/>
      <point x="190" y="724" type="curve" smooth="yes"/>
      <point x="102" y="724"/>
      <point x="54" y="639"/>
      <point x="54" y="429" type="curve" smooth="yes"/>
      <point x="54" y="265"/>
      <point x="83" y="118"/>
    </contour>
  </outline>
</glyph>
<glyph name="Par-georgian" format="2">
  <advance width="412"/>
  <unicode hex="1C9E"/>
  <outline>
    <contour>
      <point x="204" y="-10" type="curve" smooth="yes"/>
      <point x="295" y="-10"/>
      <point x="362" y="50"/>
      <point x="362" y="199" type="curve" smooth="yes"/>
      <point x="362" y="321"/>
      <point x="308" y="387"/>
      <point x="241" y="397" type="curve"/>
      <point x="241" y="398" type="line"/>
      <point x="308" y="407"/>
      <point x="339" y="447"/>
      <point x="339" y="500" type="curve" smooth="yes"/>
      <point x="339" y="561"/>
      <point x="303" y="592"/>
      <point x="270" y="618" type="curve" smooth="yes"/>
      <point x="234" y="646"/>
      <point x="201" y="669"/>
      <point x="201" y="714" type="curve"/>
      <point x="175" y="714" type="line"/>
      <point x="175" y="667"/>
      <point x="204" y="638"/>
      <point x="248" y="605" type="curve" smooth="yes"/>
      <point x="284" y="578"/>
      <point x="313" y="552"/>
      <point x="313" y="500" type="curve" smooth="yes"/>
      <point x="313" y="437"/>
      <point x="263" y="410"/>
      <point x="191" y="410" type="curve" smooth="yes"/>
      <point x="162" y="410" type="line"/>
      <point x="162" y="386" type="line"/>
      <point x="191" y="386" type="line" smooth="yes"/>
      <point x="272" y="386"/>
      <point x="335" y="330"/>
      <point x="335" y="200" type="curve" smooth="yes"/>
      <point x="335" y="75"/>
      <point x="287" y="15"/>
      <point x="204" y="15" type="curve" smooth="yes"/>
      <point x="124" y="15"/>
      <point x="71" y="72"/>
      <point x="71" y="169" type="curve" smooth="yes"/>
      <point x="71" y="215"/>
      <point x="78" y="251"/>
      <point x="84" y="271" type="curve"/>
      <point x="58" y="271" type="line"/>
      <point x="53" y="255"/>
      <point x="44" y="215"/>
      <point x="44" y="169" type="curve" smooth="yes"/>
      <point x="44" y="76"/>
      <point x="93" y="-10"/>
    </contour>
  </outline>
</glyph>
<glyph name="Zhar-georgian" format="2">
  <advance width="474"/>
  <unicode hex="1C9F"/>
  <outline>
    <contour>
      <point x="237" y="-10" type="curve" smooth="yes"/>
      <point x="328" y="-10"/>
      <point x="397" y="48"/>
      <point x="397" y="192" type="curve" smooth="yes"/>
      <point x="397" y="714" type="line"/>
      <point x="374" y="714" type="line"/>
      <point x="308" y="678"/>
      <point x="231" y="655"/>
      <point x="142" y="641" type="curve"/>
      <point x="142" y="619" type="line"/>
      <point x="184" y="612"/>
      <point x="225" y="573"/>
      <point x="225" y="505" type="curve" smooth="yes"/>
      <point x="225" y="444"/>
      <point x="202" y="402"/>
      <point x="145" y="402" type="curve" smooth="yes"/>
      <point x="92" y="402"/>
      <point x="66" y="438"/>
      <point x="66" y="488" type="curve" smooth="yes"/>
      <point x="66" y="500"/>
      <point x="67" y="512"/>
      <point x="69" y="521" type="curve"/>
      <point x="43" y="521" type="line"/>
      <point x="41" y="511"/>
      <point x="40" y="498"/>
      <point x="40" y="487" type="curve" smooth="yes"/>
      <point x="40" y="429"/>
      <point x="71" y="378"/>
      <point x="145" y="378" type="curve" smooth="yes"/>
      <point x="219" y="378"/>
      <point x="251" y="432"/>
      <point x="251" y="505" type="curve" smooth="yes"/>
      <point x="251" y="571"/>
      <point x="222" y="611"/>
      <point x="177" y="626" type="curve"/>
      <point x="177" y="627" type="line"/>
      <point x="251" y="639"/>
      <point x="310" y="659"/>
      <point x="370" y="688" type="curve"/>
      <point x="370" y="193" type="line" smooth="yes"/>
      <point x="370" y="72"/>
      <point x="320" y="15"/>
      <point x="237" y="15" type="curve" smooth="yes"/>
      <point x="156" y="15"/>
      <point x="103" y="72"/>
      <point x="103" y="169" type="curve" smooth="yes"/>
      <point x="103" y="215"/>
      <point x="110" y="251"/>
      <point x="116" y="271" type="curve"/>
      <point x="90" y="271" type="line"/>
      <point x="85" y="255"/>
      <point x="76" y="215"/>
      <point x="76" y="169" type="curve" smooth="yes"/>
      <point x="76" y="76"/>
      <point x="125" y="-10"/>
    </contour>
  </outline>
</glyph>
<glyph name="Rae-georgian" format="2">
  <advance width="571"/>
  <unicode hex="1CA0"/>
  <outline>
    <contour>
      <point x="98" y="0" type="curve"/>
      <point x="124" y="0" type="line"/>
      <point x="97" y="90"/>
      <point x="77" y="165"/>
      <point x="77" y="273" type="curve" smooth="yes"/>
      <point x="77" y="400"/>
      <point x="104" y="480"/>
      <point x="183" y="480" type="curve" smooth="yes"/>
      <point x="261" y="480"/>
      <point x="272" y="414"/>
      <point x="272" y="314" type="curve" smooth="yes"/>
      <point x="272" y="178" type="line"/>
      <point x="299" y="178" type="line"/>
      <point x="299" y="314" type="line" smooth="yes"/>
      <point x="299" y="414"/>
      <point x="310" y="480"/>
      <point x="388" y="480" type="curve" smooth="yes"/>
      <point x="466" y="480"/>
      <point x="494" y="403"/>
      <point x="494" y="273" type="curve" smooth="yes"/>
      <point x="494" y="167"/>
      <point x="476" y="89"/>
      <point x="447" y="0" type="curve"/>
      <point x="474" y="0" type="line"/>
      <point x="505" y="91"/>
      <point x="521" y="162"/>
      <point x="521" y="273" type="curve" smooth="yes"/>
      <point x="521" y="406"/>
      <point x="487" y="505"/>
      <point x="388" y="505" type="curve" smooth="yes"/>
      <point x="326" y="505"/>
      <point x="295" y="468"/>
      <point x="287" y="416" type="curve"/>
      <point x="284" y="416" type="line"/>
      <point x="276" y="468"/>
      <point x="244" y="505"/>
      <point x="183" y="505" type="curve" smooth="yes"/>
      <point x="145" y="505"/>
      <point x="100" y="489"/>
      <point x="76" y="422" type="curve"/>
      <point x="74" y="422" type="line"/>
      <point x="94" y="549"/>
      <point x="122" y="607"/>
      <point x="193" y="646" type="curve" smooth="yes"/>
      <point x="245" y="674"/>
      <point x="339" y="689"/>
      <point x="390" y="699" type="curve"/>
      <point x="384" y="724" type="line"/>
      <point x="307" y="710"/>
      <point x="217" y="690"/>
      <point x="171" y="663" type="curve" smooth="yes"/>
      <point x="65" y="600"/>
      <point x="50" y="469"/>
      <point x="50" y="321" type="curve" smooth="yes"/>
      <point x="50" y="173"/>
      <point x="63" y="104"/>
    </contour>
  </outline>
</glyph>
<glyph name="San-georgian" format="2">
  <advance width="452"/>
  <unicode hex="1CA1"/>
  <outline>
    <contour>
      <point x="238" y="-10" type="curve" smooth="yes"/>
      <point x="341" y="-10"/>
      <point x="402" y="69"/>
      <point x="402" y="197" type="curve" smooth="yes"/>
      <point x="402" y="261"/>
      <point x="385" y="308"/>
      <point x="356" y="353" type="curve" smooth="yes"/>
      <point x="329" y="395"/>
      <point x="309" y="440"/>
      <point x="309" y="495" type="curve"/>
      <point x="283" y="495" type="line"/>
      <point x="282" y="431"/>
      <point x="307" y="381"/>
      <point x="332" y="342" type="curve" smooth="yes"/>
      <point x="360" y="298"/>
      <point x="375" y="256"/>
      <point x="375" y="198" type="curve" smooth="yes"/>
      <point x="375" y="89"/>
      <point x="325" y="15"/>
      <point x="237" y="15" type="curve" smooth="yes"/>
      <point x="149" y="15"/>
      <point x="98" y="87"/>
      <point x="98" y="221" type="curve" smooth="yes"/>
      <point x="98" y="714" type="line"/>
      <point x="72" y="714" type="line"/>
      <point x="72" y="220" type="line" smooth="yes"/>
      <point x="72" y="56"/>
      <point x="140" y="-10"/>
    </contour>
  </outline>
</glyph>
<glyph name="Tar-georgian" format="2">
  <advance width="534"/>
  <unicode hex="1CA2"/>
  <outline>
    <contour>
      <point x="267" y="-10" type="curve" smooth="yes"/>
      <point x="435" y="-10"/>
      <point x="484" y="156"/>
      <point x="484" y="361" type="curve" smooth="yes"/>
      <point x="484" y="578"/>
      <point x="411" y="691"/>
      <point x="279" y="699" type="curve"/>
      <point x="280" y="712"/>
      <point x="280" y="725"/>
      <point x="280" y="735" type="curve" smooth="yes"/>
      <point x="280" y="749" type="line"/>
      <point x="254" y="749" type="line"/>
      <point x="254" y="735" type="line" smooth="yes"/>
      <point x="254" y="725"/>
      <point x="254" y="712"/>
      <point x="255" y="699" type="curve"/>
      <point x="123" y="691"/>
      <point x="50" y="578"/>
      <point x="50" y="361" type="curve" smooth="yes"/>
      <point x="50" y="156"/>
      <point x="99" y="-10"/>
    </contour>
    <contour>
      <point x="267" y="15" type="curve" smooth="yes"/>
      <point x="145" y="15"/>
      <point x="77" y="130"/>
      <point x="77" y="361" type="curve" smooth="yes"/>
      <point x="77" y="560"/>
      <point x="139" y="667"/>
      <point x="255" y="675" type="curve"/>
      <point x="255" y="654"/>
      <point x="254" y="634"/>
      <point x="254" y="586" type="curve" smooth="yes"/>
      <point x="254" y="331" type="line"/>
      <point x="280" y="331" type="line"/>
      <point x="280" y="586" type="line" smooth="yes"/>
      <point x="280" y="634"/>
      <point x="279" y="654"/>
      <point x="279" y="675" type="curve"/>
      <point x="395" y="667"/>
      <point x="457" y="560"/>
      <point x="457" y="361" type="curve" smooth="yes"/>
      <point x="457" y="130"/>
      <point x="389" y="15"/>
    </contour>
  </outline>
</glyph>
<glyph name="Un-georgian" format="2">
  <advance width="461"/>
  <unicode hex="1CA3"/>
  <anchor x="224" y="714" name="top"/>
  <outline>
    <contour>
      <point x="229" y="-10" type="curve" smooth="yes"/>
      <point x="321" y="-10"/>
      <point x="389" y="48"/>
      <point x="389" y="192" type="curve" smooth="yes"/>
      <point x="389" y="582" type="line" smooth="yes"/>
      <point x="389" y="662"/>
      <point x="361" y="724"/>
      <point x="272" y="724" type="curve" smooth="yes"/>
      <point x="205" y="724"/>
      <point x="175" y="676"/>
      <point x="169" y="635" type="curve"/>
      <point x="167" y="635" type="line"/>
      <point x="161" y="679"/>
      <point x="128" y="719"/>
      <point x="66" y="719" type="curve" smooth="yes"/>
      <point x="33" y="719" type="line"/>
      <point x="33" y="695" type="line"/>
      <point x="67" y="695" type="line" smooth="yes"/>
      <point x="126" y="695"/>
      <point x="156" y="650"/>
      <point x="156" y="579" type="curve" smooth="yes"/>
      <point x="156" y="452" type="line"/>
      <point x="182" y="452" type="line"/>
      <point x="182" y="579" type="line" smooth="yes"/>
      <point x="182" y="650"/>
      <point x="208" y="699"/>
      <point x="272" y="699" type="curve" smooth="yes"/>
      <point x="343" y="699"/>
      <point x="363" y="646"/>
      <point x="363" y="579" type="curve" smooth="yes"/>
      <point x="363" y="193" type="line" smooth="yes"/>
      <point x="363" y="73"/>
      <point x="313" y="15"/>
      <point x="229" y="15" type="curve" smooth="yes"/>
      <point x="144" y="15"/>
      <point x="96" y="72"/>
      <point x="96" y="179" type="curve" smooth="yes"/>
      <point x="96" y="228"/>
      <point x="105" y="264"/>
      <point x="114" y="289" type="curve"/>
      <point x="87" y="289" type="line"/>
      <point x="78" y="267"/>
      <point x="69" y="227"/>
      <point x="69" y="179" type="curve" smooth="yes"/>
      <point x="69" y="76"/>
      <point x="113" y="-10"/>
    </contour>
  </outline>
</glyph>
<glyph name="Phar-georgian" format="2">
  <advance width="636"/>
  <unicode hex="1CA4"/>
  <outline>
    <contour>
      <point x="377" y="-9" type="curve" smooth="yes"/>
      <point x="500" y="-9"/>
      <point x="567" y="64"/>
      <point x="567" y="181" type="curve" smooth="yes"/>
      <point x="567" y="255"/>
      <point x="535" y="332"/>
      <point x="458" y="346" type="curve"/>
      <point x="458" y="348" type="line"/>
      <point x="542" y="366"/>
      <point x="586" y="432"/>
      <point x="586" y="532" type="curve" smooth="yes"/>
      <point x="586" y="625"/>
      <point x="560" y="724"/>
      <point x="454" y="724" type="curve" smooth="yes"/>
      <point x="383" y="724"/>
      <point x="337" y="677"/>
      <point x="336" y="594" type="curve"/>
      <point x="334" y="594" type="line"/>
      <point x="318" y="688"/>
      <point x="263" y="724"/>
      <point x="201" y="724" type="curve" smooth="yes"/>
      <point x="98" y="724"/>
      <point x="50" y="635"/>
      <point x="50" y="481" type="curve" smooth="yes"/>
      <point x="50" y="325"/>
      <point x="103" y="244"/>
      <point x="202" y="244" type="curve" smooth="yes"/>
      <point x="302" y="244"/>
      <point x="351" y="327"/>
      <point x="351" y="479" type="curve" smooth="yes"/>
      <point x="351" y="525" type="line" smooth="yes"/>
      <point x="351" y="611"/>
      <point x="366" y="699"/>
      <point x="454" y="699" type="curve" smooth="yes"/>
      <point x="539" y="699"/>
      <point x="558" y="622"/>
      <point x="558" y="532" type="curve" smooth="yes"/>
      <point x="558" y="432"/>
      <point x="502" y="360"/>
      <point x="424" y="360" type="curve" smooth="yes"/>
      <point x="402" y="360" type="line"/>
      <point x="402" y="335" type="line"/>
      <point x="422" y="335" type="line" smooth="yes"/>
      <point x="504" y="335"/>
      <point x="540" y="257"/>
      <point x="540" y="182" type="curve" smooth="yes"/>
      <point x="540" y="88"/>
      <point x="492" y="15"/>
      <point x="377" y="15" type="curve" smooth="yes"/>
      <point x="262" y="15"/>
      <point x="213" y="72"/>
      <point x="213" y="139" type="curve" smooth="yes"/>
      <point x="213" y="149"/>
      <point x="214" y="161"/>
      <point x="215" y="173" type="curve"/>
      <point x="190" y="173" type="line"/>
      <point x="188" y="161"/>
      <point x="187" y="148"/>
      <point x="187" y="134" type="curve" smooth="yes"/>
      <point x="187" y="59"/>
      <point x="246" y="-9"/>
    </contour>
    <contour>
      <point x="201" y="269" type="curve" smooth="yes"/>
      <point x="115" y="269"/>
      <point x="76" y="343"/>
      <point x="76" y="481" type="curve" smooth="yes"/>
      <point x="76" y="617"/>
      <point x="112" y="699"/>
      <point x="201" y="699" type="curve" smooth="yes"/>
      <point x="287" y="699"/>
      <point x="325" y="616"/>
      <point x="325" y="480" type="curve" smooth="yes"/>
      <point x="325" y="342"/>
      <point x="287" y="269"/>
    </contour>
  </outline>
</glyph>
<glyph name="Khar-georgian" format="2">
  <advance width="436"/>
  <unicode hex="1CA5"/>
  <outline>
    <contour>
      <point x="204" y="-10" type="curve" smooth="yes"/>
      <point x="296" y="-10"/>
      <point x="364" y="48"/>
      <point x="364" y="192" type="curve" smooth="yes"/>
      <point x="364" y="714" type="line"/>
      <point x="338" y="714" type="line"/>
      <point x="338" y="580" type="line" smooth="yes"/>
      <point x="338" y="561"/>
      <point x="339" y="541"/>
      <point x="340" y="517" type="curve"/>
      <point x="338" y="517" type="line"/>
      <point x="327" y="561"/>
      <point x="280" y="617"/>
      <point x="207" y="617" type="curve" smooth="yes"/>
      <point x="129" y="617"/>
      <point x="67" y="570"/>
      <point x="67" y="458" type="curve" smooth="yes"/>
      <point x="67" y="439"/>
      <point x="69" y="417"/>
      <point x="75" y="396" type="curve"/>
      <point x="101" y="396" type="line"/>
      <point x="97" y="415"/>
      <point x="94" y="435"/>
      <point x="94" y="458" type="curve" smooth="yes"/>
      <point x="94" y="566"/>
      <point x="154" y="592"/>
      <point x="207" y="592" type="curve" smooth="yes"/>
      <point x="283" y="592"/>
      <point x="338" y="518"/>
      <point x="338" y="409" type="curve" smooth="yes"/>
      <point x="338" y="193" type="line" smooth="yes"/>
      <point x="338" y="72"/>
      <point x="288" y="15"/>
      <point x="204" y="15" type="curve" smooth="yes"/>
      <point x="124" y="15"/>
      <point x="71" y="72"/>
      <point x="71" y="169" type="curve" smooth="yes"/>
      <point x="71" y="215"/>
      <point x="78" y="251"/>
      <point x="84" y="271" type="curve"/>
      <point x="58" y="271" type="line"/>
      <point x="53" y="255"/>
      <point x="44" y="215"/>
      <point x="44" y="169" type="curve" smooth="yes"/>
      <point x="44" y="76"/>
      <point x="93" y="-10"/>
    </contour>
  </outline>
</glyph>
<glyph name="Ghan-georgian" format="2">
  <advance width="571"/>
  <unicode hex="1CA6"/>
  <outline>
    <contour>
      <point x="389" y="0" type="curve"/>
      <point x="414" y="0" type="line"/>
      <point x="405" y="86"/>
      <point x="335" y="140"/>
      <point x="255" y="173" type="curve" smooth="yes"/>
      <point x="155" y="214"/>
      <point x="77" y="288"/>
      <point x="77" y="486" type="curve" smooth="yes"/>
      <point x="77" y="618"/>
      <point x="104" y="699"/>
      <point x="181" y="699" type="curve" smooth="yes"/>
      <point x="261" y="699"/>
      <point x="272" y="632"/>
      <point x="272" y="532" type="curve" smooth="yes"/>
      <point x="272" y="399" type="line"/>
      <point x="299" y="399" type="line"/>
      <point x="299" y="532" type="line" smooth="yes"/>
      <point x="299" y="632"/>
      <point x="310" y="699"/>
      <point x="390" y="699" type="curve" smooth="yes"/>
      <point x="466" y="699"/>
      <point x="494" y="621"/>
      <point x="494" y="492" type="curve" smooth="yes"/>
      <point x="494" y="415"/>
      <point x="483" y="350"/>
      <point x="454" y="286" type="curve"/>
      <point x="479" y="278" type="line"/>
      <point x="508" y="345"/>
      <point x="521" y="406"/>
      <point x="521" y="492" type="curve" smooth="yes"/>
      <point x="521" y="624"/>
      <point x="487" y="724"/>
      <point x="391" y="724" type="curve" smooth="yes"/>
      <point x="326" y="724"/>
      <point x="295" y="689"/>
      <point x="287" y="638" type="curve"/>
      <point x="284" y="638" type="line"/>
      <point x="276" y="689"/>
      <point x="244" y="724"/>
      <point x="179" y="724" type="curve" smooth="yes"/>
      <point x="90" y="724"/>
      <point x="50" y="639"/>
      <point x="50" y="486" type="curve" smooth="yes"/>
      <point x="50" y="337"/>
      <point x="88" y="222"/>
      <point x="220" y="166" type="curve"/>
      <point x="220" y="165" type="line"/>
      <point x="170" y="167"/>
      <point x="144" y="163"/>
      <point x="107" y="150" type="curve"/>
      <point x="115" y="129" type="line"/>
      <point x="146" y="142"/>
      <point x="178" y="145"/>
      <point x="212" y="145" type="curve" smooth="yes"/>
      <point x="292" y="145"/>
      <point x="380" y="81"/>
    </contour>
  </outline>
</glyph>
<glyph name="Qar-georgian" format="2">
  <advance width="442"/>
  <unicode hex="1CA7"/>
  <outline>
    <contour>
      <point x="210" y="-10" type="curve" smooth="yes"/>
      <point x="302" y="-10"/>
      <point x="370" y="48"/>
      <point x="370" y="192" type="curve" smooth="yes"/>
      <point x="370" y="714" type="line"/>
      <point x="344" y="714" type="line"/>
      <point x="344" y="584" type="line" smooth="yes"/>
      <point x="344" y="423"/>
      <point x="281" y="370"/>
      <point x="207" y="370" type="curve" smooth="yes"/>
      <point x="117" y="370"/>
      <point x="82" y="447"/>
      <point x="82" y="539" type="curve" smooth="yes"/>
      <point x="82" y="610"/>
      <point x="93" y="658"/>
      <point x="114" y="714" type="curve"/>
      <point x="88" y="714" type="line"/>
      <point x="65" y="659"/>
      <point x="55" y="606"/>
      <point x="55" y="539" type="curve" smooth="yes"/>
      <point x="55" y="425"/>
      <point x="104" y="345"/>
      <point x="208" y="345" type="curve" smooth="yes"/>
      <point x="267" y="345"/>
      <point x="320" y="376"/>
      <point x="344" y="448" type="curve"/>
      <point x="346" y="448" type="line"/>
      <point x="344" y="401"/>
      <point x="344" y="370"/>
      <point x="344" y="341" type="curve" smooth="yes"/>
      <point x="344" y="193" type="line" smooth="yes"/>
      <point x="344" y="72"/>
      <point x="294" y="15"/>
      <point x="210" y="15" type="curve" smooth="yes"/>
      <point x="130" y="15"/>
      <point x="77" y="72"/>
      <point x="77" y="169" type="curve" smooth="yes"/>
      <point x="77" y="215"/>
      <point x="84" y="251"/>
      <point x="90" y="271" type="curve"/>
      <point x="64" y="271" type="line"/>
      <point x="59" y="255"/>
      <point x="50" y="215"/>
      <point x="50" y="169" type="curve" smooth="yes"/>
      <point x="50" y="76"/>
      <point x="99" y="-10"/>
    </contour>
  </outline>
</glyph>
